<?xml version="1.0" standalone="no"?>
<!DOCTYPE svg PUBLIC "-//W3C//DTD SVG 1.1//EN" "http://www.w3.org/Graphics/SVG/1.1/DTD/svg11.dtd" >
<svg xmlns="http://www.w3.org/2000/svg">
<metadata></metadata>
<defs>
<font id="ekibastuzblack" horiz-adv-x="1384" >
<font-face units-per-em="2048" ascent="1638" descent="-410" />
<missing-glyph horiz-adv-x="540" />
<glyph horiz-adv-x="0" />
<glyph horiz-adv-x="682" />
<glyph unicode=" "  horiz-adv-x="540" />
<glyph unicode="&#x09;" horiz-adv-x="540" />
<glyph unicode="&#xa0;" horiz-adv-x="540" />
<glyph unicode="!" horiz-adv-x="598" d="M115 0v336h368v-336h-368zM115 1434h368l-45 -975h-278z" />
<glyph unicode="&#x22;" horiz-adv-x="997" d="M133 1434h307l-20 -471h-266zM555 1434h307l-20 -471h-267z" />
<glyph unicode="#" horiz-adv-x="1568" d="M135 258v283h154l80 352h-234v283h285l49 258h317l-51 -258h279l51 258h317l-51 -258h103v-283h-154l-78 -352h232v-283h-281l-51 -258h-316l50 258h-279l-51 -258h-316l50 258h-105zM606 541h279l78 352h-279z" />
<glyph unicode="$" horiz-adv-x="1302" d="M82 956q0 109 36.5 190.5t102 129.5t147.5 71t183 25v123h205v-123q214 -8 422 -63l-39 -222q-201 51 -383 54v-303q465 -49 465 -441q0 -88 -22 -156.5t-61 -115t-98 -78t-128 -47t-156 -20.5v-144h-205v144q-287 4 -463 73l39 234q74 -25 193 -40.5t231 -17.5v314 q-77 9 -142.5 26t-127.5 49t-104.5 77t-68.5 111.5t-26 149.5zM375 999q0 -91 119 -129q5 -1 25.5 -6t31.5 -6v283q-93 -4 -134.5 -43.5t-41.5 -98.5zM756 229q44 2 78 14.5t52 29.5t29 39t14 38t3 31q0 123 -127 141q-14 2 -49 2v-295z" />
<glyph unicode="%" horiz-adv-x="2029" d="M135 985v137q0 161 91.5 246.5t256.5 85.5t255.5 -85t90.5 -247v-137q0 -161 -90 -243.5t-256 -82.5q-168 0 -258 82t-90 244zM379 1022q0 -45 3 -72.5t13 -53.5t31.5 -38t56.5 -12q32 0 53 14t31.5 40.5t14.5 55t4 66.5v70q0 46 -3 72.5t-12.5 53t-31 38.5t-56.5 12 q-62 0 -83 -43.5t-21 -132.5v-70zM489 0l736 1434h309l-737 -1434h-308zM1198 305v137q0 161 91.5 246.5t256.5 85.5t255.5 -85t90.5 -247v-137q0 -161 -89.5 -243t-256.5 -82q-168 0 -258 81.5t-90 243.5zM1442 342q0 -45 3 -72.5t13 -53.5t31.5 -38t56.5 -12q32 0 53 14 t31.5 40.5t14.5 55t4 66.5v70q0 46 -3 72.5t-12.5 53t-31 38.5t-56.5 12q-62 0 -83 -43.5t-21 -132.5v-70z" />
<glyph unicode="&#x26;" horiz-adv-x="1677" d="M123 393q0 95 24 168.5t69.5 122.5t95 80.5t116.5 56.5q-32 43 -51.5 74t-39.5 89t-20 118q0 113 66 194t174.5 119.5t247.5 38.5q229 0 424 -100l-66 -260q-153 80 -264 80q-87 0 -145 -36.5t-58 -119.5q0 -39 20.5 -82.5t47.5 -73.5l358 -422q27 38 46.5 97.5 t25.5 113.5l307 -37q-7 -109 -70 -212t-131 -158l218 -244h-367l-80 90q-139 -110 -393 -110q-79 0 -152 10.5t-148.5 39t-130 73.5t-89.5 119.5t-35 170.5zM473 393q0 -95 61.5 -141.5t159.5 -46.5q50 0 82.5 2t76.5 14.5t71 36.5l-326 379q-26 -18 -50.5 -44t-49.5 -81 t-25 -119z" />
<glyph unicode="'" horiz-adv-x="577" d="M135 1434h307l-20 -471h-266z" />
<glyph unicode="(" horiz-adv-x="952" d="M147 666q0 143 27 285t76.5 269.5t95.5 222t107 199.5l323 -49q-57 -94 -99 -180.5t-86 -204t-67.5 -256t-23.5 -286.5q0 -125 20.5 -248.5t46.5 -211.5t70 -188t71.5 -150.5t71.5 -125.5l-323 -49q-61 101 -109 196t-97.5 220.5t-76.5 268.5t-27 288z" />
<glyph unicode=")" horiz-adv-x="952" d="M147 -258q44 76 71 126t72 150t71 188t46.5 211.5t20.5 248.5q0 149 -23.5 287t-66.5 255t-86 204.5t-100 180.5l323 49q61 -105 107 -199.5t95 -222t76 -269.5t27 -285q0 -145 -27 -288t-76 -268.5t-96 -220.5t-108 -196z" />
<glyph unicode="*" horiz-adv-x="1474" d="M135 811l332 152l-332 151l123 250l358 -213l-18 365h279l-19 -365l359 213l122 -250l-331 -151l331 -152l-122 -250l-359 213l19 -364h-279l18 364l-358 -213z" />
<glyph unicode="+" horiz-adv-x="1294" d="M135 395v267h361v360h303v-360h360v-267h-360v-360h-303v360h-361z" />
<glyph unicode="," horiz-adv-x="614" d="M123 0v336h369v-205q0 -126 -67 -249.5t-155 -196.5l-116 63q92 118 92 252h-123z" />
<glyph unicode="-" horiz-adv-x="884" d="M135 524v267h615v-267h-615z" />
<glyph unicode="." horiz-adv-x="614" d="M123 0v336h369v-336h-369z" />
<glyph unicode="/" horiz-adv-x="1177" d="M74 -90l704 1542h326l-705 -1542h-325z" />
<glyph unicode="0" d="M66 590v241q0 302 167 462.5t459 160.5q293 0 460 -160t167 -463v-241q0 -299 -165.5 -454.5t-461.5 -155.5q-295 0 -460.5 154.5t-165.5 455.5zM430 582q0 -156 64.5 -244t197.5 -88t197.5 88t64.5 244v270q0 145 -65.5 238.5t-196.5 93.5q-88 0 -149 -47t-87 -119.5 t-26 -165.5v-270z" />
<glyph unicode="1" d="M266 926l543 508h309v-1434h-352v1008l-410 -349z" />
<glyph unicode="2" d="M131 0v90q0 90 8.5 163t23.5 129.5t41 104t55 82t72.5 67.5t85.5 57.5t103 54.5q22 11 71 33t82.5 37.5t77.5 41t70.5 47.5t46 51.5t19.5 59.5q0 71 -61 112t-175 41q-116 0 -214 -21t-224 -63l-59 281q97 36 237 61t281 25q100 0 180 -10t154.5 -37t124.5 -70.5t80 -113 t30 -162.5q0 -58 -15.5 -110.5t-33 -89.5t-61 -77t-67.5 -61t-86 -54.5t-83.5 -43.5t-91.5 -42q-11 -5 -17 -8q-53 -24 -88 -42.5t-77 -47t-66.5 -56.5t-41.5 -67t-17 -83h757v-279h-1122z" />
<glyph unicode="3" d="M127 45l43 270q240 -49 420 -49q59 0 103 4t85 15t66.5 30t41 49.5t15.5 73.5q0 52 -21.5 90t-52 58t-77.5 31.5t-84 14.5t-86 3h-152l-39 221h205q111 0 175.5 42.5t64.5 123.5q0 80 -61 112.5t-183 32.5q-95 0 -212 -11t-181 -30l-56 269q57 21 197.5 40t247.5 19 q115 0 202 -9t163 -32.5t124.5 -62.5t75.5 -100t27 -144q0 -127 -66 -204t-174 -111q73 -20 126 -46.5t99 -70.5t70 -112.5t24 -160.5q0 -75 -18 -135t-49.5 -103.5t-80.5 -76t-104.5 -52.5t-129 -32.5t-147 -17t-163.5 -4.5q-108 0 -253 23.5t-185 41.5z" />
<glyph unicode="4" d="M84 287v254l649 893h400v-867h167l-43 -280h-124v-287h-353v287h-696zM399 569h381v535z" />
<glyph unicode="5" d="M117 53l43 266q92 -19 237 -38t254 -19q65 0 107.5 7.5t77 29t50 62.5t15.5 106q0 56 -19.5 94t-55 57t-73.5 26t-87 7q-176 0 -461 -39l65 822h949l-21 -281h-635l-31 -274q44 10 147.5 19t176.5 9q93 0 165 -21.5t129 -70t87.5 -135t30.5 -207.5q0 -120 -32 -209 t-84 -142.5t-131 -86t-160 -44t-183 -11.5q-160 0 -331.5 25.5t-229.5 47.5z" />
<glyph unicode="6" d="M102 582v262q0 154 50.5 273t137.5 191t196 108t235 36q270 0 518 -74l-59 -274q-73 23 -195.5 40t-224.5 17q-148 0 -224.5 -58.5t-76.5 -187.5v-69q67 37 166 54.5t194 17.5q229 0 345 -120t116 -354q0 -223 -144 -343.5t-423 -120.5q-140 0 -246.5 29.5t-191 97 t-129 187t-44.5 288.5zM459 508q0 -144 58 -203t177 -59q105 0 167.5 48t62.5 150q0 111 -61 167.5t-161 56.5q-51 0 -124.5 -16.5t-118.5 -37.5v-106z" />
<glyph unicode="7" d="M115 1124v310h1153v-222q-64 -49 -129 -126t-130.5 -191.5t-115.5 -246t-81.5 -301.5t-31.5 -347h-415q0 199 41 380.5t111 320.5t151 243t174 180h-727z" />
<glyph unicode="8" d="M66 387q0 289 350 397q-289 92 -289 334q0 167 150 251.5t415 84.5t415 -84.5t150 -251.5q0 -75 -25.5 -133.5t-72 -97t-95.5 -62.5t-112 -43q78 -22 142 -55t115.5 -80.5t80.5 -114t29 -145.5q0 -407 -627 -407q-626 0 -626 407zM432 418q0 -168 260 -168t260 168 q0 30 -11.5 56t-37 47t-48.5 36t-63.5 31t-63.5 23.5t-66 21.5q-107 -36 -168.5 -85.5t-61.5 -129.5zM457 1075q0 -29 11 -53t35 -42.5t44.5 -31.5t58 -25.5t55.5 -18t56 -15.5q6 3 39 17.5t48 22t43.5 25.5t42.5 33.5t26 39t12 48.5q0 62 -60.5 95.5t-175.5 33.5 t-175 -33.5t-60 -95.5z" />
<glyph unicode="9" d="M102 987q0 222 145 343.5t423 121.5q111 0 200.5 -17.5t167.5 -60.5t130.5 -110.5t82 -171.5t29.5 -240v-262q0 -154 -50 -273.5t-136.5 -191.5t-195.5 -108.5t-234 -36.5q-267 0 -519 75l60 275q70 -26 191 -42t227 -16q148 0 224.5 58t76.5 188v70 q-43 -25 -149.5 -50.5t-207.5 -25.5q-217 0 -341 116.5t-124 358.5zM459 989q0 -111 59.5 -167t155.5 -56q54 0 130.5 16t119.5 37v123q0 132 -59.5 188t-174.5 56q-105 0 -168 -48t-63 -149z" />
<glyph unicode=":" horiz-adv-x="614" d="M123 0v336h369v-336h-369zM123 698v336h369v-336h-369z" />
<glyph unicode=";" horiz-adv-x="614" d="M123 0v336h369v-205q0 -126 -67 -249.5t-155 -196.5l-116 63q92 118 92 252h-123zM123 698v336h369v-336h-369z" />
<glyph unicode="&#x3c;" horiz-adv-x="1329" d="M135 434v166q174 71 1039 428v-260q-127 -49 -364.5 -136.5t-295.5 -109.5v-16q69 -24 312 -114t348 -126v-260q-173 70 -519.5 213.5t-519.5 214.5z" />
<glyph unicode="=" horiz-adv-x="1294" d="M135 158v241h1024v-241h-1024zM135 604v242h1024v-242h-1024z" />
<glyph unicode="&#x3e;" horiz-adv-x="1329" d="M135 6v260q105 36 348 126t312 114v16q-58 22 -295.5 109.5t-364.5 136.5v260q865 -357 1039 -428v-166q-173 -71 -519.5 -214.5t-519.5 -213.5z" />
<glyph unicode="?" horiz-adv-x="1167" d="M127 1415q200 39 319 39q74 0 131.5 -3.5t121 -14.5t110 -29.5t90.5 -50.5t72 -76t44.5 -107.5t16.5 -142.5q0 -47 -7.5 -87t-19 -68.5t-31.5 -54.5t-37.5 -42t-46 -33.5t-48 -27t-52 -25t-49.5 -24.5q-40 -20 -61 -48t-21 -79v-121h-303v166q0 97 44.5 152.5t136.5 97.5 q37 17 59.5 31t43.5 36t30.5 53t9.5 74q0 90 -55 121t-179 31q-57 0 -146 -12.5t-138 -26.5zM324 0v336h368v-336h-368z" />
<glyph unicode="@" horiz-adv-x="2336" d="M133 545q0 205 47 365t133.5 271t215 183.5t286 105.5t352.5 33q164 0 298 -17t252.5 -55t206.5 -101.5t152 -153t96 -214t32 -280.5q0 -166 -46 -288.5t-133 -197.5t-204 -111t-267 -36h-206v84q-42 -37 -126.5 -70.5t-156.5 -33.5q-176 0 -278.5 124.5t-102.5 376.5 q0 275 131.5 409t364.5 134q160 0 426 -49v-782q48 2 86 12.5t76.5 40t64 76.5t41.5 126t16 185q0 121 -16.5 211t-54 158t-92 112t-138 71.5t-184.5 38.5t-238 11q-721 0 -721 -739q0 -169 34 -295.5t94 -208t152.5 -132t198.5 -71t242 -20.5q228 0 465 43.5t416 105.5 l49 -200q-192 -79 -436 -129t-494 -50q-197 0 -352.5 29.5t-286 98.5t-216 178t-132.5 272.5t-47 378.5zM952 545q0 -75 11.5 -130.5t29.5 -88t45 -52t52.5 -26t56.5 -6.5q67 0 172 65v545q-91 22 -160 22q-42 0 -75 -12.5t-64.5 -45.5t-49 -101.5t-18.5 -169.5z" />
<glyph unicode="A" horiz-adv-x="1523" d="M84 0l461 1434h444l449 -1434h-369l-88 309h-438l-88 -309h-371zM594 543h340l-164 565z" />
<glyph unicode="B" horiz-adv-x="1271" d="M135 0v1434h621q86 0 152 -17.5t119 -57t81.5 -110t28.5 -170.5q0 -118 -46 -190.5t-124 -102.5q49 -16 86.5 -40t71 -64.5t51.5 -106t18 -153.5q0 -217 -97 -319.5t-331 -102.5h-631zM475 233h205q88 0 136 51.5t48 149.5q0 94 -54.5 145.5t-129.5 51.5h-205v-398z M475 864h195q56 0 96.5 45t40.5 133q0 72 -35 115t-102 43h-195v-336z" />
<glyph unicode="C" horiz-adv-x="1165" d="M78 569v295q0 151 46.5 265.5t131.5 184.5t198 105t253 35q151 0 380 -70l-61 -266q-55 18 -156 39t-163 21q-134 0 -204.5 -88t-70.5 -230v-287q0 -66 15 -121t46.5 -100t86 -70.5t127.5 -25.5q63 0 171 20.5t160 38.5l49 -266q-226 -69 -380 -69q-141 0 -254 34.5 t-198 104.5t-131 184t-46 266z" />
<glyph unicode="D" horiz-adv-x="1439" d="M135 0v1434h524q125 0 219.5 -13.5t176 -46t137 -86t95 -133t57.5 -188t18 -250.5q0 -170 -28 -293t-81.5 -205t-141 -130.5t-195.5 -68.5t-257 -20h-524zM487 268h172q69 0 118.5 10t95.5 38t74 77t44.5 130t16.5 194q0 98 -10.5 171t-33 121.5t-50.5 80t-70.5 47.5 t-84.5 22t-100 6h-172v-897z" />
<glyph unicode="E" horiz-adv-x="1167" d="M135 0v1434h955v-269h-603v-297h496v-266h-496v-334h603v-268h-955z" />
<glyph unicode="F" horiz-adv-x="1155" d="M135 0v1434h955v-295h-603v-322h496v-270h-496v-547h-352z" />
<glyph unicode="G" horiz-adv-x="1312" d="M78 553v319q0 151 47 264t135 182t206.5 102.5t268.5 33.5q254 0 467 -65l-61 -269q-195 56 -363 56q-182 0 -264 -78t-82 -238v-307q0 -315 303 -315q93 0 213 30v289l-250 12v232h537v-733q-222 -88 -500 -88q-151 0 -269 32t-206 99.5t-135 179t-47 262.5z" />
<glyph unicode="H" horiz-adv-x="1527" d="M135 0v1434h352v-541h553v541h353v-1434h-353v623h-553v-623h-352z" />
<glyph unicode="I" horiz-adv-x="851" d="M41 1163v271h758v-271h-203v-893h215v-270h-758v270h191v893h-203z" />
<glyph unicode="J" horiz-adv-x="1044" d="M33 39l43 278q104 -55 227 -55q139 0 196.5 62t57.5 174v936h352v-967q0 -252 -126 -369.5t-406 -117.5q-192 0 -344 59z" />
<glyph unicode="K" horiz-adv-x="1374" d="M135 0v1434h352v-617h29l418 617h407l-510 -660l523 -774h-396l-438 696h-33v-696h-352z" />
<glyph unicode="L" horiz-adv-x="1196" d="M135 0v1434h352v-1143h643v-291h-995z" />
<glyph unicode="M" horiz-adv-x="1953" d="M94 0l119 1434h424l336 -1078h8l336 1078h424l119 -1434h-361l-26 1024h-9l-325 -1024h-324l-328 1024h-8l-24 -1024h-361z" />
<glyph unicode="N" horiz-adv-x="1556" d="M135 0v1434h352l623 -910v910h311v-1434h-344l-631 922v-922h-311z" />
<glyph unicode="O" horiz-adv-x="1495" d="M78 545v332q0 284 178 430.5t492 146.5q315 0 492 -146.5t177 -430.5v-332q0 -283 -176 -424t-493 -141t-493.5 141t-176.5 424zM444 586q0 -157 75 -246.5t229 -89.5q303 0 303 336v262q0 73 -16.5 132t-51 106t-94.5 72.5t-141 25.5q-151 0 -227.5 -91.5t-76.5 -244.5 v-262z" />
<glyph unicode="P" horiz-adv-x="1320" d="M135 0v1434h520q317 0 452.5 -112.5t135.5 -391.5q0 -282 -136.5 -400t-451.5 -118h-168v-412h-352zM487 682h168q53 0 91.5 10t72 35.5t51 77t17.5 127.5q0 131 -56 180t-176 49h-168v-479z" />
<glyph unicode="Q" horiz-adv-x="1495" d="M78 545v332q0 284 178 430.5t492 146.5q315 0 492 -146.5t177 -430.5v-332q0 -236 -124 -373.5t-351 -175.5l244 -309h-385l-183 299q-259 27 -399.5 166.5t-140.5 392.5zM444 586q0 -157 75 -246.5t229 -89.5q303 0 303 336v262q0 73 -16.5 132t-51 106t-94.5 72.5 t-141 25.5q-151 0 -227.5 -91.5t-76.5 -244.5v-262z" />
<glyph unicode="R" horiz-adv-x="1370" d="M135 0v1434h549q318 0 453 -106.5t135 -366.5q0 -186 -73 -306t-195 -155l344 -500h-394l-280 492h-187v-492h-352zM487 756h209q113 0 166 46t53 159q0 114 -52 162t-167 48h-209v-415z" />
<glyph unicode="S" horiz-adv-x="1302" d="M82 1042q0 88 26.5 157.5t75 117t119.5 78.5t156 45t188 14q266 0 531 -68l-39 -268q-114 32 -247 52t-224 20q-232 0 -232 -123q0 -48 32.5 -74.5t104.5 -50.5q45 -15 105 -33.5t101.5 -30.5t92.5 -29.5t86.5 -32.5t75 -37t66 -46t52.5 -57t40.5 -72t23.5 -89t9 -109 q0 -115 -44 -199.5t-124.5 -133t-182.5 -71t-229 -22.5q-145 0 -298.5 24t-258.5 66l39 268q109 -33 263 -58.5t257 -25.5q57 0 100 9.5t65.5 23t36.5 32.5t17.5 33t3.5 29q0 61 -32.5 88t-124.5 55q-38 11 -110 32q-86 24 -127.5 37t-109 38t-99.5 47t-75 58t-62 77.5 t-33.5 99.5t-14.5 129z" />
<glyph unicode="T" horiz-adv-x="1179" d="M37 1143v291h1106v-291h-377v-1143h-352v1143h-377z" />
<glyph unicode="U" horiz-adv-x="1404" d="M119 512v922h364v-942q0 -127 61 -184.5t189 -57.5q125 0 176.5 56t51.5 186v942h325v-922q0 -270 -147.5 -401t-417.5 -131q-301 0 -451.5 129t-150.5 403z" />
<glyph unicode="V" horiz-adv-x="1386" d="M20 1434h398l266 -1121h33l272 1121h377l-436 -1434h-481z" />
<glyph unicode="W" horiz-adv-x="2068" d="M20 1434h326l217 -1129l289 1129h328l290 -1125l216 1125h321l-379 -1434h-354l-260 1090l-258 -1090h-398z" />
<glyph unicode="X" horiz-adv-x="1425" d="M20 0l433 737l-433 697h447l266 -533l268 533h404l-412 -697l412 -737h-449l-223 612l-311 -612h-402z" />
<glyph unicode="Y" horiz-adv-x="1351" d="M20 1434h388l264 -666l272 666h387l-479 -965v-469h-352v467z" />
<glyph unicode="Z" horiz-adv-x="1253" d="M66 0v252l688 936h-660v246h1069v-252l-678 -936h703v-246h-1122z" />
<glyph unicode="[" horiz-adv-x="913" d="M135 -410v1926h643v-277h-291v-1372h291v-277h-643z" />
<glyph unicode="\" horiz-adv-x="1177" d="M88 1479h326l723 -1706h-324z" />
<glyph unicode="]" horiz-adv-x="913" d="M135 -133h291v1372h-291v277h643v-1926h-643v277z" />
<glyph unicode="^" horiz-adv-x="1456" d="M135 561l463 873h260l463 -873h-320l-268 559l-278 -559h-320z" />
<glyph unicode="_" horiz-adv-x="1024" d="M0 -59h1024v-279h-1024v279z" />
<glyph unicode="`" horiz-adv-x="604" d="M115 1534h334l32 -373l-225 -33z" />
<glyph unicode="a" horiz-adv-x="1144" d="M74 295q0 152 96 219.5t287 67.5h256v90q0 81 -38.5 115t-139.5 34q-131 0 -375 -51l-37 211q259 63 428 63q250 0 368.5 -91.5t118.5 -290.5v-662h-327v70q-51 -38 -133.5 -64t-176.5 -26q-164 0 -245.5 76.5t-81.5 238.5zM403 301q0 -67 37 -96t121 -29q53 0 150 41 v195h-162q-70 0 -108 -32t-38 -79z" />
<glyph unicode="b" horiz-adv-x="1202" d="M106 0v1434h328v-480q150 88 293 88q214 0 314 -130t100 -400q0 -200 -44.5 -314.5t-132 -160t-237.5 -45.5q-60 0 -120.5 14t-93.5 27.5t-79 36.5v-70h-328zM434 240q85 -41 152 -41q215 0 215 313q0 165 -57 233t-158 68q-55 0 -152 -41v-532z" />
<glyph unicode="c" horiz-adv-x="968" d="M74 434v154q0 139 68.5 244.5t186.5 160t267 54.5q68 0 169 -18t175 -48l-45 -233q-37 17 -111 37t-122 20q-126 0 -186 -55.5t-60 -186.5v-104q0 -132 60 -186t186 -54q21 0 42 2t35.5 4.5t38 9t33.5 9.5t41 13.5t43 14.5l45 -231q-77 -28 -176 -43.5t-168 -15.5 q-114 0 -207.5 27t-164.5 81t-110.5 142t-39.5 202z" />
<glyph unicode="d" horiz-adv-x="1222" d="M82 512q0 284 105 408t331 124q69 0 126.5 -16t83 -31.5t60.5 -42.5v480h328v-1434h-328v70q-5 -3 -28 -18t-42 -24.5t-50 -22t-69.5 -19t-82.5 -6.5q-93 0 -169.5 29t-137 90t-94 166t-33.5 247zM422 512q0 -88 14.5 -148.5t44 -93t65.5 -46t87 -13.5q60 0 155 41v520 q-95 41 -155 41q-51 0 -86.5 -12t-65.5 -43t-44.5 -92t-14.5 -154z" />
<glyph unicode="e" horiz-adv-x="1146" d="M74 395v168q0 243 125 362t385 119q82 0 152.5 -11.5t136 -40.5t111.5 -74.5t73.5 -117t27.5 -163.5v-201h-682v-63q0 -47 12.5 -79.5t31.5 -51t52 -28.5t63 -12.5t75 -2.5q81 0 198 16t191 37l33 -217q-229 -55 -459 -55q-526 0 -526 415zM403 604h377v49q0 107 -48 148 t-148 41q-97 0 -139 -44t-42 -159v-35z" />
<glyph unicode="f" horiz-adv-x="876" d="M41 791v233h168v61q0 231 97 341t288 110q108 0 206.5 -13.5t147.5 -29.5l-43 -217q-114 27 -209 27q-42 0 -71.5 -13.5t-46.5 -35.5t-26.5 -60t-12 -76t-2.5 -94h299v-233h-299v-791h-328v791h-168z" />
<glyph unicode="g" horiz-adv-x="1216" d="M61 -68q0 196 164 285q-51 55 -51 119q0 77 59 133q-127 79 -127 252q0 66 18.5 117.5t54 86.5t80 59t103.5 36.5t117.5 18t128.5 5.5q104 0 209 -32q19 42 19 114h327q-4 -174 -127 -223q72 -63 72 -182q0 -78 -27 -135.5t-71 -91.5t-111 -54t-135 -27t-156 -7t-137 6 q-16 -28 -16 -72q0 -32 18 -72q50 6 135 6q101 0 180 -9t150 -32t117 -61t73 -98.5t27 -141.5q0 -80 -27 -140.5t-73.5 -99t-117 -62t-149.5 -33t-180 -9.5t-180 9.5t-149.5 33t-117 62t-73.5 99t-27 140.5zM379 -68q0 -74 48 -109.5t181 -35.5q134 0 182 34.5t48 110.5 q0 79 -47 111.5t-183 32.5q-124 0 -176.5 -32.5t-52.5 -111.5zM426 721q0 -74 35 -96.5t147 -22.5q109 0 145.5 22t37.5 97q0 74 -40.5 101.5t-142.5 27.5q-109 0 -145.5 -28.5t-36.5 -100.5z" />
<glyph unicode="h" horiz-adv-x="1253" d="M106 0v1434h328v-490q154 100 346 100q58 0 99.5 -4t87 -15.5t75.5 -35t55.5 -60t37.5 -93t12 -131.5v-705h-328v647q0 87 -41.5 125.5t-134.5 38.5q-55 0 -113 -23.5t-96 -54.5v-733h-328z" />
<glyph unicode="i" horiz-adv-x="540" d="M106 0v1024h328v-1024h-328zM106 1194v240h328v-240h-328z" />
<glyph unicode="j" horiz-adv-x="540" d="M-182 -369l22 189q20 -8 65 -15.5t68 -7.5q58 0 95.5 36t37.5 108v1083h328v-1081q0 -353 -373 -353q-124 0 -243 41zM106 1194v240h328v-240h-328z" />
<glyph unicode="k" horiz-adv-x="1144" d="M106 0v1434h328v-854h15l305 444h379l-379 -492l383 -532h-369l-322 502h-12v-502h-328z" />
<glyph unicode="l" horiz-adv-x="540" d="M106 0v1536h328v-1536h-328z" />
<glyph unicode="m" horiz-adv-x="1761" d="M106 0v1024h316v-137q77 58 179 107.5t175 49.5q104 0 159.5 -39t84.5 -114q78 58 186.5 105.5t182.5 47.5q85 0 138 -18t81 -60t37.5 -95t9.5 -138v-733h-316v678q0 65 -26.5 96t-85.5 31q-33 0 -88.5 -22t-94.5 -50v-733h-315v678q0 127 -121 127q-37 0 -92 -24.5 t-94 -57.5v-723h-316z" />
<glyph unicode="n" horiz-adv-x="1253" d="M106 0v1024h328v-80q77 39 191.5 69.5t214.5 30.5q166 0 236.5 -91.5t70.5 -290.5v-662h-328v631q0 100 -40.5 140t-135.5 40q-56 0 -113.5 -22.5t-95.5 -51.5v-737h-328z" />
<glyph unicode="o" horiz-adv-x="1187" d="M61 416v190q0 212 135 324t392 112q258 0 398 -112.5t140 -323.5v-190q0 -212 -140.5 -325.5t-397.5 -113.5q-256 0 -391.5 113t-135.5 326zM379 420q0 -225 209 -225t209 225v182q0 225 -209 225q-103 0 -156 -50.5t-53 -145.5v-211z" />
<glyph unicode="p" horiz-adv-x="1214" d="M106 -410v1434h328v-70q153 99 309 99q196 0 297 -128.5t101 -412.5q0 -280 -98.5 -400t-299.5 -120q-44 0 -81.5 4t-75 15.5t-53.5 17t-55.5 22.5t-43.5 19v-480h-328zM434 252q100 -39 170 -39q207 0 207 299q0 88 -18 149t-51.5 93t-73 45.5t-90.5 13.5 q-59 0 -144 -41v-520z" />
<glyph unicode="q" horiz-adv-x="1214" d="M74 512q0 276 109.5 404t367.5 128q283 0 557 -45v-1409h-328v480q-50 -28 -79 -42.5t-89 -32.5t-116 -18q-220 0 -321 131t-101 404zM403 512q0 -74 12.5 -128.5t33.5 -87t52 -52.5t63 -26.5t73 -6.5q64 0 143 41v545q-47 16 -143 16q-51 0 -90.5 -13.5t-73.5 -45.5 t-52 -93t-18 -149z" />
<glyph unicode="r" horiz-adv-x="860" d="M106 0v1024h328v-150q49 68 122 119t159 51h86l30 -268h-135q-100 0 -181 -85t-81 -179v-512h-328z" />
<glyph unicode="s" horiz-adv-x="1091" d="M66 35l26 201q307 -56 438 -56q46 0 78.5 4.5t50 11t27 17.5t12 20t2.5 23q0 34 -20.5 50t-77.5 32q-36 10 -96.5 25t-97.5 24t-89 26.5t-83.5 34.5t-67.5 45.5t-55.5 62t-33 81.5t-13.5 106q0 159 130 230t371 71q203 0 422 -59l-35 -199q-205 56 -389 56 q-98 0 -135 -18.5t-37 -59.5q0 -74 82 -94q30 -7 84 -18t87.5 -18.5t82.5 -20t80.5 -26t69.5 -33t62 -44t45.5 -56.5t31.5 -73.5t10 -91.5q0 -76 -21 -130.5t-57.5 -89t-96.5 -54.5t-127.5 -27.5t-160.5 -7.5q-241 0 -499 55z" />
<glyph unicode="t" horiz-adv-x="827" d="M29 803v221h143v254l328 33v-287h286v-221h-286v-451q0 -149 116 -149q88 0 172 20l39 -203q-146 -40 -292 -40q-192 0 -277.5 71t-85.5 242v510h-143z" />
<glyph unicode="u" horiz-adv-x="1253" d="M106 287v737h328v-631q0 -97 42 -138.5t120 -41.5q64 0 124.5 22t98.5 52v737h328v-1024h-328v80q-214 -100 -422 -100q-146 0 -218.5 83.5t-72.5 223.5z" />
<glyph unicode="v" horiz-adv-x="1165" d="M20 1024h359l201 -791h32l199 791h334l-334 -1024h-455z" />
<glyph unicode="w" horiz-adv-x="1761" d="M25 1024h307l184 -813h8l189 813h340l188 -815h8l187 815h301l-285 -1024h-397l-174 791l-176 -791h-398z" />
<glyph unicode="x" horiz-adv-x="1150" d="M20 0l302 524l-302 500h357l198 -403l205 403h350l-319 -500l319 -524h-356l-199 442l-202 -442h-353z" />
<glyph unicode="y" horiz-adv-x="1204" d="M16 1024h371l223 -842h23l215 842h336l-326 -1010q-23 -72 -74.5 -174t-89.5 -153q-118 -158 -327 -158q-145 0 -330 61l49 222q165 -50 238 -50q61 0 94.5 20.5t64.5 84.5l58 135q-68 0 -128.5 47t-90.5 129z" />
<glyph unicode="z" horiz-adv-x="1032" d="M61 0v160l486 643h-465v221h860v-160l-473 -641h498v-223h-906z" />
<glyph unicode="{" horiz-adv-x="987" d="M135 438v293h94q25 0 44.5 21t19.5 57v375q0 174 104.5 253t302.5 79h152v-293h-129q-36 0 -58 -20.5t-22 -57.5v-416q0 -41 -17.5 -70.5t-36.5 -41.5t-50 -25q106 -65 106 -217v-412q0 -36 21 -57t57 -21h129v-295h-152q-407 0 -407 334v436q0 36 -19 57t-43 21h-96z " />
<glyph unicode="|" horiz-adv-x="622" d="M135 -514v2050h352v-2050h-352z" />
<glyph unicode="}" horiz-adv-x="987" d="M135 -115h129q36 0 57 21t21 57v412q0 151 107 217q-23 9 -38 18t-33 24.5t-27 39.5t-9 55v416q0 38 -21 58t-57 20h-129v293h152q198 0 302.5 -79t104.5 -253v-375q0 -38 17 -58t47 -20h94v-293h-96q-24 0 -43 -21t-19 -57v-436q0 -334 -407 -334h-152v295z" />
<glyph unicode="~" horiz-adv-x="1497" d="M160 895q4 3 38 31.5t58 45t63 40t80 35.5t82 12q70 0 139.5 -18.5t117.5 -40t114.5 -40t132.5 -18.5q49 0 109.5 26.5t94.5 49.5t62 47l135 -277q-3 -3 -32 -34t-53.5 -52t-63.5 -48.5t-86.5 -42.5t-97.5 -15q-78 0 -151.5 18.5t-121 40t-110 40t-121.5 18.5 q-69 0 -150.5 -33.5t-132.5 -67.5z" />
<glyph unicode="&#xa3;" horiz-adv-x="1773" d="M160 219q92 49 184 80v354h-117v211h117v123q0 94 29.5 171t82 131.5t126.5 92t161 55t187 17.5q97 0 218.5 -21.5t175 -36.5t85.5 -26l-66 -240q-2 2 -68 16.5t-169 30t-176 15.5q-101 0 -167 -58.5t-67 -177.5v-92h521v-213h-521v-317q20 2 64 2q68 0 189 -44t196 -44 q38 0 82.5 10t86 26.5t73 30.5t59.5 29t31 16l112 -219q-210 -161 -444 -161q-73 0 -143 16t-118 35t-119.5 35t-146.5 16q-80 0 -189.5 -24.5t-190.5 -63.5z" />
<glyph unicode="&#xa8;" horiz-adv-x="952" d="M115 1169v301h297v-301h-297zM539 1169v301h299v-301h-299z" />
<glyph unicode="&#xa9;" horiz-adv-x="2134" d="M135 522q0 168 34 309.5t106.5 257.5t181 196.5t263 124.5t347.5 44t347.5 -44t263 -124.5t181 -196.5t106.5 -257.5t34 -309.5t-34 -309.5t-106.5 -257.5t-181 -196.5t-263 -124.5t-347.5 -44t-347.5 44t-263 124.5t-181 196.5t-106.5 257.5t-34 309.5zM410 524 q0 -706 657 -706q168 0 287.5 37t204 119.5t125 218.5t40.5 331q0 368 -157 538.5t-500 170.5q-657 0 -657 -709zM657 438v162q0 227 121.5 333.5t341.5 106.5q72 0 153 -15t130 -32l-43 -207q-45 14 -117 27.5t-123 13.5q-114 0 -164.5 -55t-50.5 -174v-158 q0 -111 48.5 -166t166.5 -55q53 0 130 13.5t118 27.5l35 -207q-156 -47 -283 -47q-223 0 -343 102.5t-120 329.5z" />
<glyph unicode="&#xab;" horiz-adv-x="1226" d="M135 530l277 431h278l-241 -431l237 -424h-287zM561 530l277 431h278l-242 -431l238 -424h-287z" />
<glyph unicode="&#xad;" horiz-adv-x="884" d="M135 524v267h615v-267h-615z" />
<glyph unicode="&#xae;" horiz-adv-x="1286" d="M133 1001q0 217 114 335t341 118t340.5 -118t113.5 -335t-113.5 -334.5t-340.5 -117.5t-341 117.5t-114 334.5zM283 999q0 -177 79.5 -253t225.5 -76q160 0 233.5 74t73.5 255q0 177 -73 256.5t-234 79.5q-151 0 -228 -81.5t-77 -254.5zM422 772v467h172q98 0 142 -34 t44 -115q0 -60 -27 -93.5t-69 -35.5l121 -189h-123l-102 184h-54v-184h-104zM526 1022h70q38 0 57 13.5t19 54.5q0 40 -19 54.5t-57 14.5h-70v-137z" />
<glyph unicode="&#xb4;" horiz-adv-x="604" d="M115 1155l32 381h334l-166 -412z" />
<glyph unicode="&#xbb;" horiz-adv-x="1226" d="M135 961h279l276 -431l-264 -424h-289l240 424zM561 961h279l276 -431l-264 -424h-289l240 424z" />
<glyph unicode="&#x2c6;" horiz-adv-x="980" d="M160 1194l186 311h289l199 -311h-256l-82 197l-80 -197h-256z" />
<glyph unicode="&#x2dc;" horiz-adv-x="1077" d="M139 1407q142 113 269 113q44 0 84.5 -15.5t67 -34t62 -34t70.5 -15.5q29 0 58 9.5t45.5 19t45 29.5t38.5 26l79 -149q-45 -51 -116 -95t-150 -44q-47 0 -89.5 15.5t-69 33.5t-60 33.5t-65.5 15.5q-33 0 -67 -8t-51 -15.5t-51 -24.5l-40 -20z" />
<glyph unicode="&#x401;" horiz-adv-x="1191" d="M135 0v1434h955v-269h-603v-297h496v-266h-496v-334h603v-268h-955zM258 1579v301h297v-301h-297zM684 1579v301h297v-301h-297z" />
<glyph unicode="&#x410;" horiz-adv-x="1523" d="M84 0l461 1434h444l449 -1434h-369l-88 309h-438l-88 -309h-371zM594 543h340l-164 565z" />
<glyph unicode="&#x411;" horiz-adv-x="1308" d="M135 0v1434h971v-271h-619v-280h308q227 0 325.5 -108t98.5 -333q0 -106 -20.5 -184t-68.5 -137.5t-132.5 -90t-206.5 -30.5h-656zM487 244h205q185 0 185 198q0 199 -185 199h-205v-397z" />
<glyph unicode="&#x412;" horiz-adv-x="1271" d="M135 0v1434h621q86 0 152 -17.5t119 -57t81.5 -110t28.5 -170.5q0 -118 -46 -190.5t-124 -102.5q49 -16 86.5 -40t71 -64.5t51.5 -106t18 -153.5q0 -217 -97 -319.5t-331 -102.5h-631zM475 233h205q88 0 136 51.5t48 149.5q0 94 -54.5 145.5t-129.5 51.5h-205v-398z M475 864h195q56 0 96.5 45t40.5 133q0 72 -35 115t-102 43h-195v-336z" />
<glyph unicode="&#x413;" horiz-adv-x="1097" d="M135 0v1434h922v-310h-570v-1124h-352z" />
<glyph unicode="&#x414;" horiz-adv-x="1609" d="M41 270h135q48 74 82 197t50 235.5t25 273.5t10 244t1 214h1024v-1164h164l-31 -680h-321v410h-787l-20 -410h-332v680zM514 270h502v869h-346q-3 -99 -5 -142.5t-8 -145t-16 -165t-26 -147.5t-42 -150t-59 -119z" />
<glyph unicode="&#x415;" horiz-adv-x="1167" d="M135 0v1434h955v-269h-603v-297h496v-266h-496v-334h603v-268h-955z" />
<glyph unicode="&#x416;" horiz-adv-x="1888" d="M33 1434h377l325 -615h33v615h352v-615h33l326 615h376l-376 -662l372 -772h-362l-338 719h-31v-719h-352v719h-33l-338 -719h-362l375 772z" />
<glyph unicode="&#x417;" horiz-adv-x="1232" d="M78 53l43 279q199 -70 379 -70q60 0 100.5 3t78.5 13t59.5 27.5t34.5 47.5t13 73q0 38 -10 67.5t-24.5 49.5t-42 33.5t-52 21t-65.5 11t-71.5 4.5t-80.5 1h-153v242h217q215 0 215 170q0 82 -48.5 113.5t-166.5 31.5q-187 0 -357 -61l-49 274q69 27 181.5 48.5 t240.5 21.5q143 0 240 -16.5t167.5 -56t103 -109.5t32.5 -174q0 -131 -53.5 -203.5t-155.5 -103.5q72 -21 121 -47.5t89 -70.5t59.5 -111.5t19.5 -160.5q0 -87 -19.5 -154t-59.5 -113t-93 -76.5t-128.5 -47.5t-156 -23.5t-186.5 -6.5q-125 0 -249 25.5t-173 47.5z" />
<glyph unicode="&#x418;" horiz-adv-x="1536" d="M135 0v1434h352v-893l627 893h287v-1434h-352v893l-627 -893h-287z" />
<glyph unicode="&#x419;" horiz-adv-x="1536" d="M135 0v1434h352v-893l627 893h287v-1434h-352v893l-627 -893h-287zM313 1780v47h254q0 -25 7 -44.5t27 -41t64.5 -33.5t110.5 -12q213 0 213 131h252v-47q0 -53 -19 -94.5t-55.5 -68t-79 -44t-99 -26.5t-105 -12t-107.5 -3q-49 0 -90.5 2t-90.5 8.5t-87.5 17.5t-76 30 t-62.5 44.5t-40.5 62.5t-15.5 83z" />
<glyph unicode="&#x41a;" horiz-adv-x="1374" d="M135 0v1434h352v-617h29l418 617h407l-510 -660l523 -774h-396l-438 696h-33v-696h-352z" />
<glyph unicode="&#x41b;" horiz-adv-x="1521" d="M29 276q8 -2 82 -2q50 0 87.5 35.5t63 110t42 168t25.5 233t12 280.5t3 333h1042v-1434h-352v1147h-352q-4 -152 -11.5 -274.5t-22.5 -246.5t-37.5 -218t-57.5 -177t-81 -136.5t-109 -84t-140 -30.5q-61 0 -153 20z" />
<glyph unicode="&#x41c;" horiz-adv-x="1953" d="M94 0l119 1434h424l336 -1078h6l338 1078h424l119 -1434h-361l-26 1024h-7l-327 -1024h-324l-328 1024h-8l-24 -1024h-361z" />
<glyph unicode="&#x41d;" horiz-adv-x="1527" d="M135 0v1434h352v-541h553v541h353v-1434h-353v623h-553v-623h-352z" />
<glyph unicode="&#x41e;" horiz-adv-x="1495" d="M78 545v332q0 284 178 430.5t492 146.5q315 0 492 -146.5t177 -430.5v-332q0 -283 -176 -424t-493 -141t-493.5 141t-176.5 424zM444 586q0 -157 75 -246.5t229 -89.5q303 0 303 336v262q0 73 -16.5 132t-51 106t-94.5 72.5t-141 25.5q-151 0 -227.5 -91.5t-76.5 -244.5 v-262z" />
<glyph unicode="&#x41f;" horiz-adv-x="1544" d="M135 0v1434h1274v-1434h-352v1139h-570v-1139h-352z" />
<glyph unicode="&#x420;" horiz-adv-x="1320" d="M135 0v1434h520q317 0 452.5 -112.5t135.5 -391.5q0 -282 -136.5 -400t-451.5 -118h-168v-412h-352zM487 682h168q53 0 91.5 10t72 35.5t51 77t17.5 127.5q0 131 -56 180t-176 49h-168v-479z" />
<glyph unicode="&#x421;" horiz-adv-x="1165" d="M78 569v295q0 151 46.5 265.5t131.5 184.5t198 105t253 35q151 0 380 -70l-61 -266q-55 18 -156 39t-163 21q-134 0 -204.5 -88t-70.5 -230v-287q0 -66 15 -121t46.5 -100t86 -70.5t127.5 -25.5q63 0 171 20.5t160 38.5l49 -266q-226 -69 -380 -69q-141 0 -254 34.5 t-198 104.5t-131 184t-46 266z" />
<glyph unicode="&#x422;" horiz-adv-x="1179" d="M37 1143v291h1106v-291h-377v-1143h-352v1143h-377z" />
<glyph unicode="&#x423;" horiz-adv-x="1353" d="M20 1434h410l285 -859h8l248 859h362l-377 -1110q-139 -344 -489 -344q-214 0 -393 53l61 254q130 -47 252 -47q171 0 221 127q-23 1 -53 10t-66 28t-71 55t-56 83z" />
<glyph unicode="&#x424;" horiz-adv-x="1871" d="M78 702v111q0 284 147 415.5t457 131.5h78v147h352v-147h78q310 0 457 -131.5t147 -415.5v-111q0 -282 -147.5 -414t-456.5 -132h-78v-156h-352v156h-78q-309 0 -456.5 132t-147.5 414zM432 694q0 -155 58.5 -223t191.5 -68h78v709h-78q-134 0 -192 -70t-58 -221v-127z M1112 403h78q133 0 191.5 68t58.5 223v127q0 151 -57.5 221t-192.5 70h-78v-709z" />
<glyph unicode="&#x425;" horiz-adv-x="1425" d="M20 0l433 737l-433 697h447l266 -533l268 533h404l-412 -697l412 -737h-449l-223 612l-311 -612h-402z" />
<glyph unicode="&#x426;" horiz-adv-x="1597" d="M135 0v1434h352v-1164h517v1164h352v-1164h166l-21 -592h-334v322h-1032z" />
<glyph unicode="&#x427;" horiz-adv-x="1359" d="M94 877v557h352v-553q0 -98 46 -139.5t139 -41.5q41 0 241 15v719h353v-1434h-353v453q-23 -2 -66 -6t-69 -6.5t-61.5 -4.5t-65.5 -2q-43 0 -83.5 3.5t-94 15t-98.5 30t-90.5 52.5t-77.5 79.5t-52 113t-20 149.5z" />
<glyph unicode="&#x428;" horiz-adv-x="1974" d="M135 0v1434h352v-1164h324v1164h352v-1164h324v1164h352v-1434h-1704z" />
<glyph unicode="&#x429;" horiz-adv-x="2080" d="M135 0v1434h352v-1164h324v1164h352v-1164h324v1164h352v-1164h164l-21 -592h-331v322h-1516z" />
<glyph unicode="&#x42a;" horiz-adv-x="1478" d="M29 1180l28 254h588v-529q120 21 211 21q287 0 416 -110t129 -355q0 -246 -136 -353.5t-452 -107.5h-520v1180h-264zM645 233h168q120 0 177 48.5t57 177.5q0 128 -57.5 176.5t-176.5 48.5q-94 0 -168 -10v-441z" />
<glyph unicode="&#x42b;" horiz-adv-x="1894" d="M135 0h520q316 0 452 107.5t136 353.5q0 231 -116 347t-375 116q-94 0 -265 -19v529h-352v-1434zM487 233v441q71 10 168 10q117 0 174.5 -48.5t57.5 -176.5q0 -129 -56 -177.5t-176 -48.5h-168zM1407 0v1434h352v-1434h-352z" />
<glyph unicode="&#x42c;" horiz-adv-x="1320" d="M135 0v1434h352v-529q167 19 265 19q258 0 374.5 -116t116.5 -347q0 -246 -136 -353.5t-452 -107.5h-520zM487 233h168q120 0 176 48.5t56 177.5q0 128 -57.5 176.5t-174.5 48.5q-97 0 -168 -10v-441z" />
<glyph unicode="&#x42d;" horiz-adv-x="1208" d="M49 49l60 273q77 -24 192.5 -42t200.5 -18q147 0 209.5 79.5t62.5 225.5v43h-524v262h524v31q0 149 -66.5 212t-197.5 63q-78 0 -206 -20t-195 -46l-60 272q43 18 191.5 44t281.5 26q142 0 251 -32t190.5 -100.5t124 -183.5t42.5 -274v-295q0 -151 -48.5 -266 t-135 -184.5t-198 -104t-246.5 -34.5q-126 0 -265 24.5t-188 44.5z" />
<glyph unicode="&#x42e;" horiz-adv-x="1943" d="M135 0v1434h352v-586h199v45q0 144 42 252t120 175.5t185 100.5t243 33q277 0 433.5 -139t156.5 -420v-385q0 -530 -590 -530t-590 528v65h-199v-573h-352zM1028 532q0 -118 65.5 -187t182.5 -69t182.5 69t65.5 187v373q0 116 -66.5 184t-181.5 68q-113 0 -180.5 -68.5 t-67.5 -183.5v-373z" />
<glyph unicode="&#x42f;" horiz-adv-x="1447" d="M104 952q0 104 33.5 189t102.5 152t185.5 104t272.5 37h615v-1434h-352v465h-170l-271 -465h-389l324 502q-172 29 -261.5 146.5t-89.5 303.5zM467 952q0 -114 57 -157t174 -43h263v397h-263q-120 0 -175.5 -42t-55.5 -155z" />
<glyph unicode="&#x430;" horiz-adv-x="1144" d="M74 295q0 152 96 219.5t287 67.5h256v90q0 81 -38.5 115t-139.5 34q-131 0 -375 -51l-37 211q259 63 428 63q250 0 368.5 -91.5t118.5 -290.5v-662h-327v70q-51 -38 -133.5 -64t-176.5 -26q-164 0 -245.5 76.5t-81.5 238.5zM403 301q0 -67 37 -96t121 -29q53 0 150 41 v195h-162q-70 0 -108 -32t-38 -79z" />
<glyph unicode="&#x431;" horiz-adv-x="1243" d="M86 496v409q0 218 135 364t381 187l207 33q92 15 231 76l86 -267q-86 -52 -184 -63l-346 -41q-113 -13 -162 -82.5t-49 -173.5v-158q28 75 115 131t200 56q112 0 193.5 -19.5t144 -65.5t94 -128t31.5 -201v-125q0 -224 -136 -337.5t-402 -113.5q-270 0 -404.5 124 t-134.5 395zM416 449q0 -230 209 -230q100 0 154.5 59t54.5 171v86q0 110 -54.5 168.5t-154.5 58.5q-209 0 -209 -252v-61z" />
<glyph unicode="&#x432;" horiz-adv-x="1144" d="M106 0v1024h594q168 0 240 -57t72 -195q0 -148 -164 -199q41 -7 68.5 -14t62 -24.5t55 -43t35 -70t14.5 -104.5q0 -181 -99 -249t-341 -68h-537zM410 201h196q90 0 131 27.5t41 101.5q0 63 -42.5 89.5t-135.5 26.5h-190v-245zM410 616h180q59 0 88 26.5t29 84.5 q0 48 -29.5 74t-87.5 26h-180v-211z" />
<glyph unicode="&#x433;" horiz-adv-x="901" d="M106 0v1024h766v-250h-438v-774h-328z" />
<glyph unicode="&#x434;" horiz-adv-x="1376" d="M41 221h100q42 45 72 124.5t45 158.5t23.5 187t10 175t1.5 158h885v-803h120l-18 -549h-285v328h-651l-18 -328h-285v549zM473 221h377v606h-260q0 -185 -23 -331.5t-94 -274.5z" />
<glyph unicode="&#x435;" horiz-adv-x="1146" d="M74 395v168q0 243 125 362t385 119q82 0 152.5 -11.5t136 -40.5t111.5 -74.5t73.5 -117t27.5 -163.5v-201h-682v-63q0 -47 12.5 -79.5t31.5 -51t52 -28.5t63 -12.5t75 -2.5q81 0 198 16t191 37l33 -217q-229 -55 -459 -55q-526 0 -526 415zM403 604h377v49q0 107 -48 148 t-148 41q-97 0 -139 -44t-42 -159v-35z" />
<glyph unicode="&#x436;" horiz-adv-x="1632" d="M20 1024h342l273 -457h24v457h316v-457h26l263 457h348l-320 -494l318 -530h-346l-265 500h-24v-500h-316v496h-22l-279 -496h-335l333 530z" />
<glyph unicode="&#x437;" horiz-adv-x="1087" d="M74 45l41 201q150 -45 272 -45q157 0 226 26.5t69 100.5q0 34 -13 56t-40.5 33.5t-60.5 16t-81 4.5h-264v183h232q161 0 161 116q0 53 -55 71.5t-174 18.5q-117 0 -266 -45l-41 203q63 21 167.5 39t192.5 18q102 0 177.5 -6.5t140.5 -22.5t105 -43.5t62.5 -70 t22.5 -100.5q0 -81 -49 -130.5t-127 -70.5q44 -11 74 -20.5t67 -30.5t59.5 -48.5t38 -72.5t15.5 -104q0 -97 -41.5 -164.5t-121.5 -105t-182.5 -54t-240.5 -16.5q-182 0 -366 63z" />
<glyph unicode="&#x438;" horiz-adv-x="1286" d="M106 0v1024h328v-598l459 598h287v-1024h-328v596l-457 -596h-289z" />
<glyph unicode="&#x439;" horiz-adv-x="1286" d="M106 0v1024h328v-598l459 598h287v-1024h-328v596l-457 -596h-289zM176 1454v41h254q0 -19 2 -31.5t8 -30t20.5 -29t37 -22.5t59.5 -16.5t86 -5.5q213 0 213 135h254v-41q0 -66 -28.5 -116t-73 -80t-108 -49t-125 -26t-132.5 -7q-70 0 -131.5 7t-125 26t-108.5 49 t-73.5 80t-28.5 116z" />
<glyph unicode="&#x43a;" horiz-adv-x="1157" d="M106 0v1024h328v-444h15l315 444h381l-393 -492l397 -532h-371l-332 502h-12v-502h-328z" />
<glyph unicode="&#x43b;" horiz-adv-x="1292" d="M29 229q49 -6 82 -6q190 0 190 801h885v-1024h-328v805h-274q0 -77 -1 -132t-5.5 -128.5t-12 -127t-21.5 -115.5t-33.5 -105t-48.5 -86t-66 -69t-87 -42t-110 -16q-81 0 -140 16z" />
<glyph unicode="&#x43c;" horiz-adv-x="1667" d="M94 0l86 1024h359l295 -737l294 737h359l86 -1024h-273l-45 719l-301 -719h-264l-278 719l-45 -719h-273z" />
<glyph unicode="&#x43d;" horiz-adv-x="1277" d="M106 0v1024h328v-389h410v389h327v-1024h-327v418h-410v-418h-328z" />
<glyph unicode="&#x43e;" horiz-adv-x="1187" d="M61 416v190q0 212 135 324t392 112q258 0 398 -112.5t140 -323.5v-190q0 -212 -140.5 -325.5t-397.5 -113.5q-256 0 -391.5 113t-135.5 326zM379 420q0 -225 209 -225t209 225v182q0 225 -209 225q-103 0 -156 -50.5t-53 -145.5v-211z" />
<glyph unicode="&#x43f;" horiz-adv-x="1269" d="M106 0v1024h1057v-1024h-327v803h-402v-803h-328z" />
<glyph unicode="&#x440;" horiz-adv-x="1214" d="M106 -410v1434h328v-70q153 99 309 99q196 0 297 -128.5t101 -412.5q0 -280 -98.5 -400t-299.5 -120q-54 0 -106 9.5t-75.5 17t-73 28.5t-54.5 23v-480h-328zM434 252q100 -39 170 -39q207 0 207 299q0 88 -18 149t-51.5 93t-73 45.5t-90.5 13.5q-59 0 -144 -41v-520z " />
<glyph unicode="&#x441;" horiz-adv-x="968" d="M74 434v154q0 139 68.5 244.5t186.5 160t267 54.5q68 0 169 -18t175 -48l-45 -233q-37 17 -111 37t-122 20q-126 0 -186 -55.5t-60 -186.5v-104q0 -132 60 -186t186 -54q21 0 42 2t35.5 4.5t38 9t33.5 9.5t41 13.5t43 14.5l45 -231q-77 -28 -176 -43.5t-168 -15.5 q-114 0 -207.5 27t-164.5 81t-110.5 142t-39.5 202z" />
<glyph unicode="&#x442;" horiz-adv-x="1073" d="M41 774v250h991v-250h-330v-774h-327v774h-334z" />
<glyph unicode="&#x443;" horiz-adv-x="1204" d="M16 1024h371l223 -842h23l215 842h336l-326 -1010q-23 -72 -74.5 -174t-89.5 -153q-118 -158 -327 -158q-145 0 -330 61l49 222q165 -50 238 -50q61 0 94.5 20.5t64.5 84.5l58 135q-68 0 -128.5 47t-90.5 129z" />
<glyph unicode="&#x444;" horiz-adv-x="1757" d="M61 520q0 248 109 386t336 138q47 0 112 -14.5t97 -28.5v433h327v-433q31 14 97.5 28.5t111.5 14.5q228 0 336.5 -137.5t108.5 -386.5q0 -259 -108 -399.5t-337 -140.5q-45 0 -111.5 14.5t-97.5 28.5v-433h-327v433q-32 -15 -97 -29t-112 -14q-445 0 -445 540zM391 520 q0 -117 27 -187t73.5 -97.5t118.5 -28.5q55 0 105 20v568q-67 20 -105 20q-118 0 -168.5 -72.5t-50.5 -222.5zM1042 227q45 -20 103 -20q117 0 169 73t52 240q0 157 -53.5 226t-167.5 69q-63 0 -103 -20v-568z" />
<glyph unicode="&#x445;" horiz-adv-x="1150" d="M20 0l302 524l-302 500h357l198 -403l205 403h350l-319 -500l319 -524h-356l-199 442l-202 -442h-353z" />
<glyph unicode="&#x446;" horiz-adv-x="1323" d="M106 0v1024h328v-803h369v803h327v-803h123l-22 -549h-305v328h-820z" />
<glyph unicode="&#x447;" horiz-adv-x="1196" d="M86 678v346h328v-344q0 -97 36 -136.5t128 -39.5q113 0 184 18v502h328v-1024h-328v307q-160 -24 -285 -24q-201 0 -296 95.5t-95 299.5z" />
<glyph unicode="&#x448;" horiz-adv-x="1736" d="M106 0v1024h316v-803h295v803h303v-803h295v803h315v-1024h-1524z" />
<glyph unicode="&#x449;" horiz-adv-x="1822" d="M106 0v1024h316v-803h295v803h303v-803h295v803h315v-803h123l-20 -549h-308v328h-1319z" />
<glyph unicode="&#x44a;" horiz-adv-x="1335" d="M29 801l24 223h565v-328h168q100 0 169 -7t131 -28t98 -58.5t57 -98.5t21 -148q0 -108 -35.5 -179.5t-107 -109.5t-158.5 -52.5t-211 -14.5h-459v801h-262zM618 211h158q85 0 119.5 31.5t34.5 113.5q0 69 -36.5 102.5t-125.5 33.5h-150v-281z" />
<glyph unicode="&#x44b;" horiz-adv-x="1650" d="M106 0v1024h328v-328h168q99 0 167 -7t130 -28t98 -58.5t57 -98.5t21 -148t-24.5 -150.5t-66 -102.5t-108 -62.5t-140 -32t-171.5 -8.5h-459zM434 211h156q86 0 120.5 31.5t34.5 113.5q0 69 -37 102.5t-126 33.5h-148v-281zM1214 0v1024h330v-1024h-330z" />
<glyph unicode="&#x44c;" horiz-adv-x="1148" d="M106 0v1024h328v-328h170q100 0 168 -7t129.5 -28t97 -58.5t56 -98.5t20.5 -148t-24.5 -150.5t-66 -102.5t-108 -62.5t-140 -32t-171.5 -8.5h-459zM434 211h156q86 0 120.5 31.5t34.5 113.5q0 69 -37 102.5t-126 33.5h-148v-281z" />
<glyph unicode="&#x44d;" horiz-adv-x="1032" d="M61 49l45 211q153 -55 261 -55q132 0 195 38.5t63 145.5v25h-412v200h412v31q0 55 -16.5 90t-53 52.5t-79 23.5t-109.5 6q-62 0 -116 -13t-130 -42l-47 209q177 73 368 73q237 0 376.5 -114t139.5 -342v-156q0 -227 -139.5 -339.5t-376.5 -112.5q-94 0 -197 19t-184 50z " />
<glyph unicode="&#x44e;" horiz-adv-x="1738" d="M106 0v1024h304v-418h194v53q0 93 43.5 167.5t118 120.5t168.5 70.5t199 24.5q118 0 213.5 -26t167.5 -79.5t111.5 -140.5t39.5 -202v-166q0 -115 -39.5 -202.5t-111 -141.5t-167.5 -80.5t-214 -26.5q-105 0 -199 25.5t-167.5 74t-117 125.5t-43.5 173v35h-196v-410h-304 zM928 403q0 -95 51 -145.5t154 -50.5q100 0 152 50.5t52 145.5v197q0 108 -48.5 161.5t-155.5 53.5q-100 0 -152.5 -54t-52.5 -161v-197z" />
<glyph unicode="&#x44f;" horiz-adv-x="1230" d="M70 668q0 184 109 270t339 86h606v-1024h-327v315h-138l-231 -315h-356l274 340q-56 3 -102.5 20.5t-87 53.5t-63.5 101t-23 153zM412 670q2 -83 42 -119.5t134 -36.5h209v297h-209q-96 0 -136 -31t-40 -110z" />
<glyph unicode="&#x451;" horiz-adv-x="1146" d="M74 395v168q0 243 125 362t385 119q82 0 152.5 -11.5t136 -40.5t111.5 -74.5t73.5 -117t27.5 -163.5v-201h-682v-63q0 -47 12.5 -79.5t31.5 -51t52 -28.5t63 -12.5t75 -2.5q81 0 198 16t191 37l33 -217q-229 -55 -459 -55q-526 0 -526 415zM211 1169v301h297v-301h-297z M403 604h377v49q0 107 -48 148t-148 41q-97 0 -139 -44t-42 -159v-35zM635 1169v301h299v-301h-299z" />
<glyph unicode="&#x2000;" horiz-adv-x="940" />
<glyph unicode="&#x2001;" horiz-adv-x="1880" />
<glyph unicode="&#x2002;" horiz-adv-x="940" />
<glyph unicode="&#x2003;" horiz-adv-x="1880" />
<glyph unicode="&#x2004;" horiz-adv-x="626" />
<glyph unicode="&#x2005;" horiz-adv-x="470" />
<glyph unicode="&#x2006;" horiz-adv-x="313" />
<glyph unicode="&#x2007;" horiz-adv-x="313" />
<glyph unicode="&#x2008;" horiz-adv-x="235" />
<glyph unicode="&#x2009;" horiz-adv-x="376" />
<glyph unicode="&#x200a;" horiz-adv-x="104" />
<glyph unicode="&#x2010;" horiz-adv-x="884" d="M135 524v267h615v-267h-615z" />
<glyph unicode="&#x2011;" horiz-adv-x="884" d="M135 524v267h615v-267h-615z" />
<glyph unicode="&#x2012;" horiz-adv-x="884" d="M135 524v267h615v-267h-615z" />
<glyph unicode="&#x2013;" horiz-adv-x="1294" d="M135 565v279h1024v-279h-1024z" />
<glyph unicode="&#x2014;" horiz-adv-x="1847" d="M135 565v279h1577v-279h-1577z" />
<glyph unicode="&#x2018;" horiz-adv-x="614" d="M119 885v205q0 126 66.5 249.5t154.5 196.5l117 -63q-92 -118 -92 -252h122v-336h-368z" />
<glyph unicode="&#x2019;" horiz-adv-x="614" d="M123 1098v336h369v-205q0 -126 -67 -250t-155 -197l-116 64q92 118 92 252h-123z" />
<glyph unicode="&#x201a;" horiz-adv-x="614" d="M123 0v336h369v-205q0 -126 -67 -249.5t-155 -196.5l-116 63q92 118 92 252h-123z" />
<glyph unicode="&#x201c;" horiz-adv-x="1081" d="M119 885v205q0 126 66.5 249.5t154.5 196.5l117 -63q-92 -118 -92 -252h122v-336h-368zM602 885v205q0 126 66.5 249.5t154.5 196.5l117 -63q-92 -118 -92 -252h123v-336h-369z" />
<glyph unicode="&#x201d;" horiz-adv-x="1081" d="M123 1098v336h369v-205q0 -126 -67 -250t-155 -197l-116 64q92 118 92 252h-123zM606 1098v336h369v-205q0 -126 -66.5 -250t-154.5 -197l-117 64q92 118 92 252h-123z" />
<glyph unicode="&#x201e;" horiz-adv-x="1081" d="M123 0v336h369v-205q0 -126 -67 -249.5t-155 -196.5l-116 63q92 118 92 252h-123zM606 0v336h369v-205q0 -126 -66.5 -249.5t-154.5 -196.5l-117 63q92 118 92 252h-123z" />
<glyph unicode="&#x2022;" horiz-adv-x="790" d="M135 567q0 117 62.5 189.5t195.5 72.5q132 0 197 -73t65 -189q0 -115 -65 -186.5t-197 -71.5q-133 0 -195.5 71t-62.5 187z" />
<glyph unicode="&#x2026;" horiz-adv-x="1599" d="M123 0v336h369v-336h-369zM614 0v336h369v-336h-369zM1106 0v336h371v-336h-371z" />
<glyph unicode="&#x202f;" horiz-adv-x="376" />
<glyph unicode="&#x205f;" horiz-adv-x="470" />
<glyph unicode="&#x20ac;" horiz-adv-x="1429" d="M135 690h115v64h-82l-33 188h121v21q0 107 29.5 191.5t81 140t125.5 92t159 52t185 15.5q132 0 268.5 -25t187.5 -47l-61 -247q-34 15 -161.5 31t-217.5 16q-116 0 -183 -52t-67 -167v-21h594l-29 -188h-565v-64h549l-29 -188h-520v-31q0 -110 66 -164.5t186 -54.5 q89 0 214 15.5t177 31.5l49 -250q-65 -22 -196 -45.5t-262 -23.5q-100 0 -185.5 17t-159 54.5t-125.5 93.5t-81 139t-29 187v31h-88z" />
<glyph unicode="&#x2122;" horiz-adv-x="1773" d="M82 1249v185h594v-185h-184v-530h-226v530h-184zM735 719l62 715h258l139 -512l160 512h237l60 -715h-199l-33 448l-127 -448h-196l-127 446l-33 -446h-201z" />
<glyph unicode="&#x25fc;" horiz-adv-x="1024" d="M0 0v1024h1024v-1024h-1024z" />
</font>
</defs>
</svg>
