<?xml version="1.0" standalone="no"?>
<!DOCTYPE svg PUBLIC "-//W3C//DTD SVG 1.1//EN" "http://www.w3.org/Graphics/SVG/1.1/DTD/svg11.dtd" >
<svg xmlns="http://www.w3.org/2000/svg">
<metadata></metadata>
<defs>
<font id="ekibastuzlight" horiz-adv-x="1310" >
<font-face units-per-em="2048" ascent="1638" descent="-410" />
<missing-glyph horiz-adv-x="532" />
<glyph horiz-adv-x="0" />
<glyph horiz-adv-x="682" />
<glyph unicode=" "  horiz-adv-x="532" />
<glyph unicode="&#x09;" horiz-adv-x="532" />
<glyph unicode="&#xa0;" horiz-adv-x="532" />
<glyph unicode="!" horiz-adv-x="450" d="M162 0v213h125v-213h-125zM164 1434h123l-21 -1086h-82z" />
<glyph unicode="&#x22;" horiz-adv-x="743" d="M184 1434h123l-20 -471h-82zM436 1434h123l-20 -471h-82z" />
<glyph unicode="#" horiz-adv-x="1187" d="M184 369v82h115l102 532h-217v82h234l71 369h84l-71 -369h325l72 369h84l-72 -369h93v-82h-109l-104 -532h213v-82h-230l-72 -369h-81l71 369h-327l-72 -369h-82l72 369h-99zM381 451h328l102 532h-326z" />
<glyph unicode="$" horiz-adv-x="1198" d="M102 70l21 65q181 -88 440 -98v614q-79 23 -134 43t-119.5 54.5t-104 73t-66 96t-26.5 126.5q0 102 63 176t162.5 110.5t224.5 41.5v123h82v-123q110 -3 207 -25t213 -65l-23 -63q-108 46 -194 70t-203 28v-604q58 -16 84 -23t75.5 -23t74.5 -27.5t61.5 -31t57.5 -39 t42 -47t33 -59.5q23 -61 23 -135q0 -103 -62.5 -181t-163 -118.5t-225.5 -46.5v-146h-82v144q-308 9 -461 90zM201 1044q0 -154 221 -251q94 -40 141 -54v576q-97 -4 -170.5 -30t-113.5 -66t-59 -84t-19 -91zM645 37q73 3 132 19t96 37t64 51t40.5 54.5t21 54.5t8.5 44.5 t1 30.5q0 78 -23.5 125.5t-72.5 77.5t-146 61q-22 7 -65.5 19t-55.5 16v-590z" />
<glyph unicode="%" horiz-adv-x="1695" d="M184 1010v172q0 116 72 194t213 78t213 -78t72 -194v-172q0 -116 -72 -194.5t-213 -78.5t-213 78.5t-72 194.5zM266 1010q0 -90 56.5 -150.5t146.5 -60.5q92 0 147.5 61t55.5 150v172q0 87 -55 149t-148 62q-91 0 -147 -61.5t-56 -149.5v-172zM352 0q170 271 478.5 768 t416.5 670h96q-41 -66 -379 -610t-513 -828h-99zM942 252v172q0 116 72 194t213 78t212.5 -77t71.5 -195v-172q0 -116 -71.5 -194t-212.5 -78q-142 0 -213.5 77.5t-71.5 194.5zM1024 252q0 -90 56.5 -150.5t146.5 -60.5q93 0 148 61t55 150v172q0 89 -55 150t-148 61 q-92 0 -147.5 -64t-55.5 -161v-158z" />
<glyph unicode="&#x26;" horiz-adv-x="1527" d="M184 371q0 91 21 163.5t62 125.5t85 89.5t105 71.5q-150 179 -150 305q0 165 109.5 246.5t300.5 81.5q79 0 178 -26t168 -60l-25 -74q-193 99 -321 99q-50 0 -93 -6.5t-87.5 -24.5t-76 -47t-51.5 -77.5t-20 -111.5q0 -51 33.5 -114t73.5 -111q81 -96 170 -205.5t197 -244 t167 -207.5q93 125 141 329l76 -12q-37 -194 -178 -368q17 -24 154 -193h-107l-104 129q-73 -73 -159 -111t-218 -38q-202 0 -326.5 102.5t-124.5 288.5zM266 371q0 -152 106 -241t263 -89q89 0 184 37.5t152 99.5q-55 68 -220 273t-257 317q-19 -7 -44 -24t-58.5 -51 t-60.5 -77t-46 -108t-19 -137z" />
<glyph unicode="'" horiz-adv-x="491" d="M184 1434h123l-20 -471h-82z" />
<glyph unicode="(" horiz-adv-x="770" d="M184 666q0 117 21.5 236t50.5 210.5t76.5 194t82.5 165t85 146.5h73q-25 -36 -55 -86t-77.5 -149t-84 -202t-63.5 -242t-27 -273q0 -149 33 -302t78 -262t95 -202t79 -135t35 -48h-78q-53 83 -88 143t-84 162t-78.5 192.5t-51.5 211t-22 240.5z" />
<glyph unicode=")" horiz-adv-x="770" d="M184 -283q6 6 35 48t79 135t95 202t78 262t33 302q0 134 -27 273t-63.5 242t-84 202t-77.5 149t-55 86h73q50 -84 85 -146.5t82.5 -165t76.5 -194t50.5 -210.5t21.5 -236q0 -120 -22 -240.5t-51.5 -211t-78.5 -192.5t-84 -162t-88 -143h-78z" />
<glyph unicode="*" horiz-adv-x="1368" d="M184 721l449 242l-449 241l41 70l432 -266l-14 508h82l-12 -508l430 266l41 -70l-445 -241l445 -242l-41 -70l-430 267l12 -508h-82l14 505l-432 -264z" />
<glyph unicode="+" horiz-adv-x="1392" d="M184 676v82h471v471h82v-471h471v-82h-471v-471h-82v471h-471z" />
<glyph unicode="," horiz-adv-x="526" d="M205 -303q71 170 71 303h-59v213h125v-131q0 -82 -17 -164t-32.5 -123.5t-44.5 -109.5z" />
<glyph unicode="-" horiz-adv-x="983" d="M184 635v82h615v-82h-615z" />
<glyph unicode="." horiz-adv-x="493" d="M184 0v213h125v-213h-125z" />
<glyph unicode="/" horiz-adv-x="1200" d="M184 -227l742 1706h90l-744 -1706h-88z" />
<glyph unicode="0" d="M102 563v307q0 165 62.5 296t189.5 209.5t301 78.5t301 -78t189.5 -208.5t62.5 -295.5v-309q0 -165 -62.5 -295.5t-189.5 -209t-301 -78.5t-301 78t-189.5 208.5t-62.5 296.5zM184 563q0 -233 126 -377.5t345 -144.5t345 144.5t126 377.5v307q0 149 -55 267t-163 187 t-253 69q-217 0 -344 -147t-127 -374v-309z" />
<glyph unicode="1" d="M360 907l514 527h76v-1434h-82v1335l-462 -481z" />
<glyph unicode="2" d="M158 0v57q0 111 25 199t56.5 144.5t106.5 118.5t126.5 95t164.5 98q8 5 12 7q20 12 68 38.5t79 44.5t76.5 47.5t75 56.5t58.5 61t43 72t14 79q0 121 -111 198t-303 77q-97 0 -236 -36t-200 -75l-25 59q56 34 199 73.5t262 39.5q233 0 364.5 -84.5t131.5 -251.5 q0 -59 -25.5 -114t-63.5 -94.5t-95 -81t-105 -68.5t-111 -62t-96 -57q-22 -14 -61.5 -38.5t-61 -38t-56.5 -38t-55 -42.5t-47.5 -46t-43.5 -54t-34 -62t-27.5 -74t-16 -85.5t-6.5 -101.5h911v-61h-993z" />
<glyph unicode="3" d="M133 43l17 74q59 -21 190 -47.5t254 -26.5q100 0 183.5 16t155.5 52t113 101.5t41 156.5q0 73 -21.5 132.5t-55 98t-81.5 67t-93 44t-98.5 24.5t-88.5 11t-71 2h-146l-14 61h196q65 0 132 21t124.5 59t94 99t36.5 134q0 134 -105.5 202.5t-281.5 68.5q-95 0 -229.5 -18 t-189.5 -46l-25 64q63 24 201 42.5t243 18.5q80 0 145.5 -8t128.5 -30.5t106 -59t69.5 -96t26.5 -138.5q0 -108 -91 -204t-225 -130q71 -19 124.5 -39.5t108 -55t90 -77t57.5 -106t22 -141.5q0 -88 -32 -156t-85.5 -111.5t-130 -71t-158 -39t-176.5 -11.5q-123 0 -276 25 t-185 38z" />
<glyph unicode="4" d="M117 438v70l852 926h82v-936h143l-14 -60h-129v-438h-82v438h-852zM203 498h764v843z" />
<glyph unicode="5" d="M139 63l17 74q70 -25 225 -59.5t281 -34.5q204 0 312.5 94.5t108.5 315.5q0 335 -356 335q-119 0 -267.5 -24t-232.5 -51l72 721h825l-8 -62h-745l-60 -565q67 20 190.5 35.5t225.5 15.5q71 0 129 -8.5t118.5 -34.5t102 -69.5t68 -118t26.5 -174.5q0 -473 -509 -473 q-95 0 -221 19.5t-204.5 37.5t-97.5 26z" />
<glyph unicode="6" d="M104 543v327q0 129 35 231.5t91 167t132 107.5t152.5 60.5t157.5 17.5q142 0 265.5 -20t188.5 -43l-24 -64q-60 24 -189.5 45t-240.5 21q-95 0 -182 -33.5t-153 -93.5t-105 -150.5t-39 -197.5v-164q70 46 218.5 85.5t266.5 39.5q84 0 170 -13q356 -59 356 -413 q0 -203 -155 -337t-396 -134q-88 0 -163.5 15.5t-148.5 55t-124 101.5t-82 161.5t-31 227.5zM193 528q7 -128 43 -222t97.5 -151t140.5 -84.5t179 -27.5q201 0 332 108.5t131 301.5q0 79 -23.5 141.5t-63.5 103.5t-96 68.5t-118.5 39t-134.5 11.5q-107 0 -259 -35t-228 -80 v-174z" />
<glyph unicode="7" d="M129 1368v66h1051v-41q-114 -86 -222 -227t-196.5 -319.5t-142.5 -400.5t-54 -446h-88q0 174 29 341t78.5 301.5t109 252t127 209.5t125.5 156t111 108h-928z" />
<glyph unicode="8" d="M102 395q0 75 28.5 137t69.5 102.5t102.5 74t113 51.5t114.5 35q-36 11 -70 24t-79 34t-81 48t-68 60t-50 76.5t-18 92.5q0 154 127 239t364 85t364.5 -85t127.5 -239q0 -232 -412 -337q71 -16 134.5 -38t127 -56.5t109 -76.5t74 -101t28.5 -126q0 -219 -138.5 -317 t-414.5 -98t-414.5 98t-138.5 317zM190 395q0 -354 465 -354q222 0 343.5 86t121.5 268q0 51 -17.5 94.5t-60.5 78.5t-78 59t-107 50.5t-108.5 38t-120.5 36.5q-4 1 -6.5 2t-6.5 2t-7 2q-90 -21 -162.5 -52t-131.5 -74.5t-91.5 -104t-32.5 -132.5zM252 1130q0 -36 16.5 -70 t39.5 -59.5t62 -51t70 -41.5t78.5 -34.5t72.5 -27t66 -21.5q39 10 77 22.5t86.5 32t88.5 44.5t75 55t55 69t20 82q0 137 -100 200t-304 63q-203 0 -303 -64t-100 -199z" />
<glyph unicode="9" d="M104 983q0 203 155 337t396 134q88 0 163.5 -15.5t148.5 -55t124 -101.5t82 -161.5t31 -227.5v-328q0 -129 -35 -231.5t-90.5 -167t-131.5 -107t-152.5 -60t-157.5 -17.5q-142 0 -266 20t-189 43l25 64q60 -24 189.5 -45t240.5 -21q95 0 181.5 33t152.5 92.5t105.5 150.5 t39.5 199v164q-70 -46 -218.5 -85.5t-266.5 -39.5t-209.5 21t-165 68.5t-113 132.5t-39.5 204zM193 983q0 -98 35 -170.5t97 -114t138 -61t166 -19.5q107 0 259 35t228 80v174q-18 250 -138 368t-323 118q-201 0 -331.5 -108.5t-130.5 -301.5z" />
<glyph unicode=":" horiz-adv-x="493" d="M184 0v213h125v-213h-125zM184 811v213h125v-213h-125z" />
<glyph unicode=";" horiz-adv-x="493" d="M172 -303q72 173 72 303h-60v213h125v-131q0 -82 -17 -164t-32.5 -123.5t-44.5 -109.5zM184 811v213h125v-213h-125z" />
<glyph unicode="&#x3c;" horiz-adv-x="1249" d="M184 467v90q93 51 261.5 143.5t307.5 169t261 144.5v-96l-738 -406l738 -406v-96q-816 449 -830 457z" />
<glyph unicode="=" horiz-adv-x="1392" d="M184 471v82h1024v-82h-1024zM184 881v82h1024v-82h-1024z" />
<glyph unicode="&#x3e;" horiz-adv-x="1249" d="M184 10v96q48 26 320 177t418 229l-738 406v96q122 -68 261 -144.5t307.5 -169t261.5 -143.5v-90q-17 -9 -830 -457z" />
<glyph unicode="?" horiz-adv-x="1071" d="M164 1413q149 41 272 41q49 0 89.5 -3t88.5 -13.5t85 -28.5t74 -49t61 -73t38.5 -104t14.5 -139q0 -39 -6.5 -73.5t-15 -60t-27.5 -51t-31.5 -40t-39.5 -35t-40.5 -29.5t-45.5 -28.5t-44 -26.5q-44 -27 -65.5 -42t-47.5 -39t-36.5 -49.5t-10.5 -57.5v-164h-82v144 q0 40 12 75t28 58.5t46.5 49t53 40t61.5 37.5q99 58 130 86q73 67 79 184v22q0 100 -25 169t-75 108t-115 55.5t-154 16.5q-63 0 -144 -15t-116 -26zM373 0v213h125v-213h-125z" />
<glyph unicode="@" horiz-adv-x="2232" d="M178 522q0 932 938 932q250 0 429.5 -53t291.5 -161t164.5 -262t52.5 -364q0 -107 -18.5 -198.5t-60 -169t-103.5 -131.5t-152.5 -84.5t-203.5 -30.5h-82v111q-221 -131 -369 -131q-218 0 -318 130.5t-100 381.5q0 282 111 427.5t348 145.5q67 0 140.5 -8.5t117.5 -17.5 t96 -21.5t56 -13.5v-943q71 1 130 14.5t120.5 50.5t103.5 96.5t69 159.5t27 232q0 401 -203 590t-647 189q-432 0 -641 -216.5t-209 -654.5q0 -450 203 -660t647 -210q136 0 273 21.5t247 57t181.5 64t130.5 58.5l37 -54q-60 -30 -135 -60t-190 -67t-258.5 -59.5 t-285.5 -22.5q-467 0 -702.5 222.5t-235.5 709.5zM737 492q0 -110 18.5 -192t47.5 -130.5t73.5 -78.5t88.5 -40t100 -10q81 0 189 49t180 96v772q-190 46 -328 46q-57 0 -105 -11t-98.5 -44t-85.5 -87.5t-57.5 -149t-22.5 -220.5z" />
<glyph unicode="A" horiz-adv-x="1275" d="M82 0l508 1434h98l506 -1434h-88l-160 467h-616l-160 -467h-88zM352 528h574l-287 838z" />
<glyph unicode="B" horiz-adv-x="1153" d="M184 0v1434h447q157 0 247.5 -86t90.5 -246q0 -250 -170 -314q123 -47 187.5 -144t64.5 -234q0 -70 -11 -127t-42 -111.5t-81 -91t-132 -58.5t-191 -22h-410zM266 61h328q89 0 154 16.5t115 55.5t75 108t25 169q0 78 -22.5 138.5t-58.5 97.5t-86 60.5t-99 32.5t-103 9 h-328v-687zM266 809h365q250 0 250 293q0 127 -64 198.5t-186 71.5h-365v-563z" />
<glyph unicode="C" horiz-adv-x="1124" d="M102 543v348q0 132 28.5 232t90 176t167.5 115.5t253 39.5q63 0 130 -12.5t112.5 -26.5t138.5 -45l-25 -63q-13 4 -66 22.5t-66 22.5t-53 15.5t-59.5 14.5t-51 7t-60.5 4q-239 0 -345 -124t-106 -378v-348q0 -502 451 -502q29 0 60.5 4t51 7t59.5 14.5t53 15.5t66 22.5 t66 22.5l25 -64q-90 -30 -137.5 -44.5t-114 -26.5t-129.5 -12q-147 0 -253 39.5t-167.5 115.5t-90 176t-28.5 232z" />
<glyph unicode="D" horiz-adv-x="1357" d="M184 0v1434h451q115 0 203 -17t169 -64.5t133.5 -126t83.5 -207t31 -302.5t-31 -302.5t-83.5 -207t-133.5 -126t-169 -64.5t-203 -17h-451zM266 61h369q61 0 111 5.5t107 22.5t100.5 45.5t85 78.5t68.5 117.5t43.5 166t16.5 220.5t-16.5 220.5t-43.5 166t-68.5 117 t-85 78t-100.5 45.5t-106.5 22.5t-111.5 5.5h-369v-1311z" />
<glyph unicode="E" horiz-adv-x="1105" d="M184 0v1434h820v-62h-738v-553h656v-61h-656v-697h738v-61h-820z" />
<glyph unicode="F" horiz-adv-x="1105" d="M184 0v1434h820v-62h-738v-594h656v-61h-656v-717h-82z" />
<glyph unicode="G" horiz-adv-x="1193" d="M102 543v348q0 132 28.5 232t90 176t167.5 115.5t253 39.5q236 0 422 -63l-25 -64q-195 66 -397 66q-240 0 -345.5 -124t-105.5 -378v-348q0 -115 25 -204.5t77 -157.5t140.5 -104t208.5 -36q180 0 369 57v557l-369 13v69h451v-684q-216 -73 -451 -73q-147 0 -253 39.5 t-167.5 115.5t-90 176t-28.5 232z" />
<glyph unicode="H" horiz-adv-x="1392" d="M184 0v1434h82v-615h860v615h82v-1434h-82v758h-860v-758h-82z" />
<glyph unicode="I" horiz-adv-x="696" d="M61 0v61h246v1311h-246v62h574v-62h-246v-1311h246v-61h-574z" />
<glyph unicode="J" horiz-adv-x="946" d="M20 37l27 72q46 -35 100 -51.5t144 -16.5q75 0 134.5 14t99.5 36t69.5 57t45.5 69.5t25.5 81.5t12 85t2.5 87v963h82v-963q0 -54 -3.5 -97.5t-15 -96t-31.5 -93t-55.5 -80.5t-84 -66t-120.5 -42t-161 -16q-160 0 -271 57z" />
<glyph unicode="K" horiz-adv-x="1228" d="M184 0v1434h82v-643h25l774 643h121l-807 -656l809 -778h-113l-784 756h-25v-756h-82z" />
<glyph unicode="L" horiz-adv-x="1105" d="M184 0v1434h82v-1362h778v-72h-860z" />
<glyph unicode="M" horiz-adv-x="1802" d="M143 0l123 1434h84l551 -1350l549 1350h86l123 -1434h-82l-109 1305l-524 -1305h-88l-522 1305l-109 -1305h-82z" />
<glyph unicode="N" horiz-adv-x="1556" d="M184 0v1434h105l1011 -1336v1336h72v-1434h-106l-1010 1335v-1335h-72z" />
<glyph unicode="O" horiz-adv-x="1404" d="M102 543v348q0 84 23 164.5t71.5 153t117.5 127t169 86.5t219 32t219 -32t169.5 -86.5t118 -127t71.5 -153t23 -164.5v-348q0 -84 -22.5 -164.5t-71.5 -153t-118 -127t-169.5 -86.5t-219.5 -32t-219.5 32t-169.5 86.5t-117.5 127t-71 153t-22.5 164.5zM190 543 q0 -226 142.5 -364t369.5 -138q239 0 375.5 136t136.5 366v348q0 138 -59.5 251t-178 182t-274.5 69q-142 0 -259 -63.5t-185 -178.5t-68 -260v-348z" />
<glyph unicode="P" horiz-adv-x="1153" d="M184 0v1434h410q120 0 200.5 -18t140.5 -63t88 -126t28 -203q0 -242 -112 -346.5t-345 -104.5h-328v-573h-82zM266 635h328q62 0 110.5 7.5t99 32t83.5 65.5t54.5 113.5t21.5 170.5q0 100 -25 169t-75 107.5t-115 55t-154 16.5h-328v-737z" />
<glyph unicode="Q" horiz-adv-x="1404" d="M102 543v348q0 84 23 164.5t71.5 153t117.5 127t169 86.5t219 32t219 -32t169.5 -86.5t118 -127t71.5 -153t23 -164.5v-348q0 -113 -39.5 -215.5t-125 -188t-206.5 -125.5l196 -405h-92l-184 385q-82 -14 -150 -14q-119 0 -219.5 32t-169.5 86.5t-117.5 127t-71 153 t-22.5 164.5zM190 543q0 -230 136.5 -366t375.5 -136q75 0 121 10l-260 545h90l252 -524q148 49 228.5 172.5t80.5 298.5v348q0 138 -59.5 251t-178 182t-274.5 69q-236 0 -374 -143t-138 -359v-348z" />
<glyph unicode="R" horiz-adv-x="1239" d="M184 0v1434h451q236 0 346.5 -98.5t110.5 -311.5q0 -186 -97.5 -287.5t-244.5 -101.5l469 -635h-103l-450 635h-400v-635h-82zM266 696h369q73 0 126.5 8t101 29.5t77.5 57.5t47 94.5t17 138.5q0 100 -25 169t-75 107.5t-115 55t-154 16.5h-369v-676z" />
<glyph unicode="S" horiz-adv-x="1198" d="M102 76l21 67q206 -102 481 -102q81 0 147 14.5t107 36.5t71.5 53.5t45 58.5t22.5 60t9.5 49.5t1.5 34.5q0 83 -23.5 132.5t-72.5 81.5t-146 65q-37 13 -102 32.5t-110.5 33t-107.5 37t-105 45.5t-89 56.5t-74.5 72.5t-46.5 90t-18 112q0 86 40 153.5t109 109.5t156 63.5 t186 21.5q124 0 229 -24t232 -72l-23 -68q-117 52 -210.5 77.5t-227.5 25.5q-108 0 -189.5 -26t-126.5 -69t-66 -91.5t-21 -100.5q0 -165 221 -266q71 -33 164.5 -65t160 -51t136.5 -51.5t113.5 -70t71.5 -102t28 -152.5q0 -116 -69 -201t-179 -126t-244 -41q-123 0 -266 22 t-236 74z" />
<glyph unicode="T" horiz-adv-x="1105" d="M61 1362v72h983v-72h-450v-1362h-82v1362h-451z" />
<glyph unicode="U" d="M164 512v922h82v-942q0 -226 113.5 -338.5t318.5 -112.5q200 0 296.5 110.5t96.5 340.5v942h76v-922q0 -98 -13.5 -176t-46.5 -146t-86 -113.5t-134.5 -71t-188.5 -25.5q-134 0 -234 38.5t-160.5 110.5t-90 167.5t-29.5 215.5z" />
<glyph unicode="V" horiz-adv-x="1191" d="M41 1434h96l453 -1373h12l463 1373h86l-492 -1434h-127z" />
<glyph unicode="W" horiz-adv-x="2093" d="M82 1434h92l391 -1313l432 1313h99l444 -1313l385 1313h86l-428 -1434h-94l-449 1323l-436 -1323h-94z" />
<glyph unicode="X" horiz-adv-x="1206" d="M41 0l512 717l-512 717h111l458 -658l455 658h100l-512 -717l512 -717h-110l-459 655l-455 -655h-100z" />
<glyph unicode="Y" horiz-adv-x="1161" d="M20 1434h105l463 -762l456 762h97l-518 -834v-600h-82v602z" />
<glyph unicode="Z" horiz-adv-x="1228" d="M102 0v55l922 1317h-881v62h983v-56l-921 -1317h921v-61h-1024z" />
<glyph unicode="[" horiz-adv-x="716" d="M184 -287v1925h348v-75h-266v-1774h266v-76h-348z" />
<glyph unicode="\" horiz-adv-x="1200" d="M184 1479h90l742 -1706h-88z" />
<glyph unicode="]" horiz-adv-x="716" d="M184 -211h267v1774h-267v75h348v-1925h-348v76z" />
<glyph unicode="^" horiz-adv-x="1372" d="M184 606l457 830h90l457 -830h-96l-406 737l-405 -737h-97z" />
<glyph unicode="_" horiz-adv-x="1024" d="M0 -86h1024v-82h-1024v82z" />
<glyph unicode="`" horiz-adv-x="532" d="M164 1534h104l80 -391l-63 -17z" />
<glyph unicode="a" horiz-adv-x="1019" d="M92 285q0 133 103.5 200.5t271.5 67.5h328v195q0 127 -59.5 180t-186.5 53q-53 0 -114 -8.5t-96.5 -17t-95 -24.5t-67.5 -18l-14 70q5 1 57 14t92 21.5t108 17t130 8.5q53 0 97 -6.5t76 -16t57 -28t41 -34.5t27.5 -45t17 -49t8.5 -56t3.5 -58t0.5 -63v-688h-82v82 q-54 -40 -139 -72.5t-189 -32.5q-375 0 -375 308zM180 285q0 -121 69 -182.5t218 -61.5q124 0 328 102v349h-328q-72 0 -129.5 -20t-90.5 -51.5t-50 -66.5t-17 -69z" />
<glyph unicode="b" horiz-adv-x="1101" d="M143 0v1434h82v-492q56 35 143 66.5t185 31.5q457 0 457 -528q0 -532 -457 -532q-165 0 -328 102v-82h-82zM225 143q163 -102 328 -102q57 0 105 10t98.5 41t85.5 81.5t57.5 137t22.5 201.5t-22.5 201.5t-57.5 137t-85.5 81.5t-98.5 41t-105 10q-52 0 -101 -9.5 t-94.5 -28.5t-69.5 -30.5t-63 -33.5v-738z" />
<glyph unicode="c" horiz-adv-x="929" d="M92 430v164q0 213 119 331.5t338 118.5q177 0 340 -83l-21 -68q-7 3 -41 17t-46 18.5t-42.5 16t-48 16t-44 11t-50.5 9t-47 2.5q-183 0 -276 -103t-93 -286v-164q0 -185 93.5 -287t275.5 -102q52 0 112.5 15t100.5 30.5t108 44.5l19 -68q-100 -40 -177 -61.5t-163 -21.5 q-218 0 -337.5 117.5t-119.5 332.5z" />
<glyph unicode="d" horiz-adv-x="1101" d="M92 512q0 532 457 532q165 0 328 -102v492h81v-1434h-81v82q-163 -102 -328 -102q-229 0 -343 138t-114 394zM180 512q0 -115 22.5 -201.5t57.5 -137t85.5 -81.5t98.5 -41t105 -10q165 0 328 102v738q-183 102 -328 102q-57 0 -105 -10t-98.5 -41t-85.5 -81.5t-57.5 -137 t-22.5 -201.5z" />
<glyph unicode="e" horiz-adv-x="1019" d="M92 369v225q0 102 23.5 182.5t72 141t129.5 93.5t191 33q210 0 315 -104.5t105 -304.5v-154h-748v-112q0 -172 92.5 -250t276.5 -78q48 0 109.5 14t108 29.5t128.5 46.5l14 -68q-117 -42 -198 -62.5t-162 -20.5q-225 0 -341 89.5t-116 299.5zM180 532h660v123 q0 160 -84 244t-248 84q-328 0 -328 -369v-82z" />
<glyph unicode="f" horiz-adv-x="778" d="M41 963v61h205v102q0 410 332 410q160 0 286 -41l-16 -61q-52 15 -130.5 28t-139.5 13q-65 0 -110.5 -21t-72.5 -56t-42 -95t-20 -123.5t-5 -155.5h409v-61h-409v-963h-82v963h-205z" />
<glyph unicode="g" horiz-adv-x="1198" d="M123 -98q0 188 209 276q-68 59 -68 135q0 51 16.5 83t47.5 59q-65 33 -108.5 98.5t-43.5 163.5q0 89 33 154t92 101.5t133 54t164 17.5q184 0 313 -88q32 26 45 65t13 105h88q-2 -78 -25 -127.5t-86 -72.5q74 -81 74 -209q0 -71 -22 -125t-59 -87.5t-92.5 -54t-115 -28.5 t-133.5 -8q-150 0 -215 18q-13 -13 -25 -50.5t-12 -68.5q0 -23 14 -58.5t31 -55.5q60 14 207 14q107 0 186.5 -13t148.5 -46t105.5 -96t36.5 -156q0 -75 -25 -130.5t-66.5 -90t-104.5 -55.5t-129.5 -28.5t-151.5 -7.5q-84 0 -150.5 7.5t-129 28.5t-104 55.5t-66.5 90 t-25 130.5zM211 -98q0 -54 16.5 -95.5t57 -78t120 -56.5t193.5 -20t193.5 20t120.5 56.5t58 78.5t17 95q0 87 -30.5 138.5t-117 80.5t-241.5 29q-191 0 -289 -62.5t-98 -185.5zM264 717q0 -87 27.5 -139t102 -81.5t204.5 -29.5q181 0 257.5 61.5t76.5 188.5 q0 121 -84.5 195.5t-249.5 74.5q-77 0 -136.5 -15t-96 -40t-60 -61t-32.5 -73t-9 -81z" />
<glyph unicode="h" horiz-adv-x="1105" d="M143 0v1434h82v-543q56 54 155.5 103.5t217.5 49.5q93 0 156 -14.5t112.5 -51.5t73 -106.5t23.5 -175.5v-696h-82v696q0 154 -60.5 220.5t-222.5 66.5q-98 0 -205 -48t-168 -106v-829h-82z" />
<glyph unicode="i" horiz-adv-x="368" d="M143 0v1024h82v-1024h-82zM143 1194v240h82v-240h-82z" />
<glyph unicode="j" horiz-adv-x="368" d="M-276 -367l10 64q148 -45 205 -45q204 0 204 266v1106h82v-1106q0 -166 -70.5 -247t-215.5 -81q-70 0 -215 43zM143 1194v240h82v-240h-82z" />
<glyph unicode="k" horiz-adv-x="958" d="M143 0v1434h82v-883h8l570 473h135l-623 -485l621 -539h-123l-580 516h-8v-516h-82z" />
<glyph unicode="l" horiz-adv-x="368" d="M143 0v1536h82v-1536h-82z" />
<glyph unicode="m" horiz-adv-x="1515" d="M143 0v1024h82v-127q46 46 143.5 96.5t163.5 50.5q52 0 92.5 -10t65 -24t44 -38.5t29 -44.5t19.5 -50q62 68 166 117.5t178 49.5q135 0 190.5 -76.5t55.5 -230.5v-737h-82v737q0 121 -32.5 173.5t-131.5 52.5q-63 0 -165.5 -42t-161.5 -94v-827h-82v737q0 116 -41 171 t-144 55q-66 0 -161 -42t-146 -94v-827h-82z" />
<glyph unicode="n" horiz-adv-x="1105" d="M143 0v1024h82v-133q200 153 377 153q102 0 172.5 -22t111.5 -67.5t59 -108t18 -150.5v-696h-82v696q0 79 -12.5 131t-44.5 88t-87 52t-139 16q-98 0 -205 -48t-168 -106v-829h-82z" />
<glyph unicode="o" horiz-adv-x="1097" d="M92 393v238q0 187 122 300t335 113t335 -113t122 -300v-238q0 -187 -122 -300t-335 -113t-335 113t-122 300zM180 393q0 -158 100 -255t269 -97t269 97t100 255v238q0 157 -100.5 254.5t-268.5 97.5t-268.5 -97t-100.5 -255v-238z" />
<glyph unicode="p" horiz-adv-x="1101" d="M143 -410v1434h82v-82q163 102 328 102q229 0 343 -138t114 -394q0 -532 -457 -532q-165 0 -328 102v-492h-82zM225 143q174 -102 328 -102q57 0 105 10t98.5 41t85.5 81.5t57.5 137t22.5 201.5t-22.5 201.5t-57.5 137t-85.5 81.5t-98.5 41t-105 10q-165 0 -328 -102 v-738z" />
<glyph unicode="q" horiz-adv-x="1101" d="M92 512q0 532 457 532q121 0 213.5 -21t195.5 -60v-1373h-81v492q-163 -102 -328 -102q-457 0 -457 532zM180 512q0 -115 22.5 -201.5t57.5 -137t85.5 -81.5t98.5 -41t105 -10q68 0 137 19t104.5 36.5t86.5 46.5v779q-136 61 -328 61q-57 0 -105 -10t-98.5 -41 t-85.5 -81.5t-57.5 -137t-22.5 -201.5z" />
<glyph unicode="r" horiz-adv-x="696" d="M143 0v1024h82v-197q45 88 138 152.5t190 64.5h86l16 -81h-67q-70 0 -140 -30t-117 -72.5t-76.5 -87t-29.5 -75.5v-698h-82z" />
<glyph unicode="s" horiz-adv-x="972" d="M92 55l14 64q72 -24 118 -37.5t123 -27t145 -13.5q63 0 112.5 7.5t81 19t54.5 29.5t34 33.5t17 37.5t7 34.5t1 30.5q0 109 -121 170q-42 21 -109.5 39.5t-127 30t-124 34t-110 51t-75.5 81.5t-30 125q0 74 31.5 129.5t87.5 87.5t124.5 47.5t150.5 15.5q77 0 150 -13 t108.5 -24t91.5 -32l-21 -62q-7 3 -38 14t-41.5 14.5t-38.5 12.5t-46.5 12.5t-47.5 8t-58.5 6.5t-62.5 2q-86 0 -149.5 -22.5t-96 -57.5t-47.5 -70t-15 -69q0 -53 32.5 -93.5t82.5 -62.5q46 -18 118.5 -37t131 -31.5t123 -37t108 -55.5t72.5 -86t29 -128q0 -65 -22 -112 t-56 -73.5t-88 -42.5t-104.5 -20.5t-118.5 -4.5q-193 0 -400 75z" />
<glyph unicode="t" horiz-adv-x="778" d="M41 963v61h205v266l82 21v-287h409v-61h-409v-656q0 -78 16.5 -132.5t46.5 -82.5t64 -39.5t77 -11.5q53 0 94.5 7.5t56.5 13.5t40 18l22 -55q-86 -45 -213 -45q-145 0 -215.5 80.5t-70.5 246.5v656h-205z" />
<glyph unicode="u" horiz-adv-x="1105" d="M143 328v696h82v-696q0 -287 244 -287q120 0 235 47.5t177 106.5v829h82v-1024h-82v133q-65 -57 -186 -105t-230 -48q-162 0 -242 92t-80 256z" />
<glyph unicode="v" horiz-adv-x="948" d="M20 1024h99l356 -963h8l357 963h88l-396 -1024h-114z" />
<glyph unicode="w" horiz-adv-x="1560" d="M41 1024h96l264 -938h9l319 938h111l319 -938h8l267 938h86l-316 -1024h-86l-338 940l-338 -940h-86z" />
<glyph unicode="x" horiz-adv-x="964" d="M20 0l410 512l-410 512h115l361 -467l344 467h104l-409 -512l409 -512h-115l-356 467l-348 -467h-105z" />
<glyph unicode="y" horiz-adv-x="1011" d="M20 1024h105l436 -977l342 977h88l-350 -961q-91 -252 -131 -344q-37 -87 -94.5 -138.5t-157.5 -51.5q-110 0 -199 47l27 64q85 -41 162 -41q70 0 114.5 32t79.5 117l101 252q-23 4 -46 23.5t-34 42.5z" />
<glyph unicode="z" horiz-adv-x="1011" d="M92 0v53l723 910h-682v61h787v-53l-723 -910h714v-61h-819z" />
<glyph unicode="{" horiz-adv-x="778" d="M184 670v82h43q25 0 52.5 25.5t27.5 76.5v580q0 204 185 204h102v-82h-102q-46 0 -74.5 -27t-28.5 -75v-600q0 -54 -15 -81.5t-52 -57.5q46 -37 56.5 -79t10.5 -163v-575q0 -48 28.5 -75.5t74.5 -27.5h102v-82h-102q-185 0 -185 224v630q0 52 -26.5 77.5t-51.5 25.5h-45z " />
<glyph unicode="|" horiz-adv-x="450" d="M184 -512v2048h82v-2048h-82z" />
<glyph unicode="}" horiz-adv-x="778" d="M184 -205h103q45 0 73.5 27.5t28.5 75.5v575q0 120 11 162.5t57 79.5q-37 30 -52.5 57.5t-15.5 81.5v600q0 48 -28 75t-74 27h-103v82h103q184 0 184 -204v-580q0 -51 27.5 -76.5t52.5 -25.5h43v-82h-45q-25 0 -51.5 -25.5t-26.5 -77.5v-630q0 -224 -184 -224h-103v82z " />
<glyph unicode="~" horiz-adv-x="1339" d="M184 862q3 5 16 22t40 45t59.5 53t77 43.5t88.5 18.5q49 0 100 -22.5t89 -49t96.5 -49t119.5 -22.5q36 0 73 16.5t64.5 40t49.5 47.5t33.5 40.5t11.5 17.5l53 -37q-5 -10 -14 -25t-36.5 -50.5t-58 -62t-78.5 -48t-98 -21.5q-57 0 -113.5 22.5t-94.5 49.5t-91 49.5 t-106 22.5q-61 0 -133.5 -52.5t-102.5 -93.5z" />
<glyph unicode="&#xa3;" horiz-adv-x="1533" d="M184 33q84 63 168 102v623h-123v61h123v185q0 202 125.5 326t325.5 124q73 0 158 -15t137 -29.5t129 -39.5l-29 -57q-3 3 -57 21.5t-152.5 38.5t-185.5 20q-66 0 -129 -22t-118 -66t-88.5 -122t-33.5 -179v-185h656v-61h-656v-594q72 20 144 20q50 0 107.5 -19 t101.5 -42.5t104.5 -42.5t116.5 -19q45 0 91.5 17t81 41t62.5 48.5t42.5 41.5t14.5 18l50 -45q-6 -8 -21 -24.5t-51 -49.5t-74.5 -60t-92 -47.5t-103.5 -20.5q-52 0 -124 30.5t-152.5 61t-153.5 30.5q-198 0 -359 -122z" />
<glyph unicode="&#xa8;" horiz-adv-x="739" d="M164 1194v240h125v-240h-125zM451 1194v240h124v-240h-124z" />
<glyph unicode="&#xa9;" horiz-adv-x="2232" d="M184 522q0 454 233.5 693t698.5 239t698.5 -239t233.5 -693t-233.5 -693t-698.5 -239t-698.5 239t-233.5 693zM266 522q0 -424 210 -647t640 -223t640 223t210 647t-211 647.5t-639 223.5q-430 0 -640 -223t-210 -648zM696 440v146q0 122 21.5 207t73 148t141 93.5 t221.5 30.5q90 0 155.5 -11t159.5 -44l-20 -60q-101 35 -159.5 47.5t-135.5 12.5q-214 0 -296.5 -96.5t-82.5 -327.5v-146q0 -106 18 -179t61.5 -125t117 -76.5t182.5 -24.5q77 0 136 12t159 47l20 -57q-96 -34 -161.5 -45.5t-153.5 -11.5q-133 0 -221.5 27.5t-140.5 86.5 t-73.5 142t-21.5 204z" />
<glyph unicode="&#xab;" horiz-adv-x="1046" d="M184 510l324 451h88l-309 -447l309 -408h-94zM451 510l323 451h88l-309 -447l309 -408h-94z" />
<glyph unicode="&#xad;" horiz-adv-x="983" d="M184 635v82h615v-82h-615z" />
<glyph unicode="&#xae;" horiz-adv-x="1372" d="M178 952q0 502 508 502t508 -502q0 -501 -508 -501t-508 501zM266 952q0 -221 102 -330.5t318 -109.5t318 109.5t102 330.5t-102 331t-318 110t-318 -110t-102 -331zM500 651v609h190q205 0 205 -175q0 -77 -45.5 -120t-110.5 -43l199 -271h-80l-186 271h-117v-271h-55z M555 967h135q29 0 45 1t38 7.5t33 18.5t19.5 35t8.5 56q0 42 -11 69t-33.5 39t-44 15.5t-55.5 3.5h-135v-245z" />
<glyph unicode="&#xb4;" horiz-adv-x="532" d="M164 1139l80 397h104l-121 -408z" />
<glyph unicode="&#xbb;" horiz-adv-x="1046" d="M184 106l310 408l-310 447h86l326 -451l-320 -404h-92zM451 106l309 408l-309 447h86l325 -451l-319 -404h-92z" />
<glyph unicode="&#x2c6;" horiz-adv-x="798" d="M184 1194l170 311h90l170 -311h-96l-119 254l-120 -254h-95z" />
<glyph unicode="&#x2dc;" horiz-adv-x="888" d="M164 1343q86 80 176 80q50 0 117 -35.5t106 -35.5q75 0 156 75l26 -51q-18 -28 -74 -61t-108 -33q-40 0 -108 36t-115 36q-40 0 -73.5 -12t-49 -23.5t-35.5 -30.5z" />
<glyph unicode="&#x401;" horiz-adv-x="1105" d="M184 0v1434h820v-62h-738v-553h656v-61h-656v-697h738v-61h-820zM408 1604v239h124v-239h-124zM694 1604v239h125v-239h-125z" />
<glyph unicode="&#x410;" horiz-adv-x="1275" d="M82 0l508 1434h98l506 -1434h-88l-160 467h-616l-160 -467h-88zM352 528h574l-287 838z" />
<glyph unicode="&#x411;" horiz-adv-x="1153" d="M184 0v1434h738v-62h-656v-512h328q130 0 220.5 -29.5t141.5 -87.5t73 -133.5t22 -179.5q0 -71 -9 -127.5t-38.5 -115.5t-78 -98t-133 -64t-198.5 -25h-410zM266 61h328q90 0 154.5 17t114.5 58t75 114t25 180t-25 180t-75 114t-114.5 58t-154.5 17h-328v-738z" />
<glyph unicode="&#x412;" horiz-adv-x="1153" d="M184 0v1434h447q157 0 247.5 -86t90.5 -246q0 -250 -170 -314q123 -47 187.5 -144t64.5 -234q0 -70 -11 -127t-42 -111.5t-81 -91t-132 -58.5t-191 -22h-410zM266 61h328q89 0 154 16.5t115 55.5t75 108t25 169q0 78 -22.5 138.5t-58.5 97.5t-86 60.5t-99 32.5t-103 9 h-328v-687zM266 809h365q250 0 250 293q0 127 -64 198.5t-186 71.5h-365v-563z" />
<glyph unicode="&#x413;" horiz-adv-x="962" d="M184 0v1434h738v-68h-656v-1366h-82z" />
<glyph unicode="&#x414;" horiz-adv-x="1413" d="M41 61h102q47 59 83.5 147t60 176.5t40 212t24.5 215.5t12.5 226.5t5 206t0.5 189.5h778v-1373h164l-17 -471h-65v410h-1106l-19 -410h-63v471zM223 61h842v1311h-621v-102q0 -99 -1.5 -175t-7.5 -202.5t-21 -231t-38 -219.5t-62.5 -212.5t-90.5 -168.5z" />
<glyph unicode="&#x415;" horiz-adv-x="1105" d="M184 0v1434h820v-62h-738v-553h656v-61h-656v-697h738v-61h-820z" />
<glyph unicode="&#x416;" horiz-adv-x="1550" d="M20 0l613 778l-610 656h104l578 -643h30v643h82v-643h31l575 643h107l-612 -656l612 -778h-98l-586 764h-29v-764h-82v764h-30l-586 -764h-99z" />
<glyph unicode="&#x417;" horiz-adv-x="1144" d="M102 63l17 74q2 -1 39 -15.5t69.5 -25t81.5 -24.5t104 -21.5t109 -7.5q80 0 143.5 9.5t118.5 32.5t92 60t57.5 93.5t20.5 130.5q0 73 -18 132.5t-46.5 98t-70 67t-80 44t-86 24.5t-80 11t-67.5 2h-139v61h176q88 0 159.5 30t118.5 98t47 165q0 289 -325 289 q-96 0 -203 -26t-176 -58l-25 61q73 35 183.5 60.5t220.5 25.5q97 0 169.5 -17t129 -56.5t85.5 -109t29 -169.5q0 -256 -239 -316q85 -23 141.5 -52t100 -76.5t63.5 -118t20 -170.5q0 -88 -25.5 -155.5t-70.5 -111.5t-111.5 -71.5t-142.5 -39t-170 -11.5q-85 0 -188 20 t-154 36t-78 27z" />
<glyph unicode="&#x418;" horiz-adv-x="1474" d="M184 0v1434h82v-1334l932 1334h92v-1434h-82v1333l-932 -1333h-92z" />
<glyph unicode="&#x419;" horiz-adv-x="1474" d="M184 0v1434h82v-1334l932 1334h92v-1434h-82v1333l-932 -1333h-92zM348 1761v41h82q0 -24 3 -42.5t21 -47t50 -47.5t97.5 -33t156.5 -14q66 0 118.5 7.5t86 18.5t58 28t36.5 32t19 36t8 33t1 29h82v-41q0 -58 -40 -100.5t-105 -64t-130.5 -31t-133.5 -9.5q-64 0 -129 9.5 t-131.5 31t-108 64t-41.5 100.5z" />
<glyph unicode="&#x41a;" horiz-adv-x="1210" d="M184 0v1434h82v-643h25l774 643h121l-807 -656l809 -778h-113l-784 756h-25v-756h-82z" />
<glyph unicode="&#x41b;" horiz-adv-x="1331" d="M41 68q35 -7 59 -7q146 0 214.5 340.5t68.5 1032.5h764v-1434h-82v1372h-614q0 -1392 -328 -1392q-32 0 -62 6z" />
<glyph unicode="&#x41c;" horiz-adv-x="1802" d="M143 0l123 1434h84l551 -1350l549 1350h86l123 -1434h-82l-109 1305l-524 -1305h-88l-522 1305l-109 -1305h-82z" />
<glyph unicode="&#x41d;" horiz-adv-x="1392" d="M184 0v1434h82v-615h860v615h82v-1434h-82v758h-860v-758h-82z" />
<glyph unicode="&#x41e;" horiz-adv-x="1404" d="M102 543v348q0 84 23 164.5t71.5 153t117.5 127t169 86.5t219 32t219 -32t169.5 -86.5t118 -127t71.5 -153t23 -164.5v-348q0 -84 -22.5 -164.5t-71.5 -153t-118 -127t-169.5 -86.5t-219.5 -32t-219.5 32t-169.5 86.5t-117.5 127t-71 153t-22.5 164.5zM190 543 q0 -226 142.5 -364t369.5 -138q239 0 375.5 136t136.5 366v348q0 138 -59.5 251t-178 182t-274.5 69q-142 0 -259 -63.5t-185 -178.5t-68 -260v-348z" />
<glyph unicode="&#x41f;" horiz-adv-x="1433" d="M184 0v1434h1065v-1434h-82v1372h-901v-1372h-82z" />
<glyph unicode="&#x420;" horiz-adv-x="1153" d="M184 0v1434h410q120 0 200.5 -18t140.5 -63t88 -126t28 -203q0 -242 -112 -346.5t-345 -104.5h-328v-573h-82zM266 635h328q62 0 110.5 7.5t99 32t83.5 65.5t54.5 113.5t21.5 170.5q0 100 -25 169t-75 107.5t-115 55t-154 16.5h-328v-737z" />
<glyph unicode="&#x421;" horiz-adv-x="1124" d="M102 543v348q0 132 28.5 232t90 176t167.5 115.5t253 39.5q63 0 130 -12.5t112.5 -26.5t138.5 -45l-25 -63q-13 4 -66 22.5t-66 22.5t-53 15.5t-59.5 14.5t-51 7t-60.5 4q-239 0 -345 -124t-106 -378v-348q0 -502 451 -502q29 0 60.5 4t51 7t59.5 14.5t53 15.5t66 22.5 t66 22.5l25 -64q-90 -30 -137.5 -44.5t-114 -26.5t-129.5 -12q-147 0 -253 39.5t-167.5 115.5t-90 176t-28.5 232z" />
<glyph unicode="&#x422;" horiz-adv-x="1064" d="M41 1362v72h983v-72h-451v-1362h-81v1362h-451z" />
<glyph unicode="&#x423;" horiz-adv-x="1146" d="M20 1434h97l485 -1108h6l439 1108h79l-440 -1112q-22 -55 -35 -86.5t-33 -73t-36.5 -64.5t-39.5 -49t-47 -39t-55 -21.5t-67 -8.5q-85 0 -165.5 18t-123.5 37l25 65q126 -59 272 -59q64 0 102.5 45.5t89.5 159.5q-11 6 -26.5 27.5t-22.5 41.5z" />
<glyph unicode="&#x424;" horiz-adv-x="1609" d="M102 696v123q0 241 128 366.5t370 125.5h164v184h82v-184h164q242 0 369.5 -125.5t127.5 -366.5v-123q0 -235 -128.5 -363t-368.5 -128h-164v-205h-82v205h-164q-240 0 -369 128.5t-129 362.5zM190 676q0 -410 410 -410h164v983h-164q-410 0 -410 -409v-164zM846 266h164 q206 0 307.5 101.5t101.5 308.5v164q0 409 -409 409h-164v-983z" />
<glyph unicode="&#x425;" horiz-adv-x="1165" d="M20 0l512 717l-512 717h111l459 -658l454 658h101l-512 -717l512 -717h-111l-459 655l-454 -655h-101z" />
<glyph unicode="&#x426;" horiz-adv-x="1474" d="M184 0v1434h82v-1373h860v1373h82v-1373h170l-16 -471h-72v410h-1106z" />
<glyph unicode="&#x427;" horiz-adv-x="1187" d="M143 901v533h82v-533q0 -89 20.5 -146.5t65 -88t100.5 -41.5t142 -11q220 0 369 13v807h82v-1434h-82v561q-172 -14 -369 -14q-97 0 -167.5 15.5t-127.5 54t-86 109.5t-29 175z" />
<glyph unicode="&#x428;" horiz-adv-x="1802" d="M184 0v1434h82v-1373h594v1373h82v-1373h594v1373h82v-1434h-1434z" />
<glyph unicode="&#x429;" horiz-adv-x="1884" d="M184 0v1434h82v-1373h594v1373h82v-1373h594v1373h82v-1373h164l-17 -471h-65v410h-1516z" />
<glyph unicode="&#x42a;" horiz-adv-x="1296" d="M41 1372l8 62h361v-598q212 30 327 30q239 0 348 -107t109 -329t-108 -326t-349 -104h-409v1372h-287zM410 61h327q90 0 154.5 17t114.5 58t75 114t25 180t-25 180t-75 114t-114.5 58t-154.5 17q-155 0 -327 -27v-711z" />
<glyph unicode="&#x42b;" horiz-adv-x="1540" d="M184 0h410q241 0 349 104t108 326t-109 329t-348 107q-116 0 -328 -30v598h-82v-1434zM266 61v711q173 27 328 27q90 0 154.5 -17t114.5 -58t75 -114t25 -180t-25 -180t-75 -114t-114.5 -58t-154.5 -17h-328zM1274 0v1434h82v-1434h-82z" />
<glyph unicode="&#x42c;" horiz-adv-x="1153" d="M184 0v1434h82v-598q212 30 328 30q239 0 348 -107t109 -329t-108 -326t-349 -104h-410zM266 61h328q90 0 154.5 17t114.5 58t75 114t25 180t-25 180t-75 114t-114.5 58t-154.5 17q-156 0 -328 -27v-711z" />
<glyph unicode="&#x42d;" horiz-adv-x="1083" d="M61 63l25 64q109 -46 188.5 -66t167.5 -20q83 0 150 19.5t113.5 52.5t80.5 83t54.5 103t32.5 121.5t16 130.5t4 137v49h-574v62h574v24q0 276 -107 423t-321 147q-179 0 -379 -86l-25 63q191 84 381 84q269 0 404 -137t135 -426v-348q0 -263 -136 -413t-403 -150 q-109 0 -196.5 20.5t-184.5 62.5z" />
<glyph unicode="&#x42e;" horiz-adv-x="1726" d="M184 0v1434h82v-635h281v123q0 111 31.5 205.5t94.5 168.5t168.5 116t243.5 42t243.5 -42t169 -116t95 -168.5t31.5 -205.5v-410q0 -111 -31.5 -205.5t-95 -168.5t-169 -116t-243.5 -42t-243.5 42t-168.5 116t-94.5 168.5t-31.5 205.5v225h-281v-737h-82zM635 492 q0 -126 49.5 -226.5t153 -162.5t247.5 -62q108 0 195 35.5t142.5 97.5t84.5 143.5t29 174.5v450q0 93 -29 174.5t-84.5 143.5t-142.5 97.5t-195 35.5q-139 0 -243 -62t-155.5 -163t-51.5 -226v-450z" />
<glyph unicode="&#x42f;" horiz-adv-x="1286" d="M143 1024q0 204 115 307t352 103h492v-1434h-82v614h-369l-401 -614h-105l416 614q-209 0 -313.5 109.5t-104.5 300.5zM242 1024q0 -100 25 -169t74.5 -107.5t114.5 -55t154 -16.5h410v696h-410q-89 0 -154 -16.5t-114.5 -55t-74.5 -107.5t-25 -169z" />
<glyph unicode="&#x430;" horiz-adv-x="1019" d="M92 285q0 133 103.5 200.5t271.5 67.5h328v195q0 127 -59.5 180t-186.5 53q-53 0 -114 -8.5t-96.5 -17t-95 -24.5t-67.5 -18l-14 70q5 1 57 14t92 21.5t108 17t130 8.5q53 0 97 -6.5t76 -16t57 -28t41 -34.5t27.5 -45t17 -49t8.5 -56t3.5 -58t0.5 -63v-688h-82v82 q-54 -40 -139 -72.5t-189 -32.5q-375 0 -375 308zM180 285q0 -121 69 -182.5t218 -61.5q124 0 328 102v349h-328q-72 0 -129.5 -20t-90.5 -51.5t-50 -66.5t-17 -69z" />
<glyph unicode="&#x431;" horiz-adv-x="1128" d="M123 393v615q0 163 71.5 272t208.5 135l375 68q28 5 57.5 15.5t46.5 18.5t47.5 24.5t39.5 21.5l30 -82q-23 -15 -79.5 -39t-92.5 -31l-399 -74q-102 -20 -165.5 -114.5t-63.5 -214.5v-330q23 125 130 215t251 90q210 0 333 -105t123 -305v-180q0 -82 -26 -153.5 t-78.5 -131t-143 -94t-208.5 -34.5q-95 0 -173 23t-130 62t-87.5 92.5t-51 112t-15.5 123.5zM211 393q0 -156 100.5 -254t268.5 -98q167 0 267.5 99.5t100.5 252.5v180q0 152 -100.5 250.5t-267.5 98.5q-109 0 -195 -61t-130 -154.5t-44 -196.5v-117z" />
<glyph unicode="&#x432;" horiz-adv-x="1019" d="M143 0v1024h394q143 0 218.5 -54t75.5 -196q0 -151 -112 -215q209 -46 209 -268q0 -74 -19.5 -127t-51.5 -84.5t-84.5 -49.5t-107 -24t-130.5 -6h-392zM225 61h310q163 0 234 50t71 180q0 110 -71 160.5t-232 50.5h-312v-441zM225 563h312q106 0 156 52.5t50 158.5 q0 189 -206 189h-312v-400z" />
<glyph unicode="&#x433;" horiz-adv-x="778" d="M143 0v1024h594v-72h-512v-952h-82z" />
<glyph unicode="&#x434;" horiz-adv-x="1167" d="M41 61h96q39 42 70 103.5t51 123t34 146.5t21 148.5t10.5 157.5t4 145.5t0.5 138.5h614v-963h123l-14 -389h-68v328h-860l-14 -328h-68v389zM219 61h641v902h-450q0 -110 -2 -179.5t-12 -179t-29 -191.5t-56.5 -177.5t-91.5 -174.5z" />
<glyph unicode="&#x435;" horiz-adv-x="1019" d="M92 369v225q0 102 23.5 182.5t72 141t129.5 93.5t191 33q210 0 315 -104.5t105 -304.5v-154h-748v-112q0 -172 92.5 -250t276.5 -78q48 0 109.5 14t108 29.5t128.5 46.5l14 -68q-117 -42 -198 -62.5t-162 -20.5q-225 0 -341 89.5t-116 299.5zM180 532h660v123 q0 160 -84 244t-248 84q-328 0 -328 -369v-82z" />
<glyph unicode="&#x436;" horiz-adv-x="1304" d="M20 0l494 532l-491 492h114l457 -481h18v481h82v-481h19l456 481h115l-491 -492l489 -532h-113l-456 522h-19v-522h-82v522h-18l-461 -522h-113z" />
<glyph unicode="&#x437;" horiz-adv-x="987" d="M92 66l27 63q14 -9 57.5 -27.5t121.5 -39.5t140 -21q181 0 275 67.5t94 188.5q0 126 -95.5 186t-254.5 60h-203v61h203q31 0 60 2.5t69 14.5t69 31.5t49.5 57.5t20.5 89q0 84 -74 134t-213 50q-132 0 -303 -84l-26 64q167 81 329 81q94 0 159 -11t116 -37.5t75.5 -75.5 t24.5 -121q0 -76 -46 -128t-128 -79q33 -11 54 -18.5t51 -22t49 -28.5t40.5 -36.5t33.5 -48.5t20 -62t8 -79q0 -75 -25 -132t-66.5 -91.5t-102.5 -56t-124 -29.5t-139 -8q-174 0 -346 86z" />
<glyph unicode="&#x438;" horiz-adv-x="1126" d="M143 0v1024h82v-907l676 907h82v-1024h-82v905l-676 -905h-82z" />
<glyph unicode="&#x439;" horiz-adv-x="1126" d="M143 0v1024h82v-907l676 907h82v-1024h-82v905l-676 -905h-82zM197 1393v41h82v-23q0 -33 4 -54t20 -44t46 -35.5t84 -20.5t132 -8q89 0 149 16t88.5 44.5t39 57.5t10.5 67h82v-41q0 -205 -369 -205q-368 0 -368 205z" />
<glyph unicode="&#x43a;" horiz-adv-x="958" d="M143 0v1024h82v-473h8l570 473h135l-623 -485l621 -539h-123l-580 516h-8v-516h-82z" />
<glyph unicode="&#x43b;" horiz-adv-x="1097" d="M41 84q40 -8 53 -8q52 0 94 44.5t69 123t46 171.5t29 205t14 208.5t4 195.5h604v-1024h-82v963h-450q0 -77 -1 -136t-4.5 -142t-10 -147t-18.5 -139.5t-28.5 -131t-41.5 -110.5t-56.5 -89.5t-74 -56t-93.5 -21.5q-21 0 -41 10z" />
<glyph unicode="&#x43c;" horiz-adv-x="1515" d="M143 0l103 1024h86l426 -954l426 954h86l102 -1024h-82l-86 893l-401 -893h-90l-402 893l-86 -893h-82z" />
<glyph unicode="&#x43d;" horiz-adv-x="1105" d="M143 0v1024h82v-451h656v451h82v-1024h-82v520h-656v-520h-82z" />
<glyph unicode="&#x43e;" horiz-adv-x="1097" d="M92 393v238q0 187 122 300t335 113t335 -113t122 -300v-238q0 -187 -122 -300t-335 -113t-335 113t-122 300zM180 393q0 -158 100 -255t269 -97t269 97t100 255v238q0 157 -100.5 254.5t-268.5 97.5t-268.5 -97t-100.5 -255v-238z" />
<glyph unicode="&#x43f;" horiz-adv-x="1085" d="M143 0v1024h799v-1024h-82v963h-635v-963h-82z" />
<glyph unicode="&#x440;" horiz-adv-x="1101" d="M143 -410v1434h82v-82q163 102 328 102q229 0 343 -138t114 -394q0 -532 -457 -532q-165 0 -328 102v-492h-82zM225 143q174 -102 328 -102q57 0 105 10t98.5 41t85.5 81.5t57.5 137t22.5 201.5t-22.5 201.5t-57.5 137t-85.5 81.5t-98.5 41t-105 10q-165 0 -328 -102 v-738z" />
<glyph unicode="&#x441;" horiz-adv-x="929" d="M92 430v164q0 213 119 331.5t338 118.5q177 0 340 -83l-21 -68q-7 3 -41 17t-46 18.5t-42.5 16t-48 16t-44 11t-50.5 9t-47 2.5q-183 0 -276 -103t-93 -286v-164q0 -185 93.5 -287t275.5 -102q52 0 112.5 15t100.5 30.5t108 44.5l19 -68q-100 -40 -177 -61.5t-163 -21.5 q-218 0 -337.5 117.5t-119.5 332.5z" />
<glyph unicode="&#x442;" horiz-adv-x="901" d="M41 952v72h819v-72h-368v-952h-82v952h-369z" />
<glyph unicode="&#x443;" horiz-adv-x="1011" d="M20 1024h105l436 -977l342 977h88l-350 -961q-91 -252 -131 -344q-37 -87 -94.5 -138.5t-157.5 -51.5q-110 0 -199 47l27 64q85 -41 162 -41q70 0 114.5 32t79.5 117l101 252q-23 4 -46 23.5t-34 42.5z" />
<glyph unicode="&#x444;" horiz-adv-x="1507" d="M92 532q0 118 24.5 210t75.5 160.5t136 105t200 36.5q44 0 78.5 -8t70 -23.5t36.5 -15.5v437h82v-437q3 1 18.5 8t24.5 10.5t27.5 10t33.5 10t37 6t43 2.5q436 0 436 -512q0 -125 -24.5 -223.5t-75.5 -173.5t-136 -115t-200 -40q-93 0 -184 47v-437h-82v437 q-86 -47 -185 -47q-115 0 -200 40t-136 115t-75.5 173.5t-24.5 223.5zM180 532q0 -245 84.5 -368t263.5 -123q91 0 185 51v840q-91 51 -185 51q-174 0 -261 -122.5t-87 -328.5zM795 92q89 -51 184 -51q179 0 263.5 123t84.5 368q0 136 -35.5 235t-115 157.5t-197.5 58.5 q-100 0 -184 -51v-840z" />
<glyph unicode="&#x445;" horiz-adv-x="964" d="M20 0l410 512l-410 512h115l361 -467l344 467h104l-409 -512l409 -512h-115l-356 467l-348 -467h-105z" />
<glyph unicode="&#x446;" horiz-adv-x="1126" d="M143 0v1024h82v-963h615v963h82v-963h122l-18 -389h-63v328h-820z" />
<glyph unicode="&#x447;" horiz-adv-x="1024" d="M123 737v287h82v-307q0 -78 12.5 -129.5t44.5 -88t88 -53t142 -16.5q134 0 307 33v561h82v-1024h-82v401q-192 -32 -307 -32q-190 0 -279.5 86t-89.5 282z" />
<glyph unicode="&#x448;" horiz-adv-x="1515" d="M143 0v1024h82v-963h492v963h82v-963h491v963h82v-1024h-1229z" />
<glyph unicode="&#x449;" horiz-adv-x="1617" d="M143 0v1024h82v-963h533v963h82v-963h491v963h82v-963h123l-14 -389h-68v328h-1311z" />
<glyph unicode="&#x44a;" horiz-adv-x="1093" d="M41 963v61h340v-410h268q172 0 262 -69t90 -234q0 -92 -24.5 -154.5t-74 -96t-109.5 -47t-144 -13.5h-350v963h-258zM381 61h268q154 0 209 56t55 194q0 59 -11 100t-38.5 75t-81 50.5t-133.5 16.5h-268v-492z" />
<glyph unicode="&#x44b;" horiz-adv-x="1280" d="M143 0v1024h82v-410h269q172 0 262 -69t90 -234q0 -92 -24.5 -154.5t-74 -96t-109.5 -47t-144 -13.5h-351zM225 61h269q154 0 209 56t55 194q0 59 -11 100t-38.5 75t-81 50.5t-133.5 16.5h-269v-492zM1051 0v1024h86v-1024h-86z" />
<glyph unicode="&#x44c;" horiz-adv-x="937" d="M143 0v1024h82v-410h269q172 0 262 -69t90 -234q0 -92 -24.5 -154.5t-74 -96t-109.5 -47t-144 -13.5h-351zM225 61h269q154 0 209 56t55 194q0 59 -11 100t-38.5 75t-81 50.5t-133.5 16.5h-269v-492z" />
<glyph unicode="&#x44d;" horiz-adv-x="980" d="M92 63l19 68q64 -28 106 -44.5t102.5 -31t112.5 -14.5q182 0 275.5 102t93.5 287v76h-543v61h543v27q0 183 -93 286t-276 103q-143 0 -319 -90l-21 68q163 83 340 83q219 0 338 -118.5t119 -331.5v-164q0 -215 -119.5 -332.5t-337.5 -117.5q-159 0 -340 83z" />
<glyph unicode="&#x44e;" horiz-adv-x="1511" d="M143 0v1024h82v-461h281v86q0 183 122 289t335 106t334.5 -113t121.5 -300v-238q0 -187 -121.5 -300t-334.5 -113q-215 0 -336 120t-121 336v66h-281v-502h-82zM594 393q0 -158 100.5 -255t268.5 -97t268 97t100 255v238q0 157 -100 254.5t-268 97.5t-268.5 -97 t-100.5 -255v-238z" />
<glyph unicode="&#x44f;" horiz-adv-x="1081" d="M102 0l369 389q-84 0 -145.5 14t-111.5 47t-75.5 94.5t-25.5 151.5q0 328 374 328h451v-1024h-82v389h-291l-348 -389h-115zM201 696q0 -130 67 -187.5t219 -57.5h369v512h-369q-149 0 -217.5 -66.5t-68.5 -200.5z" />
<glyph unicode="&#x451;" horiz-adv-x="1019" d="M92 369v225q0 102 23.5 182.5t72 141t129.5 93.5t191 33q210 0 315 -104.5t105 -304.5v-154h-748v-112q0 -172 92.5 -250t276.5 -78q48 0 109.5 14t108 29.5t128.5 46.5l14 -68q-117 -42 -198 -62.5t-162 -20.5q-225 0 -341 89.5t-116 299.5zM180 532h660v123 q0 160 -84 244t-248 84q-328 0 -328 -369v-82zM303 1194v240h125v-240h-125zM590 1194v240h125v-240h-125z" />
<glyph unicode="&#x2000;" horiz-adv-x="921" />
<glyph unicode="&#x2001;" horiz-adv-x="1843" />
<glyph unicode="&#x2002;" horiz-adv-x="921" />
<glyph unicode="&#x2003;" horiz-adv-x="1843" />
<glyph unicode="&#x2004;" horiz-adv-x="614" />
<glyph unicode="&#x2005;" horiz-adv-x="460" />
<glyph unicode="&#x2006;" horiz-adv-x="307" />
<glyph unicode="&#x2007;" horiz-adv-x="307" />
<glyph unicode="&#x2008;" horiz-adv-x="230" />
<glyph unicode="&#x2009;" horiz-adv-x="368" />
<glyph unicode="&#x200a;" horiz-adv-x="102" />
<glyph unicode="&#x2010;" horiz-adv-x="983" d="M184 635v82h615v-82h-615z" />
<glyph unicode="&#x2011;" horiz-adv-x="983" d="M184 635v82h615v-82h-615z" />
<glyph unicode="&#x2012;" horiz-adv-x="983" d="M184 635v82h615v-82h-615z" />
<glyph unicode="&#x2013;" horiz-adv-x="1392" d="M184 676v82h1024v-82h-1024z" />
<glyph unicode="&#x2014;" horiz-adv-x="1945" d="M184 676v82h1577v-82h-1577z" />
<glyph unicode="&#x2018;" horiz-adv-x="493" d="M172 1008v131q0 82 17 164t32.5 123.5t44.5 109.5l43 -12q-71 -170 -71 -303h59v-213h-125z" />
<glyph unicode="&#x2019;" horiz-adv-x="493" d="M172 918q72 173 72 303h-60v213h125v-131q0 -82 -17 -164t-32.5 -124.5t-44.5 -109.5z" />
<glyph unicode="&#x201a;" horiz-adv-x="493" d="M172 -303q72 173 72 303h-60v213h125v-131q0 -82 -17 -164t-32.5 -123.5t-44.5 -109.5z" />
<glyph unicode="&#x201c;" horiz-adv-x="739" d="M172 1008v131q0 82 17 164t32.5 123.5t44.5 109.5l43 -12q-71 -170 -71 -303h59v-213h-125zM397 1008v131q0 82 17.5 164.5t32.5 123t45 109.5l43 -12q-72 -173 -72 -303h59v-213h-125z" />
<glyph unicode="&#x201d;" horiz-adv-x="739" d="M172 918q72 173 72 303h-60v213h125v-131q0 -82 -17 -164t-32.5 -124.5t-44.5 -109.5zM397 918q72 173 72 303h-59v213h125v-131q0 -82 -17.5 -164.5t-33 -123.5t-44.5 -110z" />
<glyph unicode="&#x201e;" horiz-adv-x="739" d="M172 -303q72 173 72 303h-60v213h125v-131q0 -82 -17 -164t-32.5 -123.5t-44.5 -109.5zM397 -303q72 173 72 303h-59v213h125v-131q0 -82 -17.5 -164.5t-32.5 -123t-45 -109.5z" />
<glyph unicode="&#x2022;" horiz-adv-x="673" d="M184 602q0 154 152 154q153 0 153 -154q0 -151 -153 -151q-152 0 -152 151z" />
<glyph unicode="&#x2026;" horiz-adv-x="1112" d="M184 0v213h125v-213h-125zM494 0v213h124v-213h-124zM803 0v213h125v-213h-125z" />
<glyph unicode="&#x202f;" horiz-adv-x="368" />
<glyph unicode="&#x205f;" horiz-adv-x="460" />
<glyph unicode="&#x20ac;" horiz-adv-x="1384" d="M184 635h103v184h-82l-21 62h103v30q0 282 133 412.5t399 130.5q172 0 377 -88l-22 -63q-211 90 -355 90q-232 0 -341 -120t-109 -362v-30h727l-13 -62h-714v-184h682l-13 -62h-669v-51q0 -221 113 -351t337 -130q58 0 119 13t103.5 27.5t134.5 49.5l24 -68 q-116 -44 -201 -63.5t-180 -19.5q-262 0 -397 141.5t-135 400.5v51h-82z" />
<glyph unicode="&#x2122;" horiz-adv-x="1742" d="M127 1376v58h491v-58h-215v-657h-61v657h-215zM719 719l63 715h82l275 -652l274 652h84l62 -715h-62l-55 631l-260 -631h-86l-260 631l-54 -631h-63z" />
<glyph unicode="&#x25fc;" horiz-adv-x="1024" d="M0 0v1024h1024v-1024h-1024z" />
</font>
</defs>
</svg>
