<?xml version="1.0" standalone="no"?>
<!DOCTYPE svg PUBLIC "-//W3C//DTD SVG 1.1//EN" "http://www.w3.org/Graphics/SVG/1.1/DTD/svg11.dtd" >
<svg xmlns="http://www.w3.org/2000/svg">
<metadata></metadata>
<defs>
<font id="ekibastuz_rgbold" horiz-adv-x="1347" >
<font-face units-per-em="2048" ascent="1638" descent="-410" />
<missing-glyph horiz-adv-x="532" />
<glyph horiz-adv-x="0" />
<glyph horiz-adv-x="682" />
<glyph unicode=" "  horiz-adv-x="532" />
<glyph unicode="&#x09;" horiz-adv-x="532" />
<glyph unicode="&#xa0;" horiz-adv-x="532" />
<glyph unicode="!" horiz-adv-x="524" d="M137 0v274h248v-274h-248zM139 1434h246l-33 -1031h-180z" />
<glyph unicode="&#x22;" horiz-adv-x="845" d="M154 1434h215l-21 -471h-174zM477 1434h215l-20 -471h-174z" />
<glyph unicode="#" horiz-adv-x="1378" d="M160 313v172h135l90 463h-225v172h258l61 314h201l-62 -314h302l61 314h201l-62 -314h97v-172h-132l-90 -463h222v-172h-254l-62 -313h-199l60 313h-301l-62 -313h-198l59 313h-100zM494 485h303l90 463h-303z" />
<glyph unicode="$" horiz-adv-x="1249" d="M94 61l31 170q161 -70 432 -77v444q-76 15 -138 34t-124.5 51.5t-104 74t-68 103.5t-26.5 138q0 93 36.5 164.5t101 115.5t145.5 67t178 26v123h143v-123q191 -5 422 -76l-32 -163q-203 70 -390 75v-432q84 -17 146 -36.5t123.5 -53.5t100.5 -79t63 -113.5t24 -155.5 q0 -86 -37 -153.5t-101 -110t-145 -66t-174 -26.5v-146h-143v144q-125 2 -251.5 21.5t-211.5 59.5zM289 1001q0 -46 21.5 -80.5t62.5 -56.5t79 -35t92 -27q3 0 4.5 -0.5t4 -1t4.5 -1.5v407q-140 -6 -204 -65t-64 -140zM700 154q74 3 127.5 21t80 40t41.5 52.5t17.5 48.5 t2.5 38q0 32 -6.5 57.5t-15.5 44t-27.5 34t-33 24.5t-42 19t-44 15t-50 13.5t-50.5 13.5v-421z" />
<glyph unicode="%" horiz-adv-x="1861" d="M160 997v154q0 140 81.5 221.5t233.5 81.5q154 0 236 -81.5t82 -221.5v-154q0 -138 -82 -218.5t-236 -80.5q-153 0 -234 80.5t-81 218.5zM332 1026q0 -195 143 -195t143 185v110q0 39 -6.5 71t-22 61t-44.5 45t-70 16q-74 0 -108.5 -51t-34.5 -131v-111zM420 0l817 1434 h201l-813 -1434h-205zM1071 279v153q0 140 81 221.5t234 81.5t234.5 -81t81.5 -222v-153q0 -138 -81.5 -218.5t-234.5 -80.5q-154 0 -234.5 80t-80.5 219zM1243 297q0 -184 143 -184q142 0 142 184v121q0 81 -33 132.5t-109 51.5q-143 0 -143 -205v-100z" />
<glyph unicode="&#x26;" horiz-adv-x="1601" d="M154 381q0 94 22.5 167.5t65 124.5t89.5 84.5t111 63.5q-39 50 -62.5 85.5t-46 94t-22.5 113.5q0 111 59.5 189t159.5 114.5t232 36.5q194 0 383 -92l-43 -168q-181 88 -293 88q-46 0 -79 -2t-74.5 -11.5t-67.5 -27t-44 -50t-18 -77.5q0 -105 105 -233l444 -539 q78 107 109 270l190 -24q-11 -104 -67 -208t-121 -163l184 -217h-237l-93 109q-67 -61 -156.5 -95t-228.5 -34q-78 0 -149 13.5t-136 44t-112.5 75.5t-75.5 114t-28 154zM371 381q0 -124 84.5 -196t210.5 -72q73 0 152 28t130 76l-403 485q-22 -12 -47 -34t-56 -60 t-51 -97.5t-20 -129.5z" />
<glyph unicode="'" horiz-adv-x="534" d="M160 1434h215l-21 -471h-174z" />
<glyph unicode="(" horiz-adv-x="862" d="M166 666q0 117 20.5 235.5t49.5 212t74.5 196t81.5 170t85 150.5l197 -24q-291 -464 -291 -940q0 -71 7.5 -142.5t18 -131.5t29 -124.5t34.5 -112.5t40.5 -104t40.5 -90t41.5 -79.5t36 -64t31.5 -52t22 -35.5l-203 -25q-49 80 -87 147.5t-83.5 168t-74.5 194.5t-49.5 213 t-20.5 238z" />
<glyph unicode=")" horiz-adv-x="862" d="M166 -270q25 39 37 57.5t48.5 83.5t59.5 115.5t56 136t52 163.5t33.5 179t14.5 201q0 472 -293 940l199 24q49 -83 85 -150.5t81.5 -170t74.5 -196t49.5 -212t20.5 -235.5q0 -147 -28 -288.5t-80.5 -267.5t-98.5 -213.5t-110 -191.5z" />
<glyph unicode="*" horiz-adv-x="1421" d="M160 766l389 197l-389 196l82 160l395 -240l-16 437h180l-15 -437l394 240l82 -160l-390 -196l390 -197l-82 -160l-394 240l15 -436h-180l16 434l-395 -238z" />
<glyph unicode="+" horiz-adv-x="1343" d="M160 629v174h415v416h193v-416h416v-174h-416v-416h-193v416h-415z" />
<glyph unicode="," horiz-adv-x="555" d="M154 0v274h247v-168q0 -121 -46.5 -229.5t-112.5 -191.5l-80 36q82 138 82 279h-90z" />
<glyph unicode="-" horiz-adv-x="933" d="M160 580v174h614v-174h-614z" />
<glyph unicode="." horiz-adv-x="555" d="M154 0v274h247v-274h-247z" />
<glyph unicode="/" horiz-adv-x="1189" d="M129 -160l713 1624h219l-715 -1624h-217z" />
<glyph unicode="0" d="M84 578v272q0 279 157 441.5t433 162.5q277 0 433.5 -162t156.5 -440v-274q0 -277 -156 -437.5t-434 -160.5t-434 159t-156 439zM307 571q0 -192 94 -298.5t273 -106.5t272.5 106.5t93.5 298.5v289q0 186 -94.5 297t-271.5 111t-272 -111t-95 -295v-291z" />
<glyph unicode="1" d="M313 915l529 519h192v-1434h-217v1171l-436 -436z" />
<glyph unicode="2" d="M143 0v74q0 102 12.5 182t45 143t62 105t92 87.5t103.5 70t126 71.5q22 12 75.5 39.5t88.5 46.5t82.5 50t76 59t49.5 65.5t21 75.5q0 95 -87 152t-241 57q-81 0 -219 -29.5t-227 -64.5l-33 172q90 35 227 66.5t262 31.5q120 0 214.5 -20t167.5 -62t112 -113.5t39 -168.5 q0 -50 -14.5 -97t-33 -82t-56.5 -74t-64 -62t-79 -56.5t-77 -47t-82.5 -44.5t-72.5 -39q-18 -10 -52.5 -28.5t-53 -28.5t-49 -28t-47 -31t-41 -33.5t-38 -38.5t-29.5 -43.5t-24 -51.5t-13.5 -58.5t-5.5 -68.5h842v-178h-1059z" />
<glyph unicode="3" d="M129 43l51 174q231 -63 412 -63q88 0 157 11.5t127.5 38t90.5 77t32 122.5q0 55 -17 99t-41.5 71.5t-65.5 47.5t-73.5 29.5t-81 15t-74 6t-66.5 0.5h-170l-27 162h221q81 0 151 26t116.5 82t46.5 131q0 106 -83 156.5t-231 50.5q-92 0 -220 -14.5t-187 -38.5l-41 168 q68 23 190 41t254 18q533 0 533 -340q0 -119 -78 -205t-199 -118q64 -18 113 -38t97.5 -53t80 -74.5t51 -103t19.5 -137.5q0 -96 -33.5 -168t-89.5 -116.5t-140 -72t-173.5 -38t-200.5 -10.5q-115 0 -263.5 24t-187.5 39z" />
<glyph unicode="4" d="M121 393v162l710 879h240v-871h156l-29 -170h-127v-393h-217v393h-733zM332 563h520v649z" />
<glyph unicode="5" d="M129 57l29 183q88 -24 234.5 -51t264.5 -27q83 0 141 13t104.5 45t69.5 92t23 149q0 260 -299 260q-105 0 -243.5 -18t-237.5 -39l70 770h886l-14 -170h-690l-45 -410q158 49 369 49q89 0 162.5 -22t135 -70.5t96 -137t34.5 -210.5q0 -111 -28 -195.5t-76 -138.5 t-119.5 -88t-150 -47.5t-175.5 -13.5q-147 0 -319 29t-222 48z" />
<glyph unicode="6" d="M104 561v295q0 127 34 229.5t90.5 170t133.5 113t160.5 65.5t173.5 20q268 0 486 -70l-41 -159q-65 25 -190.5 43t-233.5 18q-171 0 -281 -102.5t-110 -276.5v-108q178 116 407 116q111 0 200 -24.5t160.5 -77t110.5 -145t39 -219.5q0 -213 -150 -341t-409 -128 q-580 0 -580 581zM326 537q0 -200 92 -301t256 -101q152 0 249 82.5t97 231.5q0 150 -89 221t-237 71q-94 0 -193.5 -31.5t-174.5 -72.5v-100z" />
<glyph unicode="7" d="M121 1247v187h1104v-131q-80 -61 -156.5 -143t-155 -203t-136.5 -259.5t-95 -320.5t-37 -377h-225q0 184 35 358.5t89 307.5t126.5 250.5t140.5 195.5t137 135h-827z" />
<glyph unicode="8" d="M84 391q0 70 24 128t59.5 95.5t91 69t103 49t111.5 35.5q-328 104 -328 336q0 163 140.5 256.5t388.5 93.5t388 -93.5t140 -256.5q0 -242 -358 -336q87 -22 155.5 -50.5t131.5 -72.5t98 -108.5t35 -145.5q0 -111 -41 -191.5t-120.5 -128t-185 -69.5t-243.5 -22t-243.5 22 t-185 69.5t-120.5 128t-41 191.5zM311 406q0 -140 92 -200.5t271 -60.5q178 0 270 60.5t92 200.5q0 28 -7.5 52.5t-23 44.5t-32.5 36.5t-45.5 31t-51 25.5t-58.5 22.5t-59.5 19t-63 19t-60.5 17.5q-73 -19 -125.5 -39.5t-100.5 -51.5t-73 -75.5t-25 -101.5zM354 1092 q0 -42 25.5 -80t57.5 -62.5t86.5 -50t84.5 -36.5t80 -27q305 107 305 256q0 91 -83 148.5t-236 57.5t-236.5 -57.5t-83.5 -148.5z" />
<glyph unicode="9" d="M104 985q0 213 150 341t410 128q579 0 579 -582v-294q0 -127 -34 -229.5t-91 -170t-134.5 -113t-161 -65.5t-173.5 -20q-233 0 -485 69l41 162q66 -25 192.5 -44.5t233.5 -19.5q169 0 279 102.5t110 278.5v86q-58 -35 -185 -67.5t-237 -32.5t-198.5 27.5t-155.5 83 t-103.5 147t-36.5 213.5zM326 985q0 -149 91 -221t234 -72q81 0 195 25.5t174 58.5v148q-23 376 -348 376q-152 0 -249 -83t-97 -232z" />
<glyph unicode=":" horiz-adv-x="555" d="M154 0v274h247v-274h-247zM154 754v274h247v-274h-247z" />
<glyph unicode=";" horiz-adv-x="555" d="M154 0v274h247v-168q0 -121 -46.5 -229.5t-112.5 -191.5l-80 36q82 138 82 279h-90zM154 754v274h247v-274h-247z" />
<glyph unicode="&#x3c;" horiz-adv-x="1288" d="M160 451v127l934 444v-180l-699 -326l699 -330v-178z" />
<glyph unicode="=" horiz-adv-x="1343" d="M160 467v162h1024v-162h-1024zM160 803v162h1024v-162h-1024z" />
<glyph unicode="&#x3e;" horiz-adv-x="1288" d="M160 8v178l698 330l-698 326v180l934 -444v-127z" />
<glyph unicode="?" horiz-adv-x="1120" d="M104 1413q36 10 147.5 25.5t190.5 15.5q102 0 190 -18.5t164.5 -59.5t120.5 -116t44 -177q0 -52 -8 -97t-19.5 -77t-33 -61.5t-38.5 -47t-47 -37.5t-47.5 -29t-51.5 -26l-48 -24q-30 -16 -47 -27.5t-39 -31t-32.5 -44t-10.5 -55.5v-143h-193v156q0 94 51.5 151t149.5 105 q47 23 76 41.5t60 47t45.5 67t14.5 87.5q0 63 -14 105.5t-36 66.5t-64 37t-81.5 16t-105.5 3q-63 0 -170 -14t-145 -25zM317 0v274h248v-274h-248z" />
<glyph unicode="@" horiz-adv-x="2283" d="M154 510q0 247 66.5 428.5t195.5 294.5t309 167t418 54q249 0 430.5 -46.5t307 -146t187.5 -258t62 -380.5q0 -301 -152.5 -462t-441.5 -161h-166v96q-173 -116 -305 -116q-197 0 -298 127t-101 380q0 277 121 417t356 140q60 0 130.5 -7.5t106.5 -13t108 -20t73 -14.5 v-862q59 2 105.5 14t93.5 45t77.5 86.5t50 142.5t19.5 208q0 192 -39.5 318.5t-132 206t-234.5 113t-358 33.5q-388 0 -577 -186.5t-189 -597.5q0 -219 46 -369t144 -241t237.5 -130.5t338.5 -39.5q237 0 462 54t394 122l43 -148q-171 -77 -408 -135.5t-491 -58.5 q-240 0 -418.5 50.5t-308.5 161t-196 294t-66 440.5zM870 494q0 -92 14.5 -160.5t37.5 -109.5t57.5 -65.5t69 -33t77.5 -8.5q96 0 230 84v684q-2 1 -20.5 5.5t-24 5.5t-23 5t-29 5t-29.5 3t-37 3t-40 1q-37 0 -68.5 -6.5t-65 -22.5t-59 -46.5t-46.5 -75.5t-32.5 -113 t-11.5 -155z" />
<glyph unicode="A" horiz-adv-x="1335" d="M51 0l484 1434h270l479 -1434h-229l-123 389h-529l-122 -389h-230zM446 559h443l-217 678z" />
<glyph unicode="B" horiz-adv-x="1212" d="M160 0v1434h534q167 0 263 -82.5t96 -259.5q0 -119 -44.5 -196.5t-125.5 -107.5q239 -86 239 -372q0 -98 -20.5 -170.5t-69.5 -129.5t-137 -86.5t-215 -29.5h-520zM377 158h254q137 0 206.5 59.5t69.5 204.5q0 72 -24.5 123.5t-66 78.5t-87 38.5t-98.5 11.5h-254v-516z M377 831h268q35 0 67 11.5t61.5 37.5t47 75.5t17.5 117.5q0 96 -49.5 149.5t-143.5 53.5h-268v-445z" />
<glyph unicode="C" horiz-adv-x="1144" d="M90 557v320q0 283 148.5 430t435.5 147q187 0 381 -78l-43 -153q-186 71 -338 71q-186 0 -274.5 -110t-88.5 -310v-317q0 -90 20 -164t62 -132t113.5 -90t167.5 -32q121 0 344 72l37 -154q-224 -77 -381 -77q-287 0 -435.5 146.5t-148.5 430.5z" />
<glyph unicode="D" horiz-adv-x="1398" d="M160 0v1434h487q133 0 231 -18.5t182.5 -66.5t137 -128t82 -206t29.5 -298t-29.5 -298t-82.5 -206t-137.5 -128t-182.5 -66.5t-230 -18.5h-487zM377 156h270q78 0 137 11.5t119 47t98 95.5t62 163t24 244q0 103 -12.5 186t-33 141t-53.5 100.5t-68.5 68t-82.5 40.5 t-91 20t-99 5h-270v-1122z" />
<glyph unicode="E" horiz-adv-x="1136" d="M160 0v1434h887v-166h-670v-424h575v-162h-575v-516h670v-166h-887z" />
<glyph unicode="F" horiz-adv-x="1130" d="M160 0v1434h887v-166h-670v-471h575v-166h-575v-631h-217z" />
<glyph unicode="G" horiz-adv-x="1253" d="M90 549v332q0 283 150.5 428t447.5 145q245 0 445 -63l-43 -162q-165 55 -381 55q-210 0 -304 -105.5t-94 -314.5v-325q0 -408 377 -408q125 0 258 37v428l-276 12v162h493v-709q-221 -81 -475 -81q-298 0 -448 143t-150 426z" />
<glyph unicode="H" horiz-adv-x="1460" d="M160 0v1434h217v-578h706v578h217v-1434h-217v690h-706v-690h-217z" />
<glyph unicode="I" horiz-adv-x="794" d="M61 1288v146h666v-146h-225v-1143h231v-145h-665v145h217v1143h-224z" />
<glyph unicode="J" horiz-adv-x="995" d="M27 37l34 166q50 -26 117 -48t119 -22q80 0 139 19t93.5 49.5t55 76t27 89.5t6.5 100v967h218v-965q0 -88 -13 -157.5t-47.5 -133.5t-90.5 -106t-144.5 -67t-206.5 -25q-179 0 -307 57z" />
<glyph unicode="K" horiz-adv-x="1292" d="M160 0v1434h217v-629h26l596 629h265l-650 -658l656 -776h-254l-610 725h-29v-725h-217z" />
<glyph unicode="L" horiz-adv-x="1171" d="M160 0v1434h217v-1268h710v-166h-927z" />
<glyph unicode="M" horiz-adv-x="1878" d="M119 0l121 1434h254l446 -1237l442 1237h256l121 -1434h-211l-78 1153l-419 -1153h-226l-417 1153l-78 -1153h-211z" />
<glyph unicode="N" horiz-adv-x="1556" d="M160 0v1434h229l801 -1127v1127h207v-1434h-226l-806 1133v-1133h-205z" />
<glyph unicode="O" horiz-adv-x="1449" d="M90 545v338q0 255 168 413t467 158t467 -158t168 -413v-338q0 -255 -167 -410t-468 -155t-468 155t-167 410zM313 530q0 -186 108.5 -286.5t303.5 -100.5q203 0 307.5 99t104.5 288v371q0 178 -106.5 283.5t-305.5 105.5q-188 0 -300 -103.5t-112 -285.5v-371z" />
<glyph unicode="P" horiz-adv-x="1236" d="M160 0v1434h465q139 0 233.5 -21.5t161 -74t97 -141t30.5 -220.5q0 -261 -124.5 -372t-397.5 -111h-248v-494h-217zM377 649h248q51 0 92 7.5t81.5 29t67.5 57t43.5 95t16.5 139.5q0 164 -76 232.5t-225 68.5h-248v-629z" />
<glyph unicode="Q" horiz-adv-x="1449" d="M90 545v338q0 255 168 413t467 158t467 -158t168 -413v-338q0 -172 -77 -300.5t-224 -197.5l180 -399h-209l-153 344q-70 -12 -152 -12q-301 0 -468 155t-167 410zM313 541q0 -189 109.5 -298.5t302.5 -109.5q32 0 82 4l-203 461h209l170 -393q154 108 154 338v368 q0 178 -106.5 283.5t-305.5 105.5q-188 0 -300 -103.5t-112 -285.5v-370z" />
<glyph unicode="R" horiz-adv-x="1304" d="M160 0v1434h499q277 0 400 -103t123 -338q0 -188 -86 -299t-219 -116l405 -578h-246l-381 573h-278v-573h-217zM377 729h289q74 0 125 11.5t91.5 40t59.5 81t19 131.5q0 154 -74 219.5t-221 65.5h-289v-549z" />
<glyph unicode="S" horiz-adv-x="1249" d="M94 72l31 164q103 -42 243 -68.5t257 -26.5q61 0 111 10t82 25.5t55.5 38t35.5 42.5t19 43.5t8.5 37t1.5 27.5q0 93 -42 138t-157 83q-44 14 -112.5 34t-115 33t-106.5 35.5t-100.5 44t-83 55t-68 72.5t-41.5 93.5t-16 119.5q0 98 42 172.5t116.5 119t169.5 67t209 22.5 q235 0 489 -82l-32 -168q-250 88 -457 88q-86 0 -149.5 -17.5t-98 -47.5t-50.5 -64.5t-16 -75.5q0 -133 179 -206q57 -23 127.5 -46t122.5 -38.5t110.5 -36t100.5 -41t81.5 -52t64 -70t39.5 -94.5t15 -126q0 -102 -41.5 -179.5t-115.5 -124t-169 -70t-208 -23.5 q-135 0 -284.5 22.5t-246.5 69.5z" />
<glyph unicode="T" horiz-adv-x="1142" d="M49 1262v172h1045v-172h-414v-1262h-217v1262h-414z" />
<glyph unicode="U" horiz-adv-x="1337" d="M131 512v922h217v-947q0 -346 346 -346q163 0 237.5 83t74.5 263v947h200v-922q0 -532 -518 -532q-280 0 -418.5 136t-138.5 396z" />
<glyph unicode="V" horiz-adv-x="1267" d="M20 1434h232l375 -1268h22l369 1268h229l-463 -1434h-305z" />
<glyph unicode="W" horiz-adv-x="2019" d="M20 1434h230l293 -1241l352 1241h213l356 -1239l291 1239h244l-404 -1434h-245l-355 1186l-346 -1186h-246z" />
<glyph unicode="X" horiz-adv-x="1294" d="M20 0l496 717l-496 717h269l385 -586l340 586h260l-498 -717l498 -717h-268l-383 582l-342 -582h-261z" />
<glyph unicode="Y" horiz-adv-x="1255" d="M20 1434h246l373 -754l356 754h240l-498 -899v-535h-217v535z" />
<glyph unicode="Z" horiz-adv-x="1241" d="M84 0v154l805 1106h-791v174h1047v-154l-799 -1106h811v-174h-1073z" />
<glyph unicode="[" horiz-adv-x="815" d="M160 -287v1925h495v-176h-278v-1573h278v-176h-495z" />
<glyph unicode="\" horiz-adv-x="1189" d="M135 1479h219l723 -1706h-217z" />
<glyph unicode="]" horiz-adv-x="815" d="M160 -111h278v1573h-278v176h495v-1925h-495v176z" />
<glyph unicode="^" horiz-adv-x="1415" d="M160 584l458 852h177l460 -852h-208l-336 649l-344 -649h-207z" />
<glyph unicode="_" horiz-adv-x="1024" d="M0 -72h1024v-180h-1024v180z" />
<glyph unicode="`" horiz-adv-x="567" d="M139 1534h219l56 -383l-144 -25z" />
<glyph unicode="a" horiz-adv-x="1083" d="M82 291q0 143 101 212.5t280 69.5h291v134q0 105 -50 152.5t-163 47.5q-93 0 -198.5 -18t-174.5 -41l-27 133q181 63 408 63q120 0 201.5 -25t126.5 -75t63 -114.5t18 -155.5v-674h-204v76q-54 -39 -138 -69t-182 -30q-180 0 -266 78.5t-86 235.5zM293 293q0 -92 52 -133 t169 -41q89 0 240 71v252h-246q-106 0 -160.5 -44.5t-54.5 -104.5z" />
<glyph unicode="b" horiz-adv-x="1153" d="M125 0v1434h205v-486q150 94 311 94q227 0 330.5 -134.5t103.5 -395.5q0 -272 -102 -399t-332 -127q-149 0 -311 90v-76h-205zM330 193q111 -72 239 -72q297 0 297 391q0 385 -297 385q-112 0 -239 -72v-632z" />
<glyph unicode="c" horiz-adv-x="948" d="M82 432v158q0 212 133 333t358 121q77 0 172 -20t168 -53l-32 -150q-169 72 -275 72q-307 0 -307 -315v-134q0 -315 307 -315q46 0 97 11.5t83 23t97 37.5l30 -148q-142 -73 -340 -73q-227 0 -359 116t-132 336z" />
<glyph unicode="d" horiz-adv-x="1187" d="M113 512q0 268 106.5 400t339.5 132q164 0 299 -96v486h205v-1434h-205v76q-28 -18 -49 -29t-62 -29.5t-90 -28t-102 -9.5q-208 0 -325 133.5t-117 398.5zM322 512q0 -93 16.5 -162.5t43.5 -111t66.5 -67.5t79 -35t88.5 -9q122 0 242 72v626q-132 72 -242 72 q-49 0 -88.5 -8.5t-79.5 -33.5t-66.5 -66.5t-43 -111.5t-16.5 -165z" />
<glyph unicode="e" horiz-adv-x="1083" d="M82 381v197q0 466 465 466q213 0 336 -100t123 -309v-176h-713v-88q0 -73 20 -121t61.5 -73.5t93 -35.5t126.5 -10q146 0 367 70l22 -152q-220 -69 -408 -69q-87 0 -158 11.5t-134.5 40t-107 73.5t-68.5 115t-25 161zM293 580h518v75q0 130 -66 189t-198 59 q-133 0 -193.5 -64.5t-60.5 -211.5v-47z" />
<glyph unicode="f" horiz-adv-x="827" d="M41 877v147h186v82q0 430 359 430q176 0 319 -41l-28 -139q-139 33 -240 33q-54 0 -90.5 -14t-59.5 -39.5t-35 -72.5t-16 -101t-4 -138h354v-147h-354v-877h-205v877h-186z" />
<glyph unicode="g" horiz-adv-x="1155" d="M92 -82q0 195 187 279q-60 56 -60 127q0 82 62 137q-140 81 -140 258q0 325 461 325q188 0 291 -65q10 47 10 147h207q-2 -80 -28.5 -134.5t-90.5 -78.5q74 -71 74 -194q0 -75 -24.5 -130.5t-65 -89t-102 -54t-126 -28t-145.5 -7.5q-118 0 -176 12q-9 -14 -17 -43t-8 -53 q0 -19 9.5 -47.5t21.5 -45.5q54 11 170 11q93 0 166 -8.5t139.5 -30.5t110.5 -58t70 -94t26 -135q0 -78 -25.5 -136t-69.5 -94.5t-111 -58.5t-140 -30.5t-166 -8.5t-165.5 8.5t-139 30.5t-110.5 58.5t-69.5 94.5t-25.5 136zM295 -82q0 -45 13 -78.5t45.5 -62t95 -43.5 t153.5 -15q92 0 155 14.5t95.5 43t45.5 62t13 79.5q0 52 -12.5 86t-46.5 60t-95 37.5t-155 11.5q-156 0 -231.5 -47t-75.5 -148zM344 719q0 -102 53.5 -143t204.5 -41q145 0 201.5 41.5t56.5 142.5q0 199 -258 199q-145 0 -201.5 -51.5t-56.5 -147.5z" />
<glyph unicode="h" horiz-adv-x="1179" d="M125 0v1434h205v-516q58 47 150 86.5t210 39.5q72 0 123 -7t99.5 -28.5t78 -59t47 -100t17.5 -149.5v-700h-205v672q0 120 -50.5 172.5t-178.5 52.5q-75 0 -157.5 -35.5t-133.5 -79.5v-782h-205z" />
<glyph unicode="i" horiz-adv-x="454" d="M125 0v1024h205v-1024h-205zM125 1194v240h205v-240h-205z" />
<glyph unicode="j" horiz-adv-x="454" d="M-229 -389l32 147q108 -32 154 -32q168 0 168 204v1094h205v-1114q0 -340 -330 -340q-63 0 -135 14t-94 27zM125 1194v240h205v-240h-205z" />
<glyph unicode="k" horiz-adv-x="1052" d="M125 0v1434h205v-848h28l424 438h254l-501 -489l501 -535h-241l-437 487h-28v-487h-205z" />
<glyph unicode="l" horiz-adv-x="454" d="M125 0v1536h205v-1536h-205z" />
<glyph unicode="m" horiz-adv-x="1638" d="M125 0v1024h199v-141q68 55 165.5 108t165.5 53q58 0 101.5 -13.5t71 -40t44 -53t29.5 -63.5q71 65 177.5 117.5t178.5 52.5q149 0 202.5 -73.5t53.5 -235.5v-735h-198v709q0 93 -28.5 134.5t-108.5 41.5q-49 0 -127.5 -32.5t-128.5 -72.5v-780h-199v709 q0 89 -35.5 132.5t-116.5 43.5q-52 0 -127 -34t-120 -77v-774h-199z" />
<glyph unicode="n" horiz-adv-x="1179" d="M125 0v1024h205v-106q206 126 391 126q182 0 258 -88.5t76 -277.5v-678h-205v664q0 129 -50 181t-179 52q-78 0 -160 -35.5t-131 -79.5v-782h-205z" />
<glyph unicode="o" horiz-adv-x="1142" d="M76 403v215q0 200 129 313t364 113q234 0 366 -113.5t132 -312.5v-215q0 -198 -132 -310.5t-366 -112.5q-235 0 -364 112t-129 311zM281 387q0 -131 73 -200.5t215 -69.5q141 0 215 70t74 200v264q0 254 -289 254q-138 0 -213 -65.5t-75 -188.5v-264z" />
<glyph unicode="p" horiz-adv-x="1159" d="M125 -410v1434h205v-76q159 101 317 101q428 0 428 -537q0 -266 -103 -396t-325 -130q-70 0 -138 17.5t-98 31.5t-81 41v-486h-205zM330 199q137 -72 248 -72q46 1 84.5 10t77.5 35t65.5 67.5t43.5 111t17 161.5q0 114 -25 193.5t-70 119.5t-94.5 56t-111.5 16 q-124 0 -235 -72v-626z" />
<glyph unicode="q" horiz-adv-x="1159" d="M82 512q0 264 109.5 398t359.5 134q233 0 483 -63v-1391h-205v486q-46 -27 -79.5 -44t-99 -36t-128.5 -19q-231 0 -335.5 136t-104.5 399zM293 512q0 -94 17.5 -164.5t45 -112t68.5 -66.5t81 -33.5t89 -8.5q48 0 97.5 13.5t74 25.5t63.5 33v655q-98 43 -235 43 q-49 0 -90 -9t-81.5 -35t-68 -67.5t-44.5 -111t-17 -162.5z" />
<glyph unicode="r" horiz-adv-x="778" d="M125 0v1024h205v-184q44 84 128 144t177 60h84l24 -174h-102q-118 0 -214.5 -92t-96.5 -174v-604h-205z" />
<glyph unicode="s" horiz-adv-x="1032" d="M80 45l18 143q266 -67 414 -67q238 0 238 123q0 95 -109 137q-46 17 -117 35t-126.5 29.5t-117 36t-102 55.5t-67.5 86.5t-27 130.5q0 103 59.5 169.5t156 93.5t230.5 27q179 0 388 -63l-29 -141q-202 63 -361 63q-128 0 -183.5 -44t-55.5 -105q0 -45 26.5 -78t71.5 -47 q46 -15 121 -32t129.5 -28.5t118 -36.5t104 -56.5t67.5 -86.5t27 -129q0 -70 -21.5 -120.5t-57 -81t-92 -48.5t-116 -24t-139.5 -6q-218 0 -448 65z" />
<glyph unicode="t" horiz-adv-x="802" d="M35 883v141h174v260l205 27v-287h348v-141h-348v-553q0 -209 159 -209q27 0 49 1.5t43.5 6t30.5 6.5t32.5 9t27.5 8l30 -129q-114 -43 -251 -43q-169 0 -247.5 76t-78.5 243v584h-174z" />
<glyph unicode="u" horiz-adv-x="1179" d="M125 307v717h205v-664q0 -123 52 -178t150 -55q91 0 179.5 35t138.5 78v784h205v-1024h-205v106q-76 -49 -192 -87.5t-228 -38.5q-153 0 -229 87.5t-76 239.5z" />
<glyph unicode="v" horiz-adv-x="1036" d="M20 1024h228l280 -877h13l274 877h201l-365 -1024h-264z" />
<glyph unicode="w" horiz-adv-x="1650" d="M27 1024h223l186 -844h8l271 844h225l272 -846h9l188 846h213l-279 -1024h-251l-267 856l-268 -856h-252z" />
<glyph unicode="x" horiz-adv-x="1056" d="M20 0l381 537l-381 487h236l305 -414l248 414h227l-383 -528l383 -496h-235l-301 414l-250 -414h-230z" />
<glyph unicode="y" horiz-adv-x="1107" d="M18 1024h228l358 -899l262 899h221l-346 -1014q-56 -163 -139 -307q-30 -52 -65.5 -88.5t-94 -61t-131.5 -24.5q-135 0 -264 55l39 142q122 -45 201 -45q66 0 111.5 28t74.5 98l80 193q-43 3 -88.5 37t-63.5 86z" />
<glyph unicode="z" horiz-adv-x="1021" d="M76 0v106l594 766h-561v152h823v-106l-588 -766h594v-152h-862z" />
<glyph unicode="{" horiz-adv-x="882" d="M160 614v189h69q24 0 47 23t23 67v477q0 268 297 268h127v-188h-115q-42 0 -67 -23.5t-25 -66.5v-506q0 -57 -21.5 -85t-64.5 -54q47 -34 66.5 -82.5t19.5 -147.5v-493q0 -42 25 -66t67 -24h115v-189h-127q-297 0 -297 279v532q0 45 -22.5 67.5t-47.5 22.5h-69z" />
<glyph unicode="|" horiz-adv-x="536" d="M160 -512v2048h217v-2048h-217z" />
<glyph unicode="}" horiz-adv-x="882" d="M160 -98h114q42 0 67.5 24t25.5 66v493q0 99 19.5 147.5t66.5 82.5q-28 17 -43.5 30t-29 41.5t-13.5 67.5v506q0 43 -25.5 66.5t-67.5 23.5h-114v188h127q297 0 297 -268v-477q0 -44 22.5 -67t46.5 -23h70v-189h-70q-25 0 -47 -22.5t-22 -67.5v-532q0 -279 -297 -279 h-127v189z" />
<glyph unicode="~" horiz-adv-x="1419" d="M172 879q150 172 301 172q59 0 119.5 -20t104 -44.5t106 -44.5t125.5 -20q41 0 85 18t79 46t54 46t32 33l94 -158q-11 -16 -24 -32.5t-45 -49t-65 -56t-81 -42t-96 -18.5q-68 0 -133 20t-108 44.5t-100.5 44.5t-113.5 20q-65 0 -141.5 -42.5t-116.5 -80.5z" />
<glyph unicode="&#xa3;" horiz-adv-x="1652" d="M172 125q88 58 176 92v488h-121v137h121v153q0 216 144.5 337.5t373.5 121.5q53 0 110 -6t103 -15t91 -20t74 -19.5t51.5 -16t23.5 -7.5l-47 -147q-3 3 -63 19t-161.5 33t-181.5 17q-57 0 -109 -18t-96 -53.5t-70 -97.5t-26 -142v-139h588v-137h-588v-455q58 8 92 8 q69 0 141.5 -25.5t143 -51t133.5 -25.5q41 0 87 13.5t84 33.5t68 39t52 36t23 17l79 -133q-23 -21 -48 -41t-80.5 -57.5t-123 -60.5t-133.5 -23q-60 0 -124.5 17.5t-111.5 38.5t-114.5 38.5t-134.5 17.5q-92 0 -193 -29.5t-178 -76.5z" />
<glyph unicode="&#xa8;" horiz-adv-x="845" d="M139 1182v270h211v-270h-211zM496 1182v270h211v-270h-211z" />
<glyph unicode="&#xa9;" horiz-adv-x="2183" d="M160 522q0 218 56.5 388.5t169.5 292.5t291.5 186.5t414.5 64.5t414.5 -64.5t291.5 -186.5t169 -292.5t56 -388.5t-56 -388.5t-169 -292.5t-291.5 -186.5t-414.5 -64.5t-414.5 64.5t-291.5 186.5t-169.5 292.5t-56.5 388.5zM338 522q0 -398 192 -593t562 -195 q383 0 568 192.5t185 595.5q0 396 -184 593.5t-569 197.5q-376 0 -565 -199.5t-189 -591.5zM676 438v156q0 235 111.5 347t349.5 112q148 0 299 -52l-33 -133q-145 50 -266 50q-164 0 -230.5 -76t-66.5 -250v-152q0 -162 66 -237.5t231 -75.5q128 0 270 49l29 -131 q-154 -53 -299 -53q-240 0 -350.5 106t-110.5 340z" />
<glyph unicode="&#xab;" horiz-adv-x="1136" d="M160 520l299 441h184l-276 -439l274 -416h-190zM506 520l299 441h184l-276 -439l274 -416h-190z" />
<glyph unicode="&#xad;" horiz-adv-x="933" d="M160 580v174h614v-174h-614z" />
<glyph unicode="&#xae;" horiz-adv-x="1329" d="M156 977q0 237 122.5 357t358.5 120q237 0 359 -120t122 -357t-122 -357t-359 -120q-236 0 -358.5 120t-122.5 357zM274 977q0 -199 91.5 -293t271.5 -94q187 0 275.5 93t88.5 294q0 198 -87.5 292.5t-276.5 94.5q-183 0 -273 -95.5t-90 -291.5zM461 711v538h180 q100 0 148.5 -39.5t48.5 -128.5q0 -80 -35.5 -119.5t-91.5 -41.5l159 -209h-120l-146 209h-43v-209h-100zM561 993h82q47 0 69.5 21t22.5 67t-22.5 65t-69.5 19h-82v-172z" />
<glyph unicode="&#xb4;" horiz-adv-x="567" d="M139 1147l56 389h219l-144 -410z" />
<glyph unicode="&#xbb;" horiz-adv-x="1136" d="M160 961h182l301 -441l-293 -414h-188l272 416zM506 961h182l301 -441l-293 -414h-188l272 416z" />
<glyph unicode="&#x2c6;" horiz-adv-x="890" d="M172 1194l178 311h189l186 -311h-176l-103 225l-100 -225h-174z" />
<glyph unicode="&#x2dc;" horiz-adv-x="983" d="M152 1376q119 97 221 97q39 0 75 -13.5t60 -30t56 -30t63 -13.5q23 0 44 5t40.5 15.5t31.5 18t31 22.5t25 19l53 -100q-32 -40 -95.5 -78.5t-129.5 -38.5q-47 0 -90 21t-83.5 42t-80.5 21q-18 0 -35 -2t-33.5 -7t-27 -8.5t-26.5 -12t-21.5 -11.5t-21.5 -13t-18 -11z" />
<glyph unicode="&#x401;" horiz-adv-x="1148" d="M160 0v1434h887v-166h-670v-424h575v-162h-575v-516h670v-166h-887zM334 1591v271h211v-271h-211zM688 1591v271h213v-271h-213z" />
<glyph unicode="&#x410;" horiz-adv-x="1335" d="M51 0l484 1434h270l479 -1434h-229l-123 389h-529l-122 -389h-230zM446 559h443l-217 678z" />
<glyph unicode="&#x411;" horiz-adv-x="1230" d="M160 0v1434h854v-187h-637v-377h317q240 0 340.5 -108.5t100.5 -325.5q0 -98 -19 -171.5t-66 -136t-137 -95.5t-221 -33h-532zM377 174h266q69 0 116.5 10.5t85.5 38.5t56.5 80.5t18.5 132.5t-18.5 132.5t-56.5 80.5t-85.5 38.5t-116.5 10.5h-266v-524z" />
<glyph unicode="&#x412;" horiz-adv-x="1212" d="M160 0v1434h534q167 0 263 -82.5t96 -259.5q0 -119 -44.5 -196.5t-125.5 -107.5q239 -86 239 -372q0 -98 -20.5 -170.5t-69.5 -129.5t-137 -86.5t-215 -29.5h-520zM377 158h254q137 0 206.5 59.5t69.5 204.5q0 72 -24.5 123.5t-66 78.5t-87 38.5t-98.5 11.5h-254v-516z M377 831h268q35 0 67 11.5t61.5 37.5t47 75.5t17.5 117.5q0 96 -49.5 149.5t-143.5 53.5h-268v-445z" />
<glyph unicode="&#x413;" horiz-adv-x="1030" d="M160 0v1434h829v-189h-612v-1245h-217z" />
<glyph unicode="&#x414;" horiz-adv-x="1511" d="M41 166h119q41 56 73 140t52 167t34.5 199.5t21.5 199.5t10.5 208.5t4 185.5t0.5 168h901v-1268h164l-24 -576h-193v410h-946l-18 -410h-199v576zM369 166h671v1089h-483q-1 -87 -1.5 -112t-3 -117.5t-5.5 -134t-10 -129t-16 -137.5t-23.5 -125.5t-32 -127t-42 -107.5 t-54.5 -99z" />
<glyph unicode="&#x415;" horiz-adv-x="1136" d="M160 0v1434h887v-166h-670v-424h575v-162h-575v-516h670v-166h-887z" />
<glyph unicode="&#x416;" horiz-adv-x="1718" d="M29 0l501 774l-501 660h239l451 -629h33v629h217v-629h32l449 629h242l-504 -660l502 -774h-230l-461 741h-30v-741h-217v741h-33l-461 -741h-229z" />
<glyph unicode="&#x417;" horiz-adv-x="1187" d="M90 57l31 168q13 -3 64 -20t93 -29.5t108 -23.5t126 -11q176 0 267 57t91 199q0 56 -14 100.5t-35.5 74t-55.5 51t-66.5 33t-75.5 18.5t-76 8.5t-74 1.5h-188v150h239q121 0 196 58.5t75 172.5q0 225 -271 225q-171 0 -368 -71l-37 157q71 31 181.5 54.5t229.5 23.5 q120 0 205.5 -17t149 -56.5t94.5 -109t31 -171.5q0 -250 -226 -312q79 -21 132 -49t95 -73.5t61.5 -115t19.5 -165.5t-27.5 -167.5t-75.5 -116.5t-123 -72.5t-159.5 -38t-194.5 -10.5q-124 0 -246 28t-176 49z" />
<glyph unicode="&#x418;" horiz-adv-x="1505" d="M160 0v1434h217v-1125l778 1125h191v-1434h-218v1124l-778 -1124h-190z" />
<glyph unicode="&#x419;" horiz-adv-x="1505" d="M160 0v1434h217v-1125l778 1125h191v-1434h-218v1124l-778 -1124h-190zM332 1769v46h166q0 -22 3.5 -39t19 -41t42 -39.5t79 -27t124.5 -11.5t124.5 11t79.5 27t43 39.5t19.5 41t3.5 39.5h168v-46q0 -47 -19 -83.5t-53.5 -60.5t-76 -40.5t-93.5 -25t-98.5 -12t-97.5 -3.5 q-77 0 -144 8.5t-137 31t-111.5 70t-41.5 115.5z" />
<glyph unicode="&#x41a;" horiz-adv-x="1292" d="M160 0v1434h217v-629h26l596 629h265l-650 -658l656 -776h-254l-610 725h-29v-725h-217z" />
<glyph unicode="&#x41b;" horiz-adv-x="1425" d="M35 172q14 -2 65 -2q140 0 201 316.5t61 947.5h904v-1434h-217v1249h-492q-2 -135 -6.5 -247t-16 -247t-29 -240.5t-48 -209.5t-70 -172.5t-97 -110.5t-128.5 -42q-46 0 -94 10z" />
<glyph unicode="&#x41c;" horiz-adv-x="1878" d="M119 0l121 1434h254l446 -1237l442 1237h256l121 -1434h-211l-78 1153l-419 -1153h-226l-417 1153l-78 -1153h-211z" />
<glyph unicode="&#x41d;" horiz-adv-x="1460" d="M160 0v1434h217v-578h706v578h217v-1434h-217v690h-706v-690h-217z" />
<glyph unicode="&#x41e;" horiz-adv-x="1449" d="M90 545v338q0 255 168 413t467 158t467 -158t168 -413v-338q0 -255 -167 -410t-468 -155t-468 155t-167 410zM313 530q0 -186 108.5 -286.5t303.5 -100.5q203 0 307.5 99t104.5 288v371q0 178 -106.5 283.5t-305.5 105.5q-188 0 -300 -103.5t-112 -285.5v-371z" />
<glyph unicode="&#x41f;" horiz-adv-x="1488" d="M160 0v1434h1169v-1434h-217v1255h-735v-1255h-217z" />
<glyph unicode="&#x420;" horiz-adv-x="1236" d="M160 0v1434h465q139 0 233.5 -21.5t161 -74t97 -141t30.5 -220.5q0 -261 -124.5 -372t-397.5 -111h-248v-494h-217zM377 649h248q51 0 92 7.5t81.5 29t67.5 57t43.5 95t16.5 139.5q0 164 -76 232.5t-225 68.5h-248v-629z" />
<glyph unicode="&#x421;" horiz-adv-x="1144" d="M90 557v320q0 283 148.5 430t435.5 147q187 0 381 -78l-43 -153q-186 71 -338 71q-186 0 -274.5 -110t-88.5 -310v-317q0 -90 20 -164t62 -132t113.5 -90t167.5 -32q121 0 344 72l37 -154q-224 -77 -381 -77q-287 0 -435.5 146.5t-148.5 430.5z" />
<glyph unicode="&#x422;" horiz-adv-x="1142" d="M49 1262v172h1045v-172h-414v-1262h-217v1262h-414z" />
<glyph unicode="&#x423;" horiz-adv-x="1251" d="M20 1434h232l387 -983h27l342 983h223l-412 -1108q-130 -346 -399 -346q-90 0 -186.5 17t-155.5 38l43 160q134 -56 262 -56q73 0 122 38.5t87 127.5q-36 6 -81.5 37.5t-68.5 85.5z" />
<glyph unicode="&#x424;" horiz-adv-x="1740" d="M90 698v117q0 263 137.5 391.5t413.5 128.5h121v166h217v-166h121q276 0 413.5 -128.5t137.5 -391.5v-117q0 -518 -551 -518h-121v-180h-217v180h-121q-551 0 -551 518zM311 684q0 -181 80 -265.5t250 -84.5h121v846h-121q-171 0 -250.5 -85.5t-79.5 -265.5v-145z M979 334h121q170 0 250 84.5t80 265.5v145q0 179 -80 266t-250 87h-121v-848z" />
<glyph unicode="&#x425;" horiz-adv-x="1294" d="M20 0l496 717l-496 717h269l385 -586l340 586h260l-498 -717l498 -717h-268l-383 582l-342 -582h-261z" />
<glyph unicode="&#x426;" horiz-adv-x="1536" d="M160 0v1434h217v-1268h688v1268h217v-1268h168l-18 -531h-203v365h-1069z" />
<glyph unicode="&#x427;" horiz-adv-x="1273" d="M119 889v545h217v-533q0 -134 61.5 -182.5t194.5 -48.5q190 0 305 12v752h217v-1434h-217v508q-153 -14 -315 -14q-57 0 -106.5 6t-105 20.5t-98.5 43t-78.5 70.5t-55 107t-19.5 148z" />
<glyph unicode="&#x428;" horiz-adv-x="1888" d="M160 0v1434h217v-1268h459v1268h217v-1268h458v1268h218v-1434h-1569z" />
<glyph unicode="&#x429;" horiz-adv-x="1982" d="M160 0v1434h217v-1268h459v1268h217v-1268h458v1268h218v-1268h163l-18 -531h-199v365h-1515z" />
<glyph unicode="&#x42a;" horiz-adv-x="1388" d="M35 1276l18 158h475v-564q161 23 285 23q254 0 369.5 -108t115.5 -341t-122 -338.5t-400 -105.5h-465v1276h-276zM528 147h248q74 0 126.5 13.5t93 46t60 91.5t19.5 146t-20 146t-60.5 91.5t-92.5 46t-126 13.5q-119 0 -248 -18v-576z" />
<glyph unicode="&#x42b;" horiz-adv-x="1716" d="M160 0h465q278 0 400 105.5t122 338.5q0 227 -113 338t-362 111q-143 0 -295 -23v564h-217v-1434zM377 147v576q129 18 248 18q74 0 126.5 -13.5t93.5 -46t61 -91.5t20 -146q0 -168 -74.5 -232.5t-226.5 -64.5h-248zM1339 0v1434h217v-1434h-217z" />
<glyph unicode="&#x42c;" horiz-adv-x="1236" d="M160 0v1434h217v-564q175 25 266 25q267 0 385.5 -108.5t118.5 -342.5q0 -233 -122 -338.5t-400 -105.5h-465zM377 147h248q152 0 226.5 64.5t74.5 232.5q0 87 -20 146t-61 91.5t-93.5 46t-126.5 13.5q-119 0 -248 -18v-576z" />
<glyph unicode="&#x42d;" horiz-adv-x="1144" d="M55 57l41 166q191 -71 375 -71q88 0 154 27.5t105 71.5t63 109.5t32.5 131.5t8.5 147v45h-549v141h549v29q0 212 -88.5 323t-258.5 111q-81 0 -195 -23t-196 -55l-41 166q64 28 180.5 53t235.5 25q134 0 239 -32.5t183.5 -100.5t120 -180t41.5 -264v-320 q0 -280 -155.5 -428.5t-428.5 -148.5q-120 0 -234 22.5t-182 54.5z" />
<glyph unicode="&#x42e;" horiz-adv-x="1835" d="M160 0v1434h217v-611h239v117q0 234 147 374t417 140q273 0 419 -144.5t146 -400.5v-399q0 -254 -145 -392t-420 -138q-272 0 -418 134t-146 371v191h-239v-676h-217zM831 492q0 -156 92.5 -254.5t256.5 -98.5q165 0 257.5 98.5t92.5 254.5v450q0 156 -92 254t-258 98 q-160 0 -254.5 -99t-94.5 -253v-450z" />
<glyph unicode="&#x42f;" horiz-adv-x="1368" d="M127 991q0 210 128.5 326.5t399.5 116.5h553v-1434h-217v541h-270l-336 -541h-246l369 557q-190 15 -285.5 130t-95.5 304zM354 977q0 -154 76 -218.5t225 -64.5h336v568h-336q-150 0 -225.5 -64.5t-75.5 -220.5z" />
<glyph unicode="&#x430;" horiz-adv-x="1083" d="M82 291q0 143 101 212.5t280 69.5h291v134q0 105 -50 152.5t-163 47.5q-93 0 -198.5 -18t-174.5 -41l-27 133q181 63 408 63q120 0 201.5 -25t126.5 -75t63 -114.5t18 -155.5v-674h-204v76q-54 -39 -138 -69t-182 -30q-180 0 -266 78.5t-86 235.5zM293 293q0 -92 52 -133 t169 -41q89 0 240 71v252h-248q-106 0 -159.5 -44t-53.5 -105z" />
<glyph unicode="&#x431;" horiz-adv-x="1185" d="M104 444v512q0 201 84.5 319t247.5 146l377 64q17 3 34.5 7t35 10t30.5 10.5t31.5 13t27 12.5t28 13.5t24.5 11.5l59 -174q-30 -19 -84.5 -39.5t-93.5 -26.5l-385 -61q-108 -17 -168.5 -102t-60.5 -195v-242q62 252 377 252q97 0 174 -23t136 -70.5t90.5 -128.5 t31.5 -190v-153q0 -199 -125 -316t-373 -117q-249 0 -373.5 122.5t-124.5 344.5zM313 414q0 -135 76 -213t213 -78q134 0 211.5 79.5t77.5 211.5v141q0 130 -77.5 205.5t-211.5 75.5q-133 0 -211 -94.5t-78 -231.5v-96z" />
<glyph unicode="&#x432;" horiz-adv-x="1083" d="M125 0v1024h493q155 0 229.5 -55.5t74.5 -194.5q0 -146 -140 -209q46 -7 82 -20.5t70 -41.5t53 -78t19 -120q0 -92 -25.5 -152.5t-81.5 -94t-129 -46t-182 -12.5h-463zM317 129h254q126 0 182 39.5t56 142.5q0 85 -56 119.5t-186 34.5h-250v-336zM317 590h246 q83 0 122.5 39t39.5 121q0 70 -40 109.5t-122 39.5h-246v-309z" />
<glyph unicode="&#x433;" horiz-adv-x="839" d="M125 0v1024h680v-162h-475v-862h-205z" />
<glyph unicode="&#x434;" horiz-adv-x="1271" d="M41 141h98q49 51 83 139t50.5 170t25.5 204.5t10 189.5t1 180h750v-883h123l-17 -469h-176v328h-756l-16 -328h-176v469zM346 141h508v754h-354q0 -113 -4 -192.5t-18 -185t-47 -200t-85 -176.5z" />
<glyph unicode="&#x435;" horiz-adv-x="1083" d="M82 381v197q0 466 465 466q213 0 336 -100t123 -309v-176h-713v-88q0 -73 20 -121t61.5 -73.5t93 -35.5t126.5 -10q146 0 367 70l22 -152q-220 -69 -408 -69q-87 0 -158 11.5t-134.5 40t-107 73.5t-68.5 115t-25 161zM293 580h518v75q0 130 -66 189t-198 59 q-133 0 -193.5 -64.5t-60.5 -211.5v-47z" />
<glyph unicode="&#x436;" horiz-adv-x="1468" d="M20 0l414 532l-411 492h217l374 -469h23v469h199v-469h20l371 469h221l-406 -492l404 -532h-219l-371 510h-20v-510h-199v510h-23l-378 -510h-216z" />
<glyph unicode="&#x437;" horiz-adv-x="1036" d="M82 55l35 135q26 -13 62 -28t105.5 -33t127.5 -18q166 0 249.5 51t83.5 149q0 95 -71 132.5t-203 37.5h-233v131h219q26 0 50.5 2.5t56 12t54 25.5t38.5 46t16 70q0 69 -67 108t-193 39q-61 0 -143.5 -21.5t-141.5 -47.5l-33 127q160 71 346 71q88 0 153.5 -6.5 t121.5 -23t91.5 -44t55 -70.5t19.5 -101q0 -81 -42.5 -136t-119.5 -79q47 -13 73.5 -22.5t63.5 -31t56.5 -47.5t34 -70.5t14.5 -103.5q0 -77 -26.5 -134.5t-72 -94t-113 -59t-142 -31t-167.5 -8.5q-117 0 -218 25.5t-140 47.5z" />
<glyph unicode="&#x438;" horiz-adv-x="1206" d="M125 0v1024h205v-772l567 772h184v-1024h-204v770l-568 -770h-184z" />
<glyph unicode="&#x439;" horiz-adv-x="1206" d="M125 0v1024h205v-772l567 772h184v-1024h-204v770l-568 -770h-184zM186 1423v41h168v-8q0 -20 0.5 -30.5t5.5 -29t14 -29t27 -24t44 -21t66.5 -12.5t92.5 -5q250 0 250 159h168v-41q0 -241 -418 -241t-418 241z" />
<glyph unicode="&#x43a;" horiz-adv-x="1058" d="M125 0v1024h205v-451h8l444 451h260l-514 -489l514 -535h-247l-457 494h-8v-494h-205z" />
<glyph unicode="&#x43b;" horiz-adv-x="1193" d="M35 158q41 -6 67 -6q64 0 109.5 73.5t69.5 203.5t34.5 275.5t10.5 319.5h743v-1024h-205v889h-362q0 -77 -1 -134t-5 -136t-10.5 -137.5t-19.5 -128t-31 -119.5t-45.5 -99.5t-61.5 -80t-80.5 -49.5t-102.5 -19q-46 0 -90 14z" />
<glyph unicode="&#x43c;" horiz-adv-x="1591" d="M119 0l94 1024h231l353 -877l350 877h231l95 -1024h-187l-67 825l-340 -825h-179l-327 825l-66 -825h-188z" />
<glyph unicode="&#x43d;" horiz-adv-x="1191" d="M125 0v1024h205v-420h532v420h205v-1024h-205v469h-532v-469h-205z" />
<glyph unicode="&#x43e;" horiz-adv-x="1142" d="M76 403v215q0 200 129 313t364 113q234 0 366 -113.5t132 -312.5v-215q0 -198 -132 -310.5t-366 -112.5q-235 0 -364 112t-129 311zM281 387q0 -131 73 -200.5t215 -69.5q141 0 215 70t74 200v264q0 254 -289 254q-138 0 -213 -65.5t-75 -188.5v-264z" />
<glyph unicode="&#x43f;" horiz-adv-x="1177" d="M125 0v1024h928v-1024h-205v883h-518v-883h-205z" />
<glyph unicode="&#x440;" horiz-adv-x="1159" d="M125 -410v1434h205v-76q159 101 317 101q428 0 428 -537q0 -266 -103 -396t-325 -130q-70 0 -138 17.5t-98 31.5t-81 41v-486h-205zM330 199q137 -72 248 -72q46 1 84.5 10t77.5 35t65.5 67.5t43.5 111t17 161.5q0 114 -25 193.5t-70 119.5t-94.5 56t-111.5 16 q-124 0 -235 -72v-626z" />
<glyph unicode="&#x441;" horiz-adv-x="948" d="M82 432v158q0 212 133 333t358 121q77 0 172 -20t168 -53l-32 -150q-169 72 -275 72q-307 0 -307 -315v-134q0 -315 307 -315q68 0 131 17.5t146 54.5l30 -148q-142 -73 -340 -73q-227 0 -359 116t-132 336z" />
<glyph unicode="&#x442;" horiz-adv-x="987" d="M41 862v162h905v-162h-348v-862h-205v862h-352z" />
<glyph unicode="&#x443;" horiz-adv-x="1107" d="M18 1024h228l358 -899l262 899h221l-346 -1014q-56 -163 -139 -307q-30 -52 -65.5 -88.5t-94 -61t-131.5 -24.5q-135 0 -264 55l39 142q122 -45 201 -45q66 0 111.5 28t74.5 98l80 193q-43 3 -88.5 37t-63.5 86z" />
<glyph unicode="&#x444;" horiz-adv-x="1632" d="M76 526q0 120 25 213.5t77.5 162.5t138 105.5t201.5 36.5q78 0 197 -45v435h205v-435q98 45 196 45q440 0 440 -518q0 -100 -15.5 -183t-49.5 -151t-85 -114.5t-124.5 -72t-165.5 -25.5q-53 0 -108.5 14.5t-87.5 30.5v-435h-205v435q-93 -45 -197 -45q-228 0 -335 143 t-107 403zM287 526q0 -411 293 -411q58 0 135 35v722q-4 2 -17.5 8t-19 8.5t-19 7.5t-23.5 7t-25 4t-31 2q-147 0 -220 -102.5t-73 -280.5zM920 150q62 -35 133 -35q295 0 295 411q0 181 -75.5 282t-219.5 101q-67 0 -133 -37v-722z" />
<glyph unicode="&#x445;" horiz-adv-x="1056" d="M20 0l381 537l-381 487h236l305 -414l248 414h227l-383 -528l383 -496h-235l-301 414l-250 -414h-230z" />
<glyph unicode="&#x446;" horiz-adv-x="1224" d="M125 0v1024h205v-883h491v883h205v-883h123l-21 -469h-184v328h-819z" />
<glyph unicode="&#x447;" horiz-adv-x="1110" d="M104 729v295h205v-326q0 -126 48 -178.5t178 -52.5q86 0 245 27v530h205v-1024h-205v354q-177 -28 -295 -28q-197 0 -289 93.5t-92 309.5z" />
<glyph unicode="&#x448;" horiz-adv-x="1626" d="M125 0v1024h199v-883h393v883h192v-883h394v883h198v-1024h-1376z" />
<glyph unicode="&#x449;" horiz-adv-x="1699" d="M125 0v1024h199v-883h393v883h192v-883h394v883h198v-883h123l-18 -469h-187v328h-1294z" />
<glyph unicode="&#x44a;" horiz-adv-x="1214" d="M35 891l12 133h453v-371h219q104 0 175 -13.5t127 -47.5t82.5 -98t26.5 -160q0 -81 -20.5 -140t-56 -96t-91.5 -59t-118 -30.5t-144 -8.5h-405v891h-260zM500 125h213q118 0 163.5 48.5t45.5 160.5q0 96 -46.5 147t-166.5 51h-209v-407z" />
<glyph unicode="&#x44b;" horiz-adv-x="1466" d="M125 0v1024h205v-371h217q83 0 144 -8t114 -29t86 -56.5t51.5 -92t18.5 -133.5q0 -81 -21 -140t-56.5 -96t-92 -59t-119 -30.5t-144.5 -8.5h-403zM330 125h213q117 0 163 48.5t46 160.5q0 96 -46.5 147t-166.5 51h-209v-407zM1133 0v1024h208v-1024h-208z" />
<glyph unicode="&#x44c;" horiz-adv-x="1044" d="M125 0v1024h205v-371h217q83 0 144 -8t114 -29t86 -56.5t51.5 -92t18.5 -133.5q0 -81 -21 -140t-56.5 -96t-92 -59t-119 -30.5t-144.5 -8.5h-403zM330 125h213q117 0 163 48.5t46 160.5q0 96 -46.5 147t-166.5 51h-209v-407z" />
<glyph unicode="&#x44d;" horiz-adv-x="1005" d="M76 57l33 127q63 -24 99.5 -36t90 -23.5t100.5 -11.5q152 0 233 79.5t81 227.5v35h-477v131h477v22q0 147 -80.5 225t-233.5 78q-122 0 -282 -73l-35 129q175 77 356 77q227 0 356.5 -116t129.5 -338v-158q0 -221 -129.5 -336.5t-356.5 -115.5q-184 0 -362 77z" />
<glyph unicode="&#x44e;" horiz-adv-x="1624" d="M125 0v1024h192v-440h238v69q0 184 137.5 287.5t356.5 103.5q227 0 360 -112.5t133 -319.5v-202q0 -207 -133 -318.5t-360 -111.5q-140 0 -250 48t-176 146t-66 232v49h-240v-455h-192zM762 397q0 -127 76.5 -205.5t210.5 -78.5q131 0 207.5 78.5t76.5 205.5v217 q0 135 -74.5 215t-209.5 80q-133 0 -210 -80.5t-77 -214.5v-217z" />
<glyph unicode="&#x44f;" horiz-adv-x="1157" d="M86 0l324 375q-72 2 -125.5 16t-99.5 46.5t-70.5 94t-24.5 150.5q0 177 104.5 259.5t307.5 82.5h530v-1024h-205v362h-215l-290 -362h-236zM307 682q0 -104 53.5 -147t178.5 -43h288v397h-288q-123 0 -177.5 -50t-54.5 -157z" />
<glyph unicode="&#x451;" horiz-adv-x="1083" d="M82 381v197q0 466 465 466q213 0 336 -100t123 -309v-176h-713v-88q0 -73 20 -121t61.5 -73.5t93 -35.5t126.5 -10q146 0 367 70l22 -152q-220 -69 -408 -69q-87 0 -158 11.5t-134.5 40t-107 73.5t-68.5 115t-25 161zM256 1182v270h211v-270h-211zM293 580h518v75 q0 130 -66 189t-198 59q-133 0 -193.5 -64.5t-60.5 -211.5v-47zM612 1182v270h211v-270h-211z" />
<glyph unicode="&#x2000;" horiz-adv-x="931" />
<glyph unicode="&#x2001;" horiz-adv-x="1862" />
<glyph unicode="&#x2002;" horiz-adv-x="931" />
<glyph unicode="&#x2003;" horiz-adv-x="1862" />
<glyph unicode="&#x2004;" horiz-adv-x="620" />
<glyph unicode="&#x2005;" horiz-adv-x="465" />
<glyph unicode="&#x2006;" horiz-adv-x="310" />
<glyph unicode="&#x2007;" horiz-adv-x="310" />
<glyph unicode="&#x2008;" horiz-adv-x="232" />
<glyph unicode="&#x2009;" horiz-adv-x="372" />
<glyph unicode="&#x200a;" horiz-adv-x="103" />
<glyph unicode="&#x2010;" horiz-adv-x="933" d="M160 580v174h614v-174h-614z" />
<glyph unicode="&#x2011;" horiz-adv-x="933" d="M160 580v174h614v-174h-614z" />
<glyph unicode="&#x2012;" horiz-adv-x="933" d="M160 580v174h614v-174h-614z" />
<glyph unicode="&#x2013;" horiz-adv-x="1343" d="M160 621v180h1024v-180h-1024z" />
<glyph unicode="&#x2014;" horiz-adv-x="1896" d="M160 621v180h1577v-180h-1577z" />
<glyph unicode="&#x2018;" horiz-adv-x="555" d="M145 946v168q0 122 46 231t112 191l80 -37q-82 -138 -82 -278h90v-275h-246z" />
<glyph unicode="&#x2019;" horiz-adv-x="555" d="M154 1159v275h247v-168q0 -122 -46.5 -231t-112.5 -191l-80 37q82 138 82 278h-90z" />
<glyph unicode="&#x201a;" horiz-adv-x="555" d="M154 0v274h247v-168q0 -121 -46.5 -229.5t-112.5 -191.5l-80 36q82 138 82 279h-90z" />
<glyph unicode="&#x201c;" horiz-adv-x="911" d="M145 946v168q0 122 46 231t112 191l80 -37q-82 -138 -82 -278h90v-275h-246zM500 946v168q0 122 45.5 231t111.5 191l80 -37q-82 -138 -82 -278h90v-275h-245z" />
<glyph unicode="&#x201d;" horiz-adv-x="911" d="M154 1159v275h247v-168q0 -122 -46.5 -231t-112.5 -191l-80 37q82 138 82 278h-90zM508 1159v275h248v-168q0 -121 -46.5 -230t-113.5 -192l-80 37q82 138 82 278h-90z" />
<glyph unicode="&#x201e;" horiz-adv-x="911" d="M154 0v274h247v-168q0 -121 -46.5 -229.5t-112.5 -191.5l-80 36q82 138 82 279h-90zM508 0v274h248v-168q0 -121 -46.5 -229.5t-113.5 -191.5l-80 36q82 138 82 279h-90z" />
<glyph unicode="&#x2022;" horiz-adv-x="731" d="M160 586q0 93 49 150t156 57t156.5 -57t49.5 -150q0 -94 -49 -150.5t-157 -56.5q-107 0 -156 56.5t-49 150.5z" />
<glyph unicode="&#x2026;" horiz-adv-x="1355" d="M154 0v274h247v-274h-247zM555 0v274h246v-274h-246zM954 0v274h248v-274h-248z" />
<glyph unicode="&#x202f;" horiz-adv-x="372" />
<glyph unicode="&#x205f;" horiz-adv-x="465" />
<glyph unicode="&#x20ac;" horiz-adv-x="1406" d="M160 651h108v146h-82l-26 114h110v27q0 516 557 516q114 0 226 -23.5t190 -56.5l-41 -155q-64 28 -162 48.5t-184 20.5q-175 0 -273 -87.5t-98 -262.5v-27h662l-21 -114h-641v-146h615l-19 -112h-596v-41q0 -163 100.5 -258t270.5 -95q171 0 354 70l37 -158 q-201 -77 -420 -77q-261 0 -409 131.5t-148 386.5v41h-84z" />
<glyph unicode="&#x2122;" horiz-adv-x="1824" d="M111 1298v136h563v-136h-205v-579h-156v579h-202zM774 719l62 715h170l227 -551l227 551h172l60 -715h-140l-45 487l-192 -487h-162l-192 487l-46 -487h-141z" />
<glyph unicode="&#x25fc;" horiz-adv-x="1024" d="M0 0v1024h1024v-1024h-1024z" />
</font>
</defs>
</svg>
